<svg width="111" height="36" viewBox="0 0 111 36" fill="none" xmlns="http://www.w3.org/2000/svg">
<path fill-rule="evenodd" clip-rule="evenodd" d="M41.7872 0.0916266C41.7872 0.142004 41.6636 0.183223 41.5124 0.183223C41.3613 0.183223 41.2376 0.224441 41.2376 0.274819C41.2376 0.325197 41.1552 0.366415 41.0545 0.366415C40.9537 0.366415 40.8713 0.407633 40.8713 0.458011C40.8713 0.508389 40.7888 0.549607 40.6881 0.549607C40.5873 0.549607 40.5049 0.590825 40.5049 0.641203C40.5049 0.691581 40.4315 0.732799 40.3419 0.732799C40.2523 0.732799 40.1195 0.815235 40.0469 0.915991C39.9743 1.01675 39.8415 1.09918 39.7519 1.09918C39.6623 1.09918 39.5889 1.1404 39.5889 1.19078C39.5889 1.24116 39.5244 1.28238 39.4456 1.28238C39.3667 1.28238 39.1015 1.48847 38.8562 1.74036C38.6108 1.99224 38.3651 2.19834 38.3101 2.19834C38.1793 2.19834 37.3906 2.98799 37.3906 3.11906C37.3906 3.17475 37.2257 3.37864 37.0242 3.57228C36.8227 3.76591 36.6578 3.98024 36.6578 4.04867C36.6578 4.11709 36.5754 4.23241 36.4747 4.30505C36.3739 4.37768 36.2915 4.5104 36.2915 4.60008C36.2915 4.68966 36.2502 4.76303 36.1999 4.76303C36.1495 4.76303 36.1083 4.83639 36.1083 4.92597C36.1083 5.01565 36.0258 5.14837 35.9251 5.22101C35.8243 5.29364 35.7419 5.42636 35.7419 5.51604C35.7419 5.60562 35.7007 5.67899 35.6503 5.67899C35.5999 5.67899 35.5587 5.76142 35.5587 5.86218C35.5587 5.96293 35.5175 6.04537 35.4671 6.04537C35.4167 6.04537 35.3755 6.12781 35.3755 6.22856C35.3755 6.32932 35.3343 6.41175 35.2839 6.41175C35.2335 6.41175 35.1923 6.53541 35.1923 6.68654C35.1923 6.83768 35.1511 6.96133 35.1007 6.96133C35.0503 6.96133 35.0091 7.04377 35.0091 7.14452C35.0091 7.24528 34.9679 7.32771 34.9175 7.32771C34.8671 7.32771 34.8259 7.45137 34.8259 7.6025C34.8259 7.75364 34.7847 7.87729 34.7343 7.87729C34.684 7.87729 34.6427 8.04216 34.6427 8.24368C34.6427 8.44519 34.6015 8.61006 34.5511 8.61006C34.5008 8.61006 34.4595 8.77493 34.4595 8.97644C34.4595 9.17796 34.4183 9.34283 34.3679 9.34283C34.3176 9.34283 34.2764 9.42527 34.2764 9.52602C34.2764 9.62678 34.2351 9.70921 34.1848 9.70921C34.1344 9.70921 34.0932 9.64629 34.0932 9.56944C34.0932 9.40969 33.3257 8.61006 33.1724 8.61006C33.1167 8.61006 32.9129 8.44519 32.7192 8.24368C32.5256 8.04216 32.3187 7.87729 32.2594 7.87729C32.2001 7.87729 32.036 7.75364 31.8949 7.6025C31.7537 7.45137 31.5813 7.32771 31.512 7.32771C31.4425 7.32771 31.3263 7.24528 31.2537 7.14452C31.181 7.04377 31.0483 6.96133 30.9587 6.96133C30.8691 6.96133 30.7957 6.92011 30.7957 6.86973C30.7957 6.81936 30.7133 6.77814 30.6125 6.77814C30.5118 6.77814 30.4293 6.73692 30.4293 6.68654C30.4293 6.63616 30.3469 6.59495 30.2461 6.59495C30.1454 6.59495 30.0629 6.55373 30.0629 6.50335C30.0629 6.45297 29.9805 6.41175 29.8797 6.41175C29.779 6.41175 29.6965 6.37054 29.6965 6.32016C29.6965 6.26978 29.6141 6.22856 29.5134 6.22856C29.4126 6.22856 29.3302 6.18734 29.3302 6.13697C29.3302 6.08659 29.2477 6.04537 29.147 6.04537C29.0462 6.04537 28.9638 6.00415 28.9638 5.95377C28.9638 5.9034 28.8401 5.86218 28.689 5.86218C28.5379 5.86218 28.4142 5.82096 28.4142 5.77058C28.4142 5.7202 28.2906 5.67899 28.1394 5.67899C27.9883 5.67899 27.8646 5.63777 27.8646 5.58739C27.8646 5.53701 27.6585 5.49579 27.4066 5.49579C27.1548 5.49579 26.9487 5.45458 26.9487 5.4042C26.9487 5.35199 26.6764 5.3126 26.3151 5.3126C25.8941 5.3126 25.666 5.27422 25.6351 5.19811C25.6001 5.11164 25.5628 5.11723 25.4831 5.22101C25.4034 5.32478 25.3662 5.33037 25.3312 5.2439C25.3056 5.18098 25.2091 5.12941 25.1167 5.12941C25.0244 5.12941 24.9279 5.18098 24.9023 5.2439C24.8674 5.3301 24.8315 5.32442 24.7573 5.22101C24.6698 5.09891 24.6478 5.09891 24.5602 5.22101C24.486 5.32442 24.4501 5.3301 24.4152 5.2439C24.3601 5.10825 24.0176 5.08847 24.0176 5.22101C24.0176 5.27138 23.8115 5.3126 23.5596 5.3126C23.3077 5.3126 23.1016 5.27138 23.1016 5.22101C23.1016 5.17063 23.2665 5.12941 23.468 5.12941C23.6695 5.12941 23.8344 5.08819 23.8344 5.03781C23.8344 4.98689 24.0787 4.94622 24.384 4.94622C24.6893 4.94622 24.9336 4.90555 24.9336 4.85462C24.9336 4.79765 25.4526 4.76303 26.3075 4.76303C27.1624 4.76303 27.6814 4.79765 27.6814 4.85462C27.6814 4.90555 27.9257 4.94622 28.231 4.94622C28.5363 4.94622 28.7806 4.98689 28.7806 5.03781C28.7806 5.08819 28.9455 5.12941 29.147 5.12941C29.3485 5.12941 29.5134 5.17063 29.5134 5.22101C29.5134 5.27138 29.637 5.3126 29.7881 5.3126C29.9393 5.3126 30.0629 5.35382 30.0629 5.4042C30.0629 5.45458 30.1866 5.49579 30.3377 5.49579C30.4889 5.49579 30.6125 5.53701 30.6125 5.58739C30.6125 5.63777 30.7362 5.67899 30.8873 5.67899C31.0384 5.67899 31.1621 5.7202 31.1621 5.77058C31.1621 5.82096 31.2445 5.86218 31.3453 5.86218C31.446 5.86218 31.5285 5.9034 31.5285 5.95377C31.5285 6.00415 31.6109 6.04537 31.7117 6.04537C31.8124 6.04537 31.8949 6.08659 31.8949 6.13697C31.8949 6.18734 31.9773 6.22856 32.078 6.22856C32.1788 6.22856 32.2612 6.26978 32.2612 6.32016C32.2612 6.37054 32.3437 6.41175 32.4444 6.41175C32.5452 6.41175 32.6276 6.45297 32.6276 6.50335C32.6276 6.55373 32.701 6.59495 32.7906 6.59495C32.8802 6.59495 33.013 6.67738 33.0856 6.77814C33.1582 6.87889 33.2733 6.96133 33.3413 6.96133C33.5008 6.96133 33.7268 6.73536 33.7268 6.57589C33.7268 6.50784 33.8092 6.39279 33.91 6.32016C34.0107 6.24752 34.0932 6.1148 34.0932 6.02513C34.0932 5.93555 34.1344 5.86218 34.1848 5.86218C34.2351 5.86218 34.2764 5.78881 34.2764 5.69923C34.2764 5.60956 34.3588 5.47683 34.4595 5.4042C34.5603 5.33156 34.6427 5.20791 34.6427 5.12941C34.6427 5.05091 34.7252 4.92726 34.8259 4.85462C34.9267 4.78199 35.0091 4.66667 35.0091 4.59824C35.0091 4.52982 35.174 4.31549 35.3755 4.12185C35.577 3.92822 35.7419 3.72451 35.7419 3.66909C35.7419 3.53775 36.7149 2.56472 36.8463 2.56472C36.9017 2.56472 37.1054 2.39985 37.299 2.19834C37.4927 1.99682 37.6996 1.83195 37.7588 1.83195C37.8182 1.83195 37.9822 1.7083 38.1234 1.55716C38.2645 1.40603 38.446 1.28238 38.5265 1.28238C38.6071 1.28238 38.673 1.24116 38.673 1.19078C38.673 1.1404 38.7554 1.09918 38.8562 1.09918C38.9569 1.09918 39.0393 1.05796 39.0393 1.00759C39.0393 0.957209 39.1218 0.915991 39.2225 0.915991C39.3233 0.915991 39.4057 0.874773 39.4057 0.824395C39.4057 0.774017 39.4882 0.732799 39.5889 0.732799C39.6897 0.732799 39.7721 0.691581 39.7721 0.641203C39.7721 0.590825 39.8545 0.549607 39.9553 0.549607C40.0561 0.549607 40.1385 0.508389 40.1385 0.458011C40.1385 0.407633 40.2622 0.366415 40.4133 0.366415C40.5644 0.366415 40.6881 0.325197 40.6881 0.274819C40.6881 0.224441 40.8117 0.183223 40.9629 0.183223C41.114 0.183223 41.2376 0.142004 41.2376 0.0916266C41.2376 0.0412487 41.3613 3.05176e-05 41.5124 3.05176e-05C41.6636 3.05176e-05 41.7872 0.0412487 41.7872 0.0916266ZM52.2292 1.00759C52.2292 1.14855 53.8499 1.12657 53.9161 0.984688C53.9588 0.893092 53.9802 0.893092 54.0229 0.984688C54.0598 1.06374 54.3293 1.09918 54.8931 1.09918C55.3765 1.09918 55.7098 1.13655 55.7098 1.19078C55.7098 1.24171 55.9541 1.28238 56.2594 1.28238C56.5647 1.28238 56.809 1.32304 56.809 1.37397C56.809 1.42435 57.0151 1.46557 57.267 1.46557C57.5188 1.46557 57.7249 1.50679 57.7249 1.55716C57.7249 1.60754 57.8898 1.64876 58.0913 1.64876C58.2928 1.64876 58.4577 1.68998 58.4577 1.74036C58.4577 1.79073 58.5814 1.83195 58.7325 1.83195C58.8836 1.83195 59.0073 1.87317 59.0073 1.92355C59.0073 1.97393 59.1309 2.01514 59.2821 2.01514C59.4332 2.01514 59.5569 2.05636 59.5569 2.10674C59.5569 2.15712 59.6805 2.19834 59.8316 2.19834C59.9828 2.19834 60.1064 2.23955 60.1064 2.28993C60.1064 2.34031 60.1889 2.38153 60.2896 2.38153C60.3904 2.38153 60.4728 2.42275 60.4728 2.47312C60.4728 2.5235 60.5553 2.56472 60.656 2.56472C60.7568 2.56472 60.8392 2.60594 60.8392 2.65632C60.8392 2.70669 60.9629 2.74791 61.114 2.74791C61.2651 2.74791 61.3888 2.78913 61.3888 2.83951C61.3888 2.88989 61.4712 2.9311 61.572 2.9311C61.6727 2.9311 61.7552 2.97232 61.7552 3.0227C61.7552 3.07308 61.8376 3.1143 61.9384 3.1143C62.0391 3.1143 62.1215 3.15551 62.1215 3.20589C62.1215 3.25627 62.1949 3.29749 62.2845 3.29749C62.3742 3.29749 62.5069 3.37992 62.5795 3.48068C62.6522 3.58144 62.7758 3.66387 62.8543 3.66387C62.9328 3.66387 63.0565 3.74631 63.1291 3.84706C63.2017 3.94782 63.3254 4.03026 63.4039 4.03026C63.4824 4.03026 63.606 4.11269 63.6787 4.21345C63.7513 4.3142 63.8675 4.39664 63.937 4.39664C64.0063 4.39664 64.1787 4.5203 64.3199 4.67143C64.461 4.82256 64.6222 4.94622 64.678 4.94622C64.8104 4.94622 67.4341 7.5699 67.4341 7.70235C67.4341 7.75813 67.5578 7.91933 67.7089 8.06048C67.86 8.20163 67.9837 8.37402 67.9837 8.44335C67.9837 8.51278 68.0661 8.62902 68.1669 8.70166C68.2676 8.77429 68.3501 8.89795 68.3501 8.97644C68.3501 9.05494 68.4325 9.1786 68.5333 9.25123C68.634 9.32387 68.7165 9.45659 68.7165 9.54626C68.7165 9.63585 68.7577 9.70921 68.8081 9.70921C68.8584 9.70921 68.8997 9.79165 68.8997 9.8924C68.8997 9.99316 68.9409 10.0756 68.9913 10.0756C69.0416 10.0756 69.0828 10.158 69.0828 10.2588C69.0828 10.3595 69.1241 10.442 69.1744 10.442C69.2248 10.442 69.266 10.5244 69.266 10.6252C69.266 10.7259 69.3073 10.8084 69.3576 10.8084C69.408 10.8084 69.4492 10.8908 69.4492 10.9916C69.4492 11.0923 69.4905 11.1747 69.5408 11.1747C69.5912 11.1747 69.6324 11.2572 69.6324 11.3579C69.6324 11.4587 69.6736 11.5411 69.724 11.5411C69.7744 11.5411 69.8156 11.6648 69.8156 11.8159C69.8156 11.9671 69.8568 12.0907 69.9072 12.0907C69.9576 12.0907 69.9988 12.2144 69.9988 12.3655C69.9988 12.5166 70.04 12.6403 70.0904 12.6403C70.1408 12.6403 70.182 12.7639 70.182 12.9151C70.182 13.0662 70.2232 13.1899 70.2736 13.1899C70.324 13.1899 70.3652 13.3135 70.3652 13.4647C70.3652 13.6158 70.4064 13.7394 70.4568 13.7394C70.5072 13.7394 70.5484 13.9043 70.5484 14.1058C70.5484 14.3073 70.5896 14.4722 70.64 14.4722C70.6923 14.4722 70.7316 14.747 70.7316 15.1134C70.7316 15.4798 70.7709 15.7546 70.8232 15.7546C70.8787 15.7546 70.9148 16.149 70.9148 16.7545C70.9148 17.4648 70.9479 17.7698 71.0293 17.8079C71.1209 17.8505 71.1209 17.872 71.0293 17.9147C70.9663 17.9441 70.9148 18.0437 70.9148 18.136C70.9148 18.2284 70.9663 18.328 71.0293 18.3574C71.1209 18.4001 71.1209 18.4216 71.0293 18.4642C70.9479 18.5023 70.9148 18.8073 70.9148 19.5176C70.9148 20.1231 70.8787 20.5175 70.8232 20.5175C70.7722 20.5175 70.7316 20.7618 70.7316 21.0671C70.7316 21.3724 70.6909 21.6167 70.64 21.6167C70.5896 21.6167 70.5484 21.7816 70.5484 21.9831C70.5484 22.1846 70.5072 22.3495 70.4568 22.3495C70.4064 22.3495 70.3652 22.5143 70.3652 22.7159C70.3652 22.9174 70.324 23.0822 70.2736 23.0822C70.2232 23.0822 70.182 23.2059 70.182 23.357C70.182 23.5082 70.1408 23.6318 70.0904 23.6318C70.04 23.6318 69.9988 23.7555 69.9988 23.9066C69.9988 24.0577 69.9576 24.1814 69.9072 24.1814C69.8568 24.1814 69.8156 24.305 69.8156 24.4562C69.8156 24.6073 69.7744 24.731 69.724 24.731C69.6736 24.731 69.6324 24.8134 69.6324 24.9142C69.6324 25.0149 69.5912 25.0974 69.5408 25.0974C69.4905 25.0974 69.4492 25.1798 69.4492 25.2805C69.4492 25.3813 69.408 25.4637 69.3576 25.4637C69.3073 25.4637 69.266 25.5462 69.266 25.6469C69.266 25.7477 69.2248 25.8301 69.1744 25.8301C69.1241 25.8301 69.0828 25.9126 69.0828 26.0133C69.0828 26.1141 69.0416 26.1965 68.9913 26.1965C68.9409 26.1965 68.8997 26.2789 68.8997 26.3797C68.8997 26.4805 68.8584 26.5629 68.8081 26.5629C68.7577 26.5629 68.7165 26.6363 68.7165 26.7258C68.7165 26.8155 68.634 26.9482 68.5333 27.0209C68.4325 27.0935 68.3501 27.2172 68.3501 27.2957C68.3501 27.3742 68.2676 27.4978 68.1669 27.5704C68.0661 27.6431 67.9837 27.7593 67.9837 27.8287C67.9837 27.8981 67.86 28.0705 67.7089 28.2116C67.5578 28.3528 67.4341 28.5156 67.4341 28.5733C67.4341 28.6311 67.1456 28.963 66.7929 29.3108C66.4403 29.6586 66.1518 30.0069 66.1518 30.0849C66.1518 30.1629 66.0879 30.2267 66.01 30.2267C65.9319 30.2267 65.5836 30.5153 65.2358 30.8679C64.888 31.2205 64.5562 31.5091 64.4984 31.5091C64.4407 31.5091 64.2778 31.6327 64.1367 31.7839C63.9955 31.935 63.8231 32.0587 63.7538 32.0587C63.6844 32.0587 63.5681 32.1411 63.4955 32.2418C63.4229 32.3426 63.2992 32.425 63.2207 32.425C63.1422 32.425 63.0186 32.5075 62.9459 32.6082C62.8733 32.709 62.7406 32.7914 62.6509 32.7914C62.5613 32.7914 62.4879 32.8326 62.4879 32.883C62.4879 32.9334 62.4055 32.9746 62.3047 32.9746C62.204 32.9746 62.1215 33.0158 62.1215 33.0662C62.1215 33.1166 62.0391 33.1578 61.9384 33.1578C61.8376 33.1578 61.7552 33.199 61.7552 33.2494C61.7552 33.2998 61.6727 33.341 61.572 33.341C61.4712 33.341 61.3888 33.3822 61.3888 33.4326C61.3888 33.483 61.3063 33.5242 61.2056 33.5242C61.1048 33.5242 61.0224 33.5654 61.0224 33.6158C61.0224 33.6662 60.94 33.7074 60.8392 33.7074C60.7384 33.7074 60.656 33.7486 60.656 33.799C60.656 33.8494 60.5324 33.8906 60.3812 33.8906C60.2301 33.8906 60.1064 33.9318 60.1064 33.9822C60.1064 34.0325 60.024 34.0738 59.9232 34.0738C59.8225 34.0738 59.7401 34.115 59.7401 34.1654C59.7401 34.2157 59.6164 34.257 59.4653 34.257C59.3141 34.257 59.1905 34.2982 59.1905 34.3486C59.1905 34.3989 59.0668 34.4401 58.9157 34.4401C58.7646 34.4401 58.6409 34.4814 58.6409 34.5317C58.6409 34.5821 58.476 34.6233 58.2745 34.6233C58.073 34.6233 57.9081 34.6646 57.9081 34.7149C57.9081 34.7653 57.7433 34.8065 57.5417 34.8065C57.3402 34.8065 57.1754 34.8478 57.1754 34.8981C57.1754 34.9485 56.9693 34.9897 56.7174 34.9897C56.4655 34.9897 56.2594 35.0309 56.2594 35.0813C56.2594 35.1347 55.9541 35.1729 55.5266 35.1729C55.0992 35.1729 54.7939 35.2111 54.7939 35.2645C54.7939 35.3225 54.1222 35.3561 52.9619 35.3561C51.8017 35.3561 51.13 35.3225 51.13 35.2645C51.13 35.2111 50.8247 35.1729 50.3973 35.1729C49.9698 35.1729 49.6645 35.1347 49.6645 35.0813C49.6645 35.0309 49.4584 34.9897 49.2065 34.9897C48.9546 34.9897 48.7485 34.9485 48.7485 34.8981C48.7485 34.8478 48.5837 34.8065 48.3821 34.8065C48.1806 34.8065 48.0158 34.7653 48.0158 34.7149C48.0158 34.6646 47.8509 34.6233 47.6494 34.6233C47.4479 34.6233 47.283 34.5821 47.283 34.5317C47.283 34.4814 47.1593 34.4401 47.0082 34.4401C46.8571 34.4401 46.7334 34.3989 46.7334 34.3486C46.7334 34.2982 46.6098 34.257 46.4586 34.257C46.3075 34.257 46.1838 34.2157 46.1838 34.1654C46.1838 34.115 46.0602 34.0738 45.909 34.0738C45.7579 34.0738 45.6343 34.0325 45.6343 33.9822C45.6343 33.9318 45.5518 33.8906 45.4511 33.8906C45.3503 33.8906 45.2679 33.8494 45.2679 33.799C45.2679 33.7486 45.1854 33.7074 45.0847 33.7074C44.9839 33.7074 44.9015 33.6662 44.9015 33.6158C44.9015 33.5654 44.8191 33.5242 44.7183 33.5242C44.6175 33.5242 44.5351 33.483 44.5351 33.4326C44.5351 33.3822 44.4527 33.341 44.3519 33.341C44.2512 33.341 44.1687 33.2998 44.1687 33.2494C44.1687 33.199 44.0863 33.1578 43.9855 33.1578C43.8848 33.1578 43.8023 33.1166 43.8023 33.0662C43.8023 33.0158 43.7199 32.9746 43.6191 32.9746C43.5184 32.9746 43.436 32.9334 43.436 32.883C43.436 32.8326 43.3626 32.7914 43.273 32.7914C43.1833 32.7914 43.0506 32.709 42.978 32.6082C42.9053 32.5075 42.7817 32.425 42.7032 32.425C42.6247 32.425 42.501 32.3426 42.4284 32.2418C42.3558 32.1411 42.2395 32.0587 42.1701 32.0587C42.1008 32.0587 41.9284 31.935 41.7872 31.7839C41.6461 31.6327 41.4826 31.5091 41.424 31.5091C41.3653 31.5091 41.1167 31.303 40.8713 31.0511C40.6259 30.7992 40.3804 30.5931 40.3256 30.5931C40.1959 30.5931 39.2225 29.6197 39.2225 29.49C39.2225 29.4352 39.0164 29.1898 38.7646 28.9444C38.5127 28.699 38.3066 28.4429 38.3066 28.3752C38.3066 28.3074 38.2241 28.1927 38.1234 28.12C38.0226 28.0474 37.9402 27.9237 37.9402 27.8452C37.9402 27.7667 37.8578 27.6431 37.757 27.5704C37.6562 27.4978 37.5738 27.3742 37.5738 27.2957C37.5738 27.2172 37.4914 27.0935 37.3906 27.0209C37.2899 26.9482 37.2074 26.8155 37.2074 26.7258C37.2074 26.6363 37.1662 26.5629 37.1158 26.5629C37.0655 26.5629 37.0242 26.4805 37.0242 26.3797C37.0242 26.2789 36.983 26.1965 36.9326 26.1965C36.8823 26.1965 36.841 26.1141 36.841 26.0133C36.841 25.9126 36.7998 25.8301 36.7494 25.8301C36.6991 25.8301 36.6578 25.7477 36.6578 25.6469C36.6578 25.5462 36.6166 25.4637 36.5663 25.4637C36.5159 25.4637 36.4747 25.3813 36.4747 25.2805C36.4747 25.1798 36.4334 25.0974 36.3831 25.0974C36.3327 25.0974 36.2915 25.0149 36.2915 24.9142C36.2915 24.8134 36.2502 24.731 36.1999 24.731C36.1495 24.731 36.1083 24.6073 36.1083 24.4562C36.1083 24.305 36.0671 24.1814 36.0167 24.1814C35.9663 24.1814 35.9251 24.099 35.9251 23.9982C35.9251 23.8974 35.8839 23.815 35.8335 23.815C35.7831 23.815 35.7419 23.6914 35.7419 23.5402C35.7419 23.3891 35.7007 23.2654 35.6503 23.2654C35.5999 23.2654 35.5587 23.1006 35.5587 22.899C35.5587 22.6975 35.5175 22.5327 35.4671 22.5327C35.4167 22.5327 35.3755 22.3678 35.3755 22.1663C35.3755 21.9648 35.3343 21.7999 35.2839 21.7999C35.2335 21.7999 35.1923 21.635 35.1923 21.4335C35.1923 21.232 35.1511 21.0671 35.1007 21.0671C35.0503 21.0671 35.0091 21.1496 35.0091 21.2503C35.0091 21.3511 34.9679 21.4335 34.9175 21.4335C34.8671 21.4335 34.8259 21.5572 34.8259 21.7083C34.8259 21.8594 34.7847 21.9831 34.7343 21.9831C34.684 21.9831 34.6427 22.0565 34.6427 22.146C34.6427 22.2357 34.5603 22.3684 34.4595 22.4411C34.3588 22.5137 34.2764 22.6374 34.2764 22.7159C34.2764 22.7944 34.1939 22.918 34.0932 22.9906C33.9924 23.0633 33.91 23.176 33.91 23.2412C33.91 23.3063 33.5602 23.7094 33.1327 24.1369C32.7052 24.5644 32.3021 24.9142 32.237 24.9142C32.1718 24.9142 32.0591 24.9966 31.9865 25.0974C31.9138 25.1981 31.7902 25.2805 31.7117 25.2805C31.6332 25.2805 31.5095 25.363 31.4369 25.4637C31.3642 25.5645 31.2315 25.6469 31.1418 25.6469C31.0523 25.6469 30.9789 25.6881 30.9789 25.7385C30.9789 25.7889 30.8965 25.8301 30.7957 25.8301C30.6949 25.8301 30.6125 25.8713 30.6125 25.9217C30.6125 25.9721 30.4889 26.0133 30.3377 26.0133C30.1866 26.0133 30.0629 26.0545 30.0629 26.1049C30.0629 26.1553 29.9805 26.1965 29.8797 26.1965C29.779 26.1965 29.6965 26.2377 29.6965 26.2881C29.6965 26.3385 29.5317 26.3797 29.3302 26.3797C29.1287 26.3797 28.9638 26.4209 28.9638 26.4713C28.9638 26.5217 28.7577 26.5629 28.5058 26.5629C28.2539 26.5629 28.0478 26.6041 28.0478 26.6545C28.0478 26.7115 27.5287 26.7461 26.6739 26.7461C25.819 26.7461 25.2999 26.7115 25.2999 26.6545C25.2999 26.6041 25.0938 26.5629 24.842 26.5629C24.5901 26.5629 24.384 26.5217 24.384 26.4713C24.384 26.4209 24.2603 26.3797 24.1092 26.3797C23.9581 26.3797 23.8344 26.3385 23.8344 26.2881C23.8344 26.2377 23.7107 26.1965 23.5596 26.1965C23.4085 26.1965 23.2848 26.1553 23.2848 26.1049C23.2848 26.0545 23.2024 26.0133 23.1016 26.0133C23.0009 26.0133 22.9184 25.9721 22.9184 25.9217C22.9184 25.8713 22.8039 25.8301 22.6639 25.8301C22.5144 25.8301 22.3549 25.7545 22.2773 25.6469C22.2046 25.5462 22.0719 25.4637 21.9822 25.4637C21.8927 25.4637 21.8193 25.4225 21.8193 25.3721C21.8193 25.3218 21.7534 25.2805 21.6728 25.2805C21.5923 25.2805 21.4109 25.1569 21.2697 25.0058C21.1286 24.8546 20.967 24.731 20.9107 24.731C20.8544 24.731 20.5412 24.4638 20.2146 24.1373C19.8882 23.8108 19.621 23.4975 19.621 23.4413C19.621 23.385 19.4973 23.2234 19.3462 23.0822C19.1951 22.9411 19.0714 22.7596 19.0714 22.6791C19.0714 22.5985 19.0302 22.5327 18.9798 22.5327C18.9294 22.5327 18.8882 22.4502 18.8882 22.3495C18.8882 22.2487 18.847 22.1663 18.7966 22.1663C18.7462 22.1663 18.705 22.0838 18.705 21.9831C18.705 21.8823 18.6638 21.7999 18.6134 21.7999C18.563 21.7999 18.5218 21.7175 18.5218 21.6167C18.5218 21.5159 18.4806 21.4335 18.4302 21.4335C18.3799 21.4335 18.3386 21.3099 18.3386 21.1587C18.3386 21.0076 18.2974 20.8839 18.247 20.8839C18.1967 20.8839 18.1554 20.7603 18.1554 20.6091C18.1554 20.458 18.1142 20.3344 18.0639 20.3344C18.0135 20.3344 17.9723 20.1283 17.9723 19.8764C17.9723 19.6245 17.931 19.4184 17.8807 19.4184C17.824 19.4184 17.7891 18.9299 17.7891 18.136C17.7891 17.3422 17.824 16.8537 17.8807 16.8537C17.931 16.8537 17.9723 16.6476 17.9723 16.3957C17.9723 16.1438 18.0135 15.9377 18.0639 15.9377C18.1142 15.9377 18.1554 15.8141 18.1554 15.663C18.1554 15.5118 18.1967 15.3882 18.247 15.3882C18.2974 15.3882 18.3386 15.2645 18.3386 15.1134C18.3386 14.9622 18.3799 14.8386 18.4302 14.8386C18.4806 14.8386 18.5218 14.7562 18.5218 14.6554C18.5218 14.5546 18.563 14.4722 18.6134 14.4722C18.6638 14.4722 18.705 14.3898 18.705 14.289C18.705 14.1883 18.7462 14.1058 18.7966 14.1058C18.847 14.1058 18.8882 14.0325 18.8882 13.9429C18.8882 13.8532 18.9707 13.7205 19.0714 13.6478C19.1722 13.5752 19.2546 13.4599 19.2546 13.3915C19.2546 13.323 19.4195 13.1087 19.621 12.9151C19.8225 12.7214 19.9874 12.5156 19.9874 12.4577C19.9874 12.3223 20.2182 12.0907 20.3531 12.0907C20.4104 12.0907 20.6579 11.8846 20.9033 11.6327C21.1487 11.3808 21.4048 11.1747 21.4725 11.1747C21.5403 11.1747 21.6551 11.0923 21.7277 10.9916C21.8003 10.8908 21.9331 10.8084 22.0227 10.8084C22.1123 10.8084 22.1857 10.7671 22.1857 10.7168C22.1857 10.6664 22.2681 10.6252 22.3689 10.6252C22.4696 10.6252 22.5521 10.584 22.5521 10.5336C22.5521 10.4832 22.6345 10.442 22.7352 10.442C22.836 10.442 22.9184 10.4008 22.9184 10.3504C22.9184 10.3 23.0421 10.2588 23.1932 10.2588C23.3444 10.2588 23.468 10.2176 23.468 10.1672C23.468 10.1168 23.5917 10.0756 23.7428 10.0756C23.8939 10.0756 24.0176 10.0344 24.0176 9.984C24.0176 9.93362 24.1825 9.8924 24.384 9.8924C24.5855 9.8924 24.7504 9.85119 24.7504 9.80081C24.7504 9.74265 25.4526 9.70921 26.6739 9.70921C27.8951 9.70921 28.5974 9.74265 28.5974 9.80081C28.5974 9.85119 28.7623 9.8924 28.9638 9.8924C29.1653 9.8924 29.3302 9.93362 29.3302 9.984C29.3302 10.0344 29.4538 10.0756 29.605 10.0756C29.7561 10.0756 29.8797 10.1168 29.8797 10.1672C29.8797 10.2176 30.0034 10.2588 30.1545 10.2588C30.3057 10.2588 30.4293 10.3 30.4293 10.3504C30.4293 10.4008 30.5118 10.442 30.6125 10.442C30.7133 10.442 30.7957 10.4832 30.7957 10.5336C30.7957 10.584 30.8781 10.6252 30.9789 10.6252C31.0796 10.6252 31.1621 10.6664 31.1621 10.7168C31.1621 10.7671 31.2355 10.8084 31.325 10.8084C31.4147 10.8084 31.5474 10.8908 31.6201 10.9916C31.6927 11.0923 31.8089 11.1747 31.8784 11.1747C31.9477 11.1747 32.1201 11.2984 32.2612 11.4495C32.4024 11.6007 32.5641 11.7243 32.6206 11.7243C32.7639 11.7243 33.7268 12.7016 33.7268 12.8471C33.7268 12.9126 33.8092 13.0256 33.91 13.0983C34.0107 13.1709 34.0932 13.2946 34.0932 13.3731C34.0932 13.4516 34.1756 13.5752 34.2764 13.6478C34.3771 13.7205 34.4595 13.8532 34.4595 13.9429C34.4595 14.0325 34.5008 14.1058 34.5511 14.1058C34.6015 14.1058 34.6427 14.1883 34.6427 14.289C34.6427 14.3898 34.684 14.4722 34.7343 14.4722C34.7847 14.4722 34.8259 14.5546 34.8259 14.6554C34.8259 14.7562 34.8671 14.8386 34.9175 14.8386C34.9679 14.8386 35.0091 14.921 35.0091 15.0218C35.0091 15.1225 35.0503 15.205 35.1007 15.205C35.1511 15.205 35.1923 15.0401 35.1923 14.8386C35.1923 14.6371 35.2335 14.4722 35.2839 14.4722C35.3343 14.4722 35.3755 14.3073 35.3755 14.1058C35.3755 13.9043 35.4167 13.7394 35.4671 13.7394C35.5175 13.7394 35.5587 13.5746 35.5587 13.3731C35.5587 13.1715 35.5999 13.0067 35.6503 13.0067C35.7007 13.0067 35.7419 12.883 35.7419 12.7319C35.7419 12.5807 35.7831 12.4571 35.8335 12.4571C35.8839 12.4571 35.9251 12.3334 35.9251 12.1823C35.9251 12.0312 35.9663 11.9075 36.0167 11.9075C36.0671 11.9075 36.1083 11.8251 36.1083 11.7243C36.1083 11.6236 36.1495 11.5411 36.1999 11.5411C36.2502 11.5411 36.2915 11.4587 36.2915 11.3579C36.2915 11.2572 36.3327 11.1747 36.3831 11.1747C36.4334 11.1747 36.4747 11.0923 36.4747 10.9916C36.4747 10.8908 36.5159 10.8084 36.5663 10.8084C36.6166 10.8084 36.6578 10.7259 36.6578 10.6252C36.6578 10.5244 36.6991 10.442 36.7494 10.442C36.7998 10.442 36.841 10.3595 36.841 10.2588C36.841 10.158 36.8823 10.0756 36.9326 10.0756C36.983 10.0756 37.0242 9.99316 37.0242 9.8924C37.0242 9.79165 37.0655 9.70921 37.1158 9.70921C37.1662 9.70921 37.2074 9.62678 37.2074 9.52602C37.2074 9.42527 37.2486 9.34283 37.299 9.34283C37.3494 9.34283 37.3906 9.26946 37.3906 9.17988C37.3906 9.09021 37.4731 8.95748 37.5738 8.88485C37.6746 8.81221 37.757 8.69598 37.757 8.62655C37.757 8.55721 37.8807 8.38482 38.0318 8.24368C38.1829 8.10253 38.3066 7.93903 38.3066 7.8804C38.3066 7.82178 38.5127 7.5731 38.7646 7.32771C39.0164 7.08233 39.2225 6.83685 39.2225 6.78208C39.2225 6.65238 40.1959 5.67899 40.3256 5.67899C40.3804 5.67899 40.6259 5.47289 40.8713 5.22101C41.1167 4.96912 41.3653 4.76303 41.424 4.76303C41.4826 4.76303 41.6461 4.63937 41.7872 4.48824C41.9284 4.3371 42.1008 4.21345 42.1701 4.21345C42.2395 4.21345 42.3558 4.13101 42.4284 4.03026C42.501 3.9295 42.6338 3.84706 42.7234 3.84706C42.813 3.84706 42.8864 3.80585 42.8864 3.75547C42.8864 3.70509 42.9598 3.66387 43.0493 3.66387C43.139 3.66387 43.2717 3.58144 43.3444 3.48068C43.417 3.37992 43.5497 3.29749 43.6394 3.29749C43.729 3.29749 43.8023 3.25627 43.8023 3.20589C43.8023 3.15551 43.8848 3.1143 43.9855 3.1143C44.0863 3.1143 44.1687 3.07308 44.1687 3.0227C44.1687 2.97232 44.2512 2.9311 44.3519 2.9311C44.4527 2.9311 44.5351 2.88989 44.5351 2.83951C44.5351 2.78913 44.6175 2.74791 44.7183 2.74791C44.8191 2.74791 44.9015 2.70669 44.9015 2.65632C44.9015 2.60594 45.0251 2.56472 45.1763 2.56472C45.3274 2.56472 45.4511 2.5235 45.4511 2.47312C45.4511 2.42275 45.5335 2.38153 45.6343 2.38153C45.735 2.38153 45.8175 2.34031 45.8175 2.28993C45.8175 2.23955 45.9411 2.19834 46.0922 2.19834C46.2434 2.19834 46.367 2.15712 46.367 2.10674C46.367 2.05636 46.4907 2.01514 46.6418 2.01514C46.793 2.01514 46.9166 1.97393 46.9166 1.92355C46.9166 1.87317 47.0403 1.83195 47.1914 1.83195C47.3425 1.83195 47.4662 1.79073 47.4662 1.74036C47.4662 1.68998 47.6311 1.64876 47.8326 1.64876C48.0341 1.64876 48.1989 1.60754 48.1989 1.55716C48.1989 1.50679 48.3638 1.46557 48.5653 1.46557C48.7668 1.46557 48.9317 1.42435 48.9317 1.37397C48.9317 1.32304 49.176 1.28238 49.4813 1.28238C49.7866 1.28238 50.0309 1.24171 50.0309 1.19078C50.0309 1.13527 50.4278 1.09918 51.0384 1.09918C51.6491 1.09918 52.046 1.06309 52.046 1.00759C52.046 0.957209 52.0872 0.915991 52.1376 0.915991C52.188 0.915991 52.2292 0.957209 52.2292 1.00759ZM22.7352 5.4042C22.7352 5.45458 22.694 5.49579 22.6437 5.49579C22.5933 5.49579 22.5521 5.45458 22.5521 5.4042C22.5521 5.35382 22.5933 5.3126 22.6437 5.3126C22.694 5.3126 22.7352 5.35382 22.7352 5.4042ZM52.2292 6.86973C52.2292 6.92204 51.9544 6.96133 51.588 6.96133C51.2216 6.96133 50.9468 7.00063 50.9468 7.05293C50.9468 7.1033 50.7407 7.14452 50.4889 7.14452C50.237 7.14452 50.0309 7.18574 50.0309 7.23612C50.0309 7.2865 49.9072 7.32771 49.7561 7.32771C49.6049 7.32771 49.4813 7.36893 49.4813 7.41931C49.4813 7.46969 49.3576 7.51091 49.2065 7.51091C49.0554 7.51091 48.9317 7.55212 48.9317 7.6025C48.9317 7.65288 48.8081 7.6941 48.6569 7.6941C48.5058 7.6941 48.3821 7.73532 48.3821 7.7857C48.3821 7.83607 48.2997 7.87729 48.1989 7.87729C48.0982 7.87729 48.0158 7.91851 48.0158 7.96889C48.0158 8.01927 47.9333 8.06048 47.8326 8.06048C47.7318 8.06048 47.6494 8.1017 47.6494 8.15208C47.6494 8.20246 47.576 8.24368 47.4864 8.24368C47.3967 8.24368 47.264 8.32611 47.1914 8.42687C47.1188 8.52762 46.9951 8.61006 46.9166 8.61006C46.8381 8.61006 46.7145 8.6925 46.6418 8.79325C46.5692 8.89401 46.4455 8.97644 46.367 8.97644C46.2885 8.97644 46.1649 9.05888 46.0922 9.15964C46.0196 9.26039 45.9069 9.34283 45.8418 9.34283C45.6976 9.34283 43.9855 11.0396 43.9855 11.1826C43.9855 11.2386 43.8619 11.4 43.7107 11.5411C43.5596 11.6823 43.436 11.8637 43.436 11.9442C43.436 12.0249 43.3947 12.0907 43.3444 12.0907C43.294 12.0907 43.2528 12.1641 43.2528 12.2537C43.2528 12.3433 43.1703 12.4761 43.0696 12.5487C42.9688 12.6213 42.8864 12.754 42.8864 12.8437C42.8864 12.9333 42.8452 13.0067 42.7948 13.0067C42.7444 13.0067 42.7032 13.0891 42.7032 13.1899C42.7032 13.2906 42.662 13.3731 42.6116 13.3731C42.5612 13.3731 42.52 13.4967 42.52 13.6478C42.52 13.799 42.4788 13.9226 42.4284 13.9226C42.378 13.9226 42.3368 14.0051 42.3368 14.1058C42.3368 14.2066 42.2956 14.289 42.2452 14.289C42.1948 14.289 42.1536 14.4127 42.1536 14.5638C42.1536 14.7149 42.1124 14.8386 42.062 14.8386C42.0116 14.8386 41.9704 15.0001 41.9704 15.1974C41.9704 15.4014 41.921 15.5737 41.8559 15.597C41.793 15.6195 41.7704 15.669 41.8057 15.7071C41.8806 15.7876 42.1536 15.5406 42.1536 15.3923C42.1536 15.2506 42.9481 14.4722 43.0928 14.4722C43.1585 14.4722 43.2717 14.3898 43.3444 14.289C43.417 14.1883 43.5497 14.1058 43.6394 14.1058C43.729 14.1058 43.8023 14.0646 43.8023 14.0142C43.8023 13.9638 43.8848 13.9226 43.9855 13.9226C44.0863 13.9226 44.1687 13.8814 44.1687 13.831C44.1687 13.7807 44.3336 13.7394 44.5351 13.7394C44.7366 13.7394 44.9015 13.6982 44.9015 13.6478C44.9015 13.5923 45.2984 13.5562 45.909 13.5562C46.5197 13.5562 46.9166 13.5923 46.9166 13.6478C46.9166 13.6982 47.0403 13.7394 47.1914 13.7394C47.3425 13.7394 47.4662 13.7807 47.4662 13.831C47.4662 13.8814 47.5808 13.9226 47.7207 13.9226C47.8702 13.9226 48.0298 13.9983 48.1074 14.1058C48.18 14.2066 48.2927 14.289 48.3581 14.289C48.5247 14.289 49.8477 15.63 49.8477 15.7989C49.8477 15.8753 49.8889 15.9377 49.9393 15.9377C49.9897 15.9377 50.0309 16.0202 50.0309 16.1209C50.0309 16.2217 50.0721 16.3041 50.1225 16.3041C50.1728 16.3041 50.2141 16.4278 50.2141 16.5789C50.2141 16.73 50.2553 16.8537 50.3057 16.8537C50.356 16.8537 50.3973 17.0598 50.3973 17.3117C50.3973 17.5636 50.4385 17.7697 50.4889 17.7697C50.5392 17.7697 50.5804 17.8521 50.5804 17.9529C50.5804 18.0536 50.5392 18.136 50.4889 18.136C50.3567 18.136 50.3759 18.4772 50.5117 18.5406C50.6033 18.5833 50.6033 18.6047 50.5117 18.6474C50.443 18.6796 50.3973 18.8805 50.3973 19.1512C50.3973 19.399 50.356 19.6016 50.3057 19.6016C50.2553 19.6016 50.2141 19.684 50.2141 19.7848C50.2141 19.8855 50.1728 19.968 50.1225 19.968C50.0721 19.968 50.0309 20.0504 50.0309 20.1512C50.0309 20.2519 49.9897 20.3344 49.9393 20.3344C49.8889 20.3344 49.8477 20.4168 49.8477 20.5175C49.8477 20.6183 49.8065 20.7007 49.7561 20.7007C49.7057 20.7007 49.6645 20.7635 49.6645 20.8401C49.6645 21.0099 48.7085 21.9831 48.5417 21.9831C48.4762 21.9831 48.3632 22.0655 48.2905 22.1663C48.213 22.2738 48.0534 22.3495 47.9039 22.3495C47.764 22.3495 47.6494 22.3907 47.6494 22.4411C47.6494 22.4914 47.5669 22.5327 47.4662 22.5327C47.3654 22.5327 47.283 22.5739 47.283 22.6243C47.283 22.6777 46.9777 22.7159 46.5502 22.7159C46.1227 22.7159 45.8175 22.754 45.8175 22.8074C45.8175 22.8578 45.735 22.899 45.6343 22.899C45.5335 22.899 45.4511 22.8578 45.4511 22.8074C45.4511 22.7571 45.245 22.7159 44.9931 22.7159C44.7412 22.7159 44.5351 22.6746 44.5351 22.6243C44.5351 22.5739 44.4115 22.5327 44.2603 22.5327C44.1092 22.5327 43.9855 22.4914 43.9855 22.4411C43.9855 22.3907 43.9031 22.3495 43.8023 22.3495C43.7016 22.3495 43.6191 22.3083 43.6191 22.2579C43.6191 22.2075 43.5553 22.1663 43.4774 22.1663C43.3993 22.1663 43.051 21.8777 42.7032 21.5251C42.3554 21.1725 42.0483 20.8839 42.0206 20.8839C41.993 20.8839 41.9704 21.0076 41.9704 21.1587C41.9704 21.3099 42.0116 21.4335 42.062 21.4335C42.1124 21.4335 42.1536 21.5572 42.1536 21.7083C42.1536 21.8594 42.1948 21.9831 42.2452 21.9831C42.2956 21.9831 42.3368 22.0655 42.3368 22.1663C42.3368 22.267 42.378 22.3495 42.4284 22.3495C42.4788 22.3495 42.52 22.4731 42.52 22.6243C42.52 22.7754 42.5612 22.899 42.6116 22.899C42.662 22.899 42.7032 22.9815 42.7032 23.0822C42.7032 23.183 42.7444 23.2654 42.7948 23.2654C42.8452 23.2654 42.8864 23.3388 42.8864 23.4284C42.8864 23.5181 42.9688 23.6508 43.0696 23.7234C43.1703 23.796 43.2528 23.9197 43.2528 23.9982C43.2528 24.0767 43.3352 24.2003 43.436 24.273C43.5367 24.3456 43.6191 24.4619 43.6191 24.5313C43.6191 24.6006 43.7428 24.773 43.8939 24.9142C44.0451 25.0553 44.1687 25.2167 44.1687 25.2728C44.1687 25.3289 44.5185 25.7245 44.946 26.152C45.3735 26.5795 45.7691 26.9293 45.8252 26.9293C45.8813 26.9293 46.0427 27.0529 46.1838 27.2041C46.325 27.3552 46.4974 27.4788 46.5667 27.4788C46.6361 27.4788 46.7524 27.5613 46.825 27.662C46.8976 27.7628 47.0304 27.8452 47.12 27.8452C47.2096 27.8452 47.283 27.8864 47.283 27.9368C47.283 27.9872 47.3654 28.0284 47.4662 28.0284C47.5669 28.0284 47.6494 28.0696 47.6494 28.12C47.6494 28.1704 47.7318 28.2116 47.8326 28.2116C47.9333 28.2116 48.0158 28.2528 48.0158 28.3032C48.0158 28.3536 48.0982 28.3948 48.1989 28.3948C48.2997 28.3948 48.3821 28.436 48.3821 28.4864C48.3821 28.5368 48.4646 28.578 48.5653 28.578C48.6661 28.578 48.7485 28.6192 48.7485 28.6696C48.7485 28.72 48.8722 28.7612 49.0233 28.7612C49.1744 28.7612 49.2981 28.8024 49.2981 28.8528C49.2981 28.9032 49.4218 28.9444 49.5729 28.9444C49.724 28.9444 49.8477 28.9856 49.8477 29.036C49.8477 29.0864 50.0126 29.1276 50.2141 29.1276C50.4156 29.1276 50.5804 29.1688 50.5804 29.2192C50.5804 29.2696 50.7865 29.3108 51.0384 29.3108C51.2903 29.3108 51.4964 29.352 51.4964 29.4024C51.4964 29.4596 52.046 29.494 52.9619 29.494C53.8779 29.494 54.4275 29.4596 54.4275 29.4024C54.4275 29.3514 54.6718 29.3108 54.9771 29.3108C55.2823 29.3108 55.5266 29.2701 55.5266 29.2192C55.5266 29.1688 55.6915 29.1276 55.893 29.1276C56.0945 29.1276 56.2594 29.0864 56.2594 29.036C56.2594 28.9856 56.3831 28.9444 56.5342 28.9444C56.6853 28.9444 56.809 28.9032 56.809 28.8528C56.809 28.8024 56.9326 28.7612 57.0838 28.7612C57.2349 28.7612 57.3586 28.72 57.3586 28.6696C57.3586 28.6192 57.441 28.578 57.5417 28.578C57.6425 28.578 57.7249 28.5368 57.7249 28.4864C57.7249 28.436 57.8074 28.3948 57.9081 28.3948C58.0089 28.3948 58.0913 28.3536 58.0913 28.3032C58.0913 28.2528 58.1738 28.2116 58.2745 28.2116C58.3753 28.2116 58.4577 28.1704 58.4577 28.12C58.4577 28.0696 58.5311 28.0284 58.6207 28.0284C58.7103 28.0284 58.8431 27.946 58.9157 27.8452C58.9883 27.7445 59.1046 27.662 59.174 27.662C59.2433 27.662 59.4157 27.5384 59.5569 27.3873C59.698 27.2361 59.8593 27.1125 59.9153 27.1125C59.9712 27.1125 60.4493 26.6801 60.9777 26.1518C61.506 25.6234 61.9384 25.1453 61.9384 25.0894C61.9384 25.0334 62.062 24.8721 62.2131 24.731C62.3643 24.5898 62.4879 24.4174 62.4879 24.3481C62.4879 24.2787 62.5704 24.1624 62.6711 24.0898C62.7719 24.0172 62.8543 23.8844 62.8543 23.7948C62.8543 23.7052 62.8955 23.6318 62.9459 23.6318C62.9963 23.6318 63.0375 23.5494 63.0375 23.4486C63.0375 23.3479 63.0787 23.2654 63.1291 23.2654C63.1795 23.2654 63.2207 23.183 63.2207 23.0822C63.2207 22.9815 63.2619 22.899 63.3123 22.899C63.3627 22.899 63.4039 22.7754 63.4039 22.6243C63.4039 22.4731 63.4451 22.3495 63.4955 22.3495C63.5459 22.3495 63.5871 22.267 63.5871 22.1663C63.5871 22.0655 63.6283 21.9831 63.6787 21.9831C63.7291 21.9831 63.7703 21.8594 63.7703 21.7083C63.7703 21.5572 63.8115 21.4335 63.8619 21.4335C63.9123 21.4335 63.9535 21.2686 63.9535 21.0671C63.9535 20.8656 63.9947 20.7007 64.0451 20.7007C64.096 20.7007 64.1367 20.4565 64.1367 20.1512C64.1367 19.8459 64.1773 19.6016 64.2283 19.6016C64.2855 19.6016 64.3199 19.052 64.3199 18.136C64.3199 17.2201 64.2855 16.6705 64.2283 16.6705C64.1773 16.6705 64.1367 16.4262 64.1367 16.1209C64.1367 15.8156 64.096 15.5714 64.0451 15.5714C63.9947 15.5714 63.9535 15.4065 63.9535 15.205C63.9535 15.0035 63.9123 14.8386 63.8619 14.8386C63.8115 14.8386 63.7703 14.7149 63.7703 14.5638C63.7703 14.4127 63.7291 14.289 63.6787 14.289C63.6283 14.289 63.5871 14.2066 63.5871 14.1058C63.5871 14.0051 63.5459 13.9226 63.4955 13.9226C63.4451 13.9226 63.4039 13.799 63.4039 13.6478C63.4039 13.4967 63.3627 13.3731 63.3123 13.3731C63.2619 13.3731 63.2207 13.2906 63.2207 13.1899C63.2207 13.0891 63.1795 13.0067 63.1291 13.0067C63.0787 13.0067 63.0375 12.9333 63.0375 12.8437C63.0375 12.754 62.9551 12.6213 62.8543 12.5487C62.7536 12.4761 62.6711 12.3433 62.6711 12.2537C62.6711 12.1641 62.6299 12.0907 62.5795 12.0907C62.5292 12.0907 62.4879 12.0249 62.4879 11.9442C62.4879 11.8637 62.3643 11.6823 62.2131 11.5411C62.062 11.4 61.9384 11.2387 61.9384 11.1827C61.9384 11.0398 60.0428 9.15964 59.8987 9.15964C59.8337 9.15964 59.7211 9.0772 59.6485 8.97644C59.5758 8.87569 59.4522 8.79325 59.3737 8.79325C59.2952 8.79325 59.1715 8.71082 59.0989 8.61006C59.0262 8.5093 58.8935 8.42687 58.8039 8.42687C58.7143 8.42687 58.6409 8.38565 58.6409 8.33527C58.6409 8.28489 58.5585 8.24368 58.4577 8.24368C58.357 8.24368 58.2745 8.20246 58.2745 8.15208C58.2745 8.1017 58.1921 8.06048 58.0913 8.06048C57.9906 8.06048 57.9081 8.01927 57.9081 7.96889C57.9081 7.91851 57.8257 7.87729 57.7249 7.87729C57.6242 7.87729 57.5417 7.83607 57.5417 7.7857C57.5417 7.73532 57.4593 7.6941 57.3586 7.6941C57.2578 7.6941 57.1754 7.65288 57.1754 7.6025C57.1754 7.55212 57.0517 7.51091 56.9006 7.51091C56.7494 7.51091 56.6258 7.46969 56.6258 7.41931C56.6258 7.36893 56.5021 7.32771 56.351 7.32771C56.1999 7.32771 56.0762 7.2865 56.0762 7.23612C56.0762 7.18574 55.9113 7.14452 55.7098 7.14452C55.5083 7.14452 55.3434 7.1033 55.3434 7.05293C55.3434 6.99797 54.9771 6.96133 54.4275 6.96133C53.8779 6.96133 53.5115 6.92469 53.5115 6.86973C53.5115 6.73399 52.6215 6.75533 52.5574 6.89263C52.5147 6.98423 52.4932 6.98423 52.4506 6.89263C52.3868 6.75606 52.2292 6.73976 52.2292 6.86973ZM26.2159 11.4495C26.2159 11.5005 25.9716 11.5411 25.6663 11.5411C25.361 11.5411 25.1167 11.5818 25.1167 11.6327C25.1167 11.6831 24.9519 11.7243 24.7504 11.7243C24.5489 11.7243 24.384 11.7655 24.384 11.8159C24.384 11.8663 24.3015 11.9075 24.2008 11.9075C24.1 11.9075 24.0176 11.9487 24.0176 11.9991C24.0176 12.0495 23.9352 12.0907 23.8344 12.0907C23.7336 12.0907 23.6512 12.1319 23.6512 12.1823C23.6512 12.2327 23.5688 12.2739 23.468 12.2739C23.3673 12.2739 23.2848 12.3151 23.2848 12.3655C23.2848 12.4159 23.2024 12.4571 23.1016 12.4571C23.0009 12.4571 22.9184 12.4983 22.9184 12.5487C22.9184 12.5991 22.8561 12.6403 22.7798 12.6403C22.6111 12.6403 21.0865 14.1467 21.0865 14.3133C21.0865 14.3784 21.0041 14.4912 20.9033 14.5638C20.8026 14.6364 20.7201 14.7692 20.7201 14.8588C20.7201 14.9484 20.6789 15.0218 20.6285 15.0218C20.5782 15.0218 20.5369 15.1042 20.5369 15.205C20.5369 15.3057 20.4957 15.3882 20.4453 15.3882C20.395 15.3882 20.3538 15.4706 20.3538 15.5714C20.3538 15.6721 20.3125 15.7546 20.2622 15.7546C20.2118 15.7546 20.1706 15.8782 20.1706 16.0293C20.1706 16.1805 20.1293 16.3041 20.079 16.3041C20.0286 16.3041 19.9874 16.469 19.9874 16.6705C19.9874 16.872 19.9461 17.0369 19.8958 17.0369C19.8398 17.0369 19.8042 17.4644 19.8042 18.136C19.8042 18.8077 19.8398 19.2352 19.8958 19.2352C19.9461 19.2352 19.9874 19.4413 19.9874 19.6932C19.9874 19.9451 20.0286 20.1512 20.079 20.1512C20.1293 20.1512 20.1706 20.2336 20.1706 20.3344C20.1706 20.4351 20.2118 20.5175 20.2622 20.5175C20.3125 20.5175 20.3538 20.6412 20.3538 20.7923C20.3538 20.9435 20.395 21.0671 20.4453 21.0671C20.4957 21.0671 20.5369 21.1405 20.5369 21.2301C20.5369 21.3197 20.6194 21.4525 20.7201 21.5251C20.8209 21.5977 20.9033 21.714 20.9033 21.7834C20.9033 21.8527 21.027 22.0251 21.1781 22.1663C21.3292 22.3074 21.4529 22.4696 21.4529 22.5267C21.4529 22.6615 22.0568 23.2654 22.1916 23.2654C22.2487 23.2654 22.4109 23.3891 22.5521 23.5402C22.6932 23.6914 22.8747 23.815 22.9552 23.815C23.0358 23.815 23.1016 23.8562 23.1016 23.9066C23.1016 23.957 23.1841 23.9982 23.2848 23.9982C23.3856 23.9982 23.468 24.0394 23.468 24.0898C23.468 24.1402 23.5505 24.1814 23.6512 24.1814C23.752 24.1814 23.8344 24.2226 23.8344 24.273C23.8344 24.3234 23.9168 24.3646 24.0176 24.3646C24.1184 24.3646 24.2008 24.4058 24.2008 24.4562C24.2008 24.5066 24.3244 24.5478 24.4756 24.5478C24.6267 24.5478 24.7504 24.589 24.7504 24.6394C24.7504 24.6897 24.9152 24.731 25.1167 24.731C25.3183 24.731 25.4831 24.7722 25.4831 24.8226C25.4831 24.8789 25.9411 24.9142 26.6739 24.9142C27.4066 24.9142 27.8646 24.8789 27.8646 24.8226C27.8646 24.7722 28.0295 24.731 28.231 24.731C28.4325 24.731 28.5974 24.6897 28.5974 24.6394C28.5974 24.589 28.7211 24.5478 28.8722 24.5478C29.0233 24.5478 29.147 24.5066 29.147 24.4562C29.147 24.4058 29.2706 24.3646 29.4218 24.3646C29.5729 24.3646 29.6965 24.3234 29.6965 24.273C29.6965 24.2226 29.7699 24.1814 29.8595 24.1814C29.9492 24.1814 30.0819 24.099 30.1545 23.9982C30.2272 23.8974 30.3508 23.815 30.4293 23.815C30.5078 23.815 30.6315 23.7326 30.7041 23.6318C30.7767 23.5311 30.8898 23.4486 30.9553 23.4486C31.1008 23.4486 32.078 22.4858 32.078 22.3424C32.078 22.286 32.2017 22.1242 32.3528 21.9831C32.504 21.8419 32.6276 21.6605 32.6276 21.58C32.6276 21.4994 32.6688 21.4335 32.7192 21.4335C32.7696 21.4335 32.8108 21.3511 32.8108 21.2503C32.8108 21.1496 32.852 21.0671 32.9024 21.0671C32.9528 21.0671 32.994 20.9847 32.994 20.8839C32.994 20.7832 32.9707 20.7007 32.9423 20.7007C32.9138 20.7007 32.6898 20.9068 32.4444 21.1587C32.199 21.4106 31.9429 21.6167 31.8753 21.6167C31.8075 21.6167 31.6927 21.6991 31.6201 21.7999C31.5425 21.9074 31.3829 21.9831 31.2334 21.9831C31.0935 21.9831 30.9789 22.0243 30.9789 22.0747C30.9789 22.1251 30.7728 22.1663 30.5209 22.1663C30.269 22.1663 30.0629 22.2075 30.0629 22.2579C30.0629 22.3083 29.8981 22.3495 29.6965 22.3495C29.495 22.3495 29.3302 22.3083 29.3302 22.2579C29.3302 22.2075 29.1241 22.1663 28.8722 22.1663C28.6203 22.1663 28.4142 22.1251 28.4142 22.0747C28.4142 22.0243 28.3318 21.9831 28.231 21.9831C28.1303 21.9831 28.0478 21.9419 28.0478 21.8915C28.0478 21.8411 27.9441 21.7999 27.8174 21.7999C27.6528 21.7999 27.3911 21.6041 26.9014 21.1144C26.5244 20.7374 26.2159 20.3664 26.2159 20.29C26.2159 20.2136 26.1747 20.1512 26.1243 20.1512C26.0739 20.1512 26.0327 20.0687 26.0327 19.968C26.0327 19.8672 25.9915 19.7848 25.9411 19.7848C25.8907 19.7848 25.8495 19.6611 25.8495 19.51C25.8495 19.3589 25.8083 19.2352 25.7579 19.2352C25.702 19.2352 25.6663 18.8077 25.6663 18.136C25.6663 17.4644 25.702 17.0369 25.7579 17.0369C25.8083 17.0369 25.8495 16.9132 25.8495 16.7621C25.8495 16.611 25.8907 16.4873 25.9411 16.4873C25.9915 16.4873 26.0327 16.414 26.0327 16.3244C26.0327 16.2347 26.1151 16.102 26.2159 16.0293C26.3167 15.9567 26.3991 15.8435 26.3991 15.7777C26.3991 15.6109 27.188 14.8386 27.3585 14.8386C27.4353 14.8386 27.4982 14.7974 27.4982 14.747C27.4982 14.6966 27.5807 14.6554 27.6814 14.6554C27.7822 14.6554 27.8646 14.6142 27.8646 14.5638C27.8646 14.5134 27.9471 14.4722 28.0478 14.4722C28.1486 14.4722 28.231 14.431 28.231 14.3806C28.231 14.3302 28.3547 14.289 28.5058 14.289C28.6569 14.289 28.7806 14.2478 28.7806 14.1974C28.7806 14.1425 29.147 14.1058 29.6965 14.1058C30.2461 14.1058 30.6125 14.1425 30.6125 14.1974C30.6125 14.2478 30.7362 14.289 30.8873 14.289C31.0384 14.289 31.1621 14.3302 31.1621 14.3806C31.1621 14.431 31.2767 14.4722 31.4166 14.4722C31.5661 14.4722 31.7257 14.5479 31.8033 14.6554C31.8759 14.7562 31.9912 14.8386 32.0596 14.8386C32.1281 14.8386 32.3424 15.0035 32.536 15.205C32.7297 15.4065 32.9118 15.5714 32.9411 15.5714C33.0721 15.5714 32.9758 15.2323 32.8108 15.1134C32.7101 15.0407 32.6276 14.908 32.6276 14.8183C32.6276 14.7288 32.5864 14.6554 32.536 14.6554C32.4856 14.6554 32.4444 14.593 32.4444 14.5168C32.4444 14.3484 30.7547 12.6403 30.5881 12.6403C30.523 12.6403 30.4104 12.5578 30.3377 12.4571C30.2651 12.3563 30.1324 12.2739 30.0427 12.2739C29.9531 12.2739 29.8797 12.2327 29.8797 12.1823C29.8797 12.1319 29.7973 12.0907 29.6965 12.0907C29.5958 12.0907 29.5134 12.0495 29.5134 11.9991C29.5134 11.9487 29.3897 11.9075 29.2386 11.9075C29.0874 11.9075 28.9638 11.8663 28.9638 11.8159C28.9638 11.7655 28.8401 11.7243 28.689 11.7243C28.5379 11.7243 28.4142 11.6831 28.4142 11.6327C28.4142 11.5804 28.1394 11.5411 27.773 11.5411C27.4066 11.5411 27.1319 11.5018 27.1319 11.4495C27.1319 11.3174 26.7907 11.3366 26.7273 11.4724C26.6846 11.564 26.6632 11.564 26.6205 11.4724C26.5571 11.3366 26.2159 11.3174 26.2159 11.4495Z" fill="white"/>
<path d="M73.5627 26.7461V26.9108H73.7273H83.9219H84.0865V26.7461V23.9011V23.7365H83.9219H77.0926V10.1503V9.98566H76.9279H73.7273H73.5627V10.1503V26.7461Z" fill="white" stroke="white" stroke-width="0.329282"/>
<path d="M86.3863 26.7461V26.9108H86.5509H89.7515H89.9162V26.7461V10.1503V9.98566H89.7515H86.5509H86.3863V10.1503V26.7461Z" fill="white" stroke="white" stroke-width="0.329282"/>
<path d="M96.0583 18.4482C96.0583 15.4003 98.3171 12.9228 101.347 12.9228C104.376 12.9228 106.635 15.4003 106.635 18.4482C106.635 21.4961 104.376 23.9735 101.347 23.9735C98.3171 23.9735 96.0583 21.4961 96.0583 18.4482ZM92.5284 18.4482C92.5284 23.2549 96.1326 27.1478 101.347 27.1478C106.561 27.1478 110.165 23.2549 110.165 18.4482C110.165 13.6414 106.561 9.74854 101.347 9.74854C96.1326 9.74854 92.5284 13.6414 92.5284 18.4482Z" fill="white" stroke="white" stroke-width="0.329282"/>
<path d="M12.3339 26.7461V26.9108H12.4985H15.6992H15.8638V26.7461V10.1503V9.98566H15.6992H12.4985H12.3339V10.1503V16.2684H4.36526V10.1503V9.98566H4.20062H1H0.835359V10.1503V26.7461V26.9108H1H4.20062H4.36526V26.7461V19.4426H12.3339V26.7461Z" fill="white" stroke="white" stroke-width="0.329282"/>
<circle cx="46.9253" cy="18.312" r="5.81333" fill="#FBB829"/>
<circle cx="30.0667" cy="18.312" r="4.65067" fill="#FBB829"/>
</svg>
