<svg width="450" height="715" viewBox="0 0 450 715" fill="none" xmlns="http://www.w3.org/2000/svg">
<rect y="52" width="450" height="641" fill="#D64900" fill-opacity="0.04"/>
<g clip-path="url(#clip0)">
<path d="M118 0H122V4H118V0Z" fill="#E5E7EB"/>
<path d="M138 0H142V4H138V0Z" fill="#E5E7EB"/>
<path d="M158 0H162V4H158V0Z" fill="#E5E7EB"/>
<path d="M178 0H182V4H178V0Z" fill="#E5E7EB"/>
<path d="M198 0H202V4H198V0Z" fill="#E5E7EB"/>
<path d="M218 0H222V4H218V0Z" fill="#E5E7EB"/>
<path d="M238 0H242V4H238V0Z" fill="#E5E7EB"/>
<path d="M258 0H262V4H258V0Z" fill="#E5E7EB"/>
<path d="M278 0H282V4H278V0Z" fill="#E5E7EB"/>
<path d="M298 0H302V4H298V0Z" fill="#E5E7EB"/>
<path d="M318 0H322V4H318V0Z" fill="#E5E7EB"/>
<path d="M338 0H342V4H338V0Z" fill="#E5E7EB"/>
<path d="M358 0H362V4H358V0Z" fill="#E5E7EB"/>
<path d="M378 0H382V4H378V0Z" fill="#E5E7EB"/>
<path d="M398 0H402V4H398V0Z" fill="#E5E7EB"/>
<path d="M418 0H422V4H418V0Z" fill="#E5E7EB"/>
<path d="M438 0H442V4H438V0Z" fill="#E5E7EB"/>
<path d="M458 0H462V4H458V0Z" fill="#E5E7EB"/>
<path d="M478 0H482V4H478V0Z" fill="#E5E7EB"/>
<path d="M498 0H502V4H498V0Z" fill="#E5E7EB"/>
<path d="M518 0H522V4H518V0Z" fill="#E5E7EB"/>
<path d="M118 20H122V24H118V20Z" fill="#E5E7EB"/>
<path d="M138 20H142V24H138V20Z" fill="#E5E7EB"/>
<path d="M158 20H162V24H158V20Z" fill="#E5E7EB"/>
<path d="M178 20H182V24H178V20Z" fill="#E5E7EB"/>
<path d="M198 20H202V24H198V20Z" fill="#E5E7EB"/>
<path d="M218 20H222V24H218V20Z" fill="#E5E7EB"/>
<path d="M238 20H242V24H238V20Z" fill="#E5E7EB"/>
<path d="M258 20H262V24H258V20Z" fill="#E5E7EB"/>
<path d="M278 20H282V24H278V20Z" fill="#E5E7EB"/>
<path d="M298 20H302V24H298V20Z" fill="#E5E7EB"/>
<path d="M318 20H322V24H318V20Z" fill="#E5E7EB"/>
<path d="M338 20H342V24H338V20Z" fill="#E5E7EB"/>
<path d="M358 20H362V24H358V20Z" fill="#E5E7EB"/>
<path d="M378 20H382V24H378V20Z" fill="#E5E7EB"/>
<path d="M398 20H402V24H398V20Z" fill="#E5E7EB"/>
<path d="M418 20H422V24H418V20Z" fill="#E5E7EB"/>
<path d="M438 20H442V24H438V20Z" fill="#E5E7EB"/>
<path d="M458 20H462V24H458V20Z" fill="#E5E7EB"/>
<path d="M478 20H482V24H478V20Z" fill="#E5E7EB"/>
<path d="M498 20H502V24H498V20Z" fill="#E5E7EB"/>
<path d="M518 20H522V24H518V20Z" fill="#E5E7EB"/>
<path d="M118 40H122V44H118V40Z" fill="#E5E7EB"/>
<path d="M138 40H142V44H138V40Z" fill="#E5E7EB"/>
<path d="M158 40H162V44H158V40Z" fill="#E5E7EB"/>
<path d="M178 40H182V44H178V40Z" fill="#E5E7EB"/>
<path d="M198 40H202V44H198V40Z" fill="#E5E7EB"/>
<path d="M218 40H222V44H218V40Z" fill="#E5E7EB"/>
<path d="M238 40H242V44H238V40Z" fill="#E5E7EB"/>
<path d="M258 40H262V44H258V40Z" fill="#E5E7EB"/>
<path d="M278 40H282V44H278V40Z" fill="#E5E7EB"/>
<path d="M298 40H302V44H298V40Z" fill="#E5E7EB"/>
<path d="M318 40H322V44H318V40Z" fill="#E5E7EB"/>
<path d="M338 40H342V44H338V40Z" fill="#E5E7EB"/>
<path d="M358 40H362V44H358V40Z" fill="#E5E7EB"/>
<path d="M378 40H382V44H378V40Z" fill="#E5E7EB"/>
<path d="M398 40H402V44H398V40Z" fill="#E5E7EB"/>
<path d="M418 40H422V44H418V40Z" fill="#E5E7EB"/>
<path d="M438 40H442V44H438V40Z" fill="#E5E7EB"/>
<path d="M458 40H462V44H458V40Z" fill="#E5E7EB"/>
<path d="M478 40H482V44H478V40Z" fill="#E5E7EB"/>
<path d="M498 40H502V44H498V40Z" fill="#E5E7EB"/>
<path d="M518 40H522V44H518V40Z" fill="#E5E7EB"/>
<path d="M118 60H122V64H118V60Z" fill="#E5E7EB"/>
<path d="M138 60H142V64H138V60Z" fill="#E5E7EB"/>
<path d="M158 60H162V64H158V60Z" fill="#E5E7EB"/>
<path d="M178 60H182V64H178V60Z" fill="#E5E7EB"/>
<path d="M198 60H202V64H198V60Z" fill="#E5E7EB"/>
<path d="M218 60H222V64H218V60Z" fill="#E5E7EB"/>
<path d="M238 60H242V64H238V60Z" fill="#E5E7EB"/>
<path d="M258 60H262V64H258V60Z" fill="#E5E7EB"/>
<path d="M278 60H282V64H278V60Z" fill="#E5E7EB"/>
<path d="M298 60H302V64H298V60Z" fill="#E5E7EB"/>
<path d="M318 60H322V64H318V60Z" fill="#E5E7EB"/>
<path d="M338 60H342V64H338V60Z" fill="#E5E7EB"/>
<path d="M358 60H362V64H358V60Z" fill="#E5E7EB"/>
<path d="M378 60H382V64H378V60Z" fill="#E5E7EB"/>
<path d="M398 60H402V64H398V60Z" fill="#E5E7EB"/>
<path d="M418 60H422V64H418V60Z" fill="#E5E7EB"/>
<path d="M438 60H442V64H438V60Z" fill="#E5E7EB"/>
<path d="M458 60H462V64H458V60Z" fill="#E5E7EB"/>
<path d="M478 60H482V64H478V60Z" fill="#E5E7EB"/>
<path d="M498 60H502V64H498V60Z" fill="#E5E7EB"/>
<path d="M518 60H522V64H518V60Z" fill="#E5E7EB"/>
<path d="M118 80H122V84H118V80Z" fill="#E5E7EB"/>
<path d="M138 80H142V84H138V80Z" fill="#E5E7EB"/>
<path d="M158 80H162V84H158V80Z" fill="#E5E7EB"/>
<path d="M178 80H182V84H178V80Z" fill="#E5E7EB"/>
<path d="M198 80H202V84H198V80Z" fill="#E5E7EB"/>
<path d="M218 80H222V84H218V80Z" fill="#E5E7EB"/>
<path d="M238 80H242V84H238V80Z" fill="#E5E7EB"/>
<path d="M258 80H262V84H258V80Z" fill="#E5E7EB"/>
<path d="M278 80H282V84H278V80Z" fill="#E5E7EB"/>
<path d="M298 80H302V84H298V80Z" fill="#E5E7EB"/>
<path d="M318 80H322V84H318V80Z" fill="#E5E7EB"/>
<path d="M338 80H342V84H338V80Z" fill="#E5E7EB"/>
<path d="M358 80H362V84H358V80Z" fill="#E5E7EB"/>
<path d="M378 80H382V84H378V80Z" fill="#E5E7EB"/>
<path d="M398 80H402V84H398V80Z" fill="#E5E7EB"/>
<path d="M418 80H422V84H418V80Z" fill="#E5E7EB"/>
<path d="M438 80H442V84H438V80Z" fill="#E5E7EB"/>
<path d="M458 80H462V84H458V80Z" fill="#E5E7EB"/>
<path d="M478 80H482V84H478V80Z" fill="#E5E7EB"/>
<path d="M498 80H502V84H498V80Z" fill="#E5E7EB"/>
<path d="M518 80H522V84H518V80Z" fill="#E5E7EB"/>
<path d="M118 100H122V104H118V100Z" fill="#E5E7EB"/>
<path d="M138 100H142V104H138V100Z" fill="#E5E7EB"/>
<path d="M158 100H162V104H158V100Z" fill="#E5E7EB"/>
<path d="M178 100H182V104H178V100Z" fill="#E5E7EB"/>
<path d="M198 100H202V104H198V100Z" fill="#E5E7EB"/>
<path d="M218 100H222V104H218V100Z" fill="#E5E7EB"/>
<path d="M238 100H242V104H238V100Z" fill="#E5E7EB"/>
<path d="M258 100H262V104H258V100Z" fill="#E5E7EB"/>
<path d="M278 100H282V104H278V100Z" fill="#E5E7EB"/>
<path d="M298 100H302V104H298V100Z" fill="#E5E7EB"/>
<path d="M318 100H322V104H318V100Z" fill="#E5E7EB"/>
<path d="M338 100H342V104H338V100Z" fill="#E5E7EB"/>
<path d="M358 100H362V104H358V100Z" fill="#E5E7EB"/>
<path d="M378 100H382V104H378V100Z" fill="#E5E7EB"/>
<path d="M398 100H402V104H398V100Z" fill="#E5E7EB"/>
<path d="M418 100H422V104H418V100Z" fill="#E5E7EB"/>
<path d="M438 100H442V104H438V100Z" fill="#E5E7EB"/>
<path d="M458 100H462V104H458V100Z" fill="#E5E7EB"/>
<path d="M478 100H482V104H478V100Z" fill="#E5E7EB"/>
<path d="M498 100H502V104H498V100Z" fill="#E5E7EB"/>
<path d="M518 100H522V104H518V100Z" fill="#E5E7EB"/>
<path d="M118 120H122V124H118V120Z" fill="#E5E7EB"/>
<path d="M138 120H142V124H138V120Z" fill="#E5E7EB"/>
<path d="M158 120H162V124H158V120Z" fill="#E5E7EB"/>
<path d="M178 120H182V124H178V120Z" fill="#E5E7EB"/>
<path d="M198 120H202V124H198V120Z" fill="#E5E7EB"/>
<path d="M218 120H222V124H218V120Z" fill="#E5E7EB"/>
<path d="M238 120H242V124H238V120Z" fill="#E5E7EB"/>
<path d="M258 120H262V124H258V120Z" fill="#E5E7EB"/>
<path d="M278 120H282V124H278V120Z" fill="#E5E7EB"/>
<path d="M298 120H302V124H298V120Z" fill="#E5E7EB"/>
<path d="M318 120H322V124H318V120Z" fill="#E5E7EB"/>
<path d="M338 120H342V124H338V120Z" fill="#E5E7EB"/>
<path d="M358 120H362V124H358V120Z" fill="#E5E7EB"/>
<path d="M378 120H382V124H378V120Z" fill="#E5E7EB"/>
<path d="M398 120H402V124H398V120Z" fill="#E5E7EB"/>
<path d="M418 120H422V124H418V120Z" fill="#E5E7EB"/>
<path d="M438 120H442V124H438V120Z" fill="#E5E7EB"/>
<path d="M458 120H462V124H458V120Z" fill="#E5E7EB"/>
<path d="M478 120H482V124H478V120Z" fill="#E5E7EB"/>
<path d="M498 120H502V124H498V120Z" fill="#E5E7EB"/>
<path d="M518 120H522V124H518V120Z" fill="#E5E7EB"/>
<path d="M118 140H122V144H118V140Z" fill="#E5E7EB"/>
<path d="M138 140H142V144H138V140Z" fill="#E5E7EB"/>
<path d="M158 140H162V144H158V140Z" fill="#E5E7EB"/>
<path d="M178 140H182V144H178V140Z" fill="#E5E7EB"/>
<path d="M198 140H202V144H198V140Z" fill="#E5E7EB"/>
<path d="M218 140H222V144H218V140Z" fill="#E5E7EB"/>
<path d="M238 140H242V144H238V140Z" fill="#E5E7EB"/>
<path d="M258 140H262V144H258V140Z" fill="#E5E7EB"/>
<path d="M278 140H282V144H278V140Z" fill="#E5E7EB"/>
<path d="M298 140H302V144H298V140Z" fill="#E5E7EB"/>
<path d="M318 140H322V144H318V140Z" fill="#E5E7EB"/>
<path d="M338 140H342V144H338V140Z" fill="#E5E7EB"/>
<path d="M358 140H362V144H358V140Z" fill="#E5E7EB"/>
<path d="M378 140H382V144H378V140Z" fill="#E5E7EB"/>
<path d="M398 140H402V144H398V140Z" fill="#E5E7EB"/>
<path d="M418 140H422V144H418V140Z" fill="#E5E7EB"/>
<path d="M438 140H442V144H438V140Z" fill="#E5E7EB"/>
<path d="M458 140H462V144H458V140Z" fill="#E5E7EB"/>
<path d="M478 140H482V144H478V140Z" fill="#E5E7EB"/>
<path d="M498 140H502V144H498V140Z" fill="#E5E7EB"/>
<path d="M518 140H522V144H518V140Z" fill="#E5E7EB"/>
<path d="M118 160H122V164H118V160Z" fill="#E5E7EB"/>
<path d="M138 160H142V164H138V160Z" fill="#E5E7EB"/>
<path d="M158 160H162V164H158V160Z" fill="#E5E7EB"/>
<path d="M178 160H182V164H178V160Z" fill="#E5E7EB"/>
<path d="M198 160H202V164H198V160Z" fill="#E5E7EB"/>
<path d="M218 160H222V164H218V160Z" fill="#E5E7EB"/>
<path d="M238 160H242V164H238V160Z" fill="#E5E7EB"/>
<path d="M258 160H262V164H258V160Z" fill="#E5E7EB"/>
<path d="M278 160H282V164H278V160Z" fill="#E5E7EB"/>
<path d="M298 160H302V164H298V160Z" fill="#E5E7EB"/>
<path d="M318 160H322V164H318V160Z" fill="#E5E7EB"/>
<path d="M338 160H342V164H338V160Z" fill="#E5E7EB"/>
<path d="M358 160H362V164H358V160Z" fill="#E5E7EB"/>
<path d="M378 160H382V164H378V160Z" fill="#E5E7EB"/>
<path d="M398 160H402V164H398V160Z" fill="#E5E7EB"/>
<path d="M418 160H422V164H418V160Z" fill="#E5E7EB"/>
<path d="M438 160H442V164H438V160Z" fill="#E5E7EB"/>
<path d="M458 160H462V164H458V160Z" fill="#E5E7EB"/>
<path d="M478 160H482V164H478V160Z" fill="#E5E7EB"/>
<path d="M498 160H502V164H498V160Z" fill="#E5E7EB"/>
<path d="M518 160H522V164H518V160Z" fill="#E5E7EB"/>
<path d="M118 180H122V184H118V180Z" fill="#E5E7EB"/>
<path d="M138 180H142V184H138V180Z" fill="#E5E7EB"/>
<path d="M158 180H162V184H158V180Z" fill="#E5E7EB"/>
<path d="M178 180H182V184H178V180Z" fill="#E5E7EB"/>
<path d="M198 180H202V184H198V180Z" fill="#E5E7EB"/>
<path d="M218 180H222V184H218V180Z" fill="#E5E7EB"/>
<path d="M238 180H242V184H238V180Z" fill="#E5E7EB"/>
<path d="M258 180H262V184H258V180Z" fill="#E5E7EB"/>
<path d="M278 180H282V184H278V180Z" fill="#E5E7EB"/>
<path d="M298 180H302V184H298V180Z" fill="#E5E7EB"/>
<path d="M318 180H322V184H318V180Z" fill="#E5E7EB"/>
<path d="M338 180H342V184H338V180Z" fill="#E5E7EB"/>
<path d="M358 180H362V184H358V180Z" fill="#E5E7EB"/>
<path d="M378 180H382V184H378V180Z" fill="#E5E7EB"/>
<path d="M398 180H402V184H398V180Z" fill="#E5E7EB"/>
<path d="M418 180H422V184H418V180Z" fill="#E5E7EB"/>
<path d="M438 180H442V184H438V180Z" fill="#E5E7EB"/>
<path d="M458 180H462V184H458V180Z" fill="#E5E7EB"/>
<path d="M478 180H482V184H478V180Z" fill="#E5E7EB"/>
<path d="M498 180H502V184H498V180Z" fill="#E5E7EB"/>
<path d="M518 180H522V184H518V180Z" fill="#E5E7EB"/>
<path d="M118 200H122V204H118V200Z" fill="#E5E7EB"/>
<path d="M138 200H142V204H138V200Z" fill="#E5E7EB"/>
<path d="M158 200H162V204H158V200Z" fill="#E5E7EB"/>
<path d="M178 200H182V204H178V200Z" fill="#E5E7EB"/>
<path d="M198 200H202V204H198V200Z" fill="#E5E7EB"/>
<path d="M218 200H222V204H218V200Z" fill="#E5E7EB"/>
<path d="M238 200H242V204H238V200Z" fill="#E5E7EB"/>
<path d="M258 200H262V204H258V200Z" fill="#E5E7EB"/>
<path d="M278 200H282V204H278V200Z" fill="#E5E7EB"/>
<path d="M298 200H302V204H298V200Z" fill="#E5E7EB"/>
<path d="M318 200H322V204H318V200Z" fill="#E5E7EB"/>
<path d="M338 200H342V204H338V200Z" fill="#E5E7EB"/>
<path d="M358 200H362V204H358V200Z" fill="#E5E7EB"/>
<path d="M378 200H382V204H378V200Z" fill="#E5E7EB"/>
<path d="M398 200H402V204H398V200Z" fill="#E5E7EB"/>
<path d="M418 200H422V204H418V200Z" fill="#E5E7EB"/>
<path d="M438 200H442V204H438V200Z" fill="#E5E7EB"/>
<path d="M458 200H462V204H458V200Z" fill="#E5E7EB"/>
<path d="M478 200H482V204H478V200Z" fill="#E5E7EB"/>
<path d="M498 200H502V204H498V200Z" fill="#E5E7EB"/>
<path d="M518 200H522V204H518V200Z" fill="#E5E7EB"/>
<path d="M118 220H122V224H118V220Z" fill="#E5E7EB"/>
<path d="M138 220H142V224H138V220Z" fill="#E5E7EB"/>
<path d="M158 220H162V224H158V220Z" fill="#E5E7EB"/>
<path d="M178 220H182V224H178V220Z" fill="#E5E7EB"/>
<path d="M198 220H202V224H198V220Z" fill="#E5E7EB"/>
<path d="M218 220H222V224H218V220Z" fill="#E5E7EB"/>
<path d="M238 220H242V224H238V220Z" fill="#E5E7EB"/>
<path d="M258 220H262V224H258V220Z" fill="#E5E7EB"/>
<path d="M278 220H282V224H278V220Z" fill="#E5E7EB"/>
<path d="M298 220H302V224H298V220Z" fill="#E5E7EB"/>
<path d="M318 220H322V224H318V220Z" fill="#E5E7EB"/>
<path d="M338 220H342V224H338V220Z" fill="#E5E7EB"/>
<path d="M358 220H362V224H358V220Z" fill="#E5E7EB"/>
<path d="M378 220H382V224H378V220Z" fill="#E5E7EB"/>
<path d="M398 220H402V224H398V220Z" fill="#E5E7EB"/>
<path d="M418 220H422V224H418V220Z" fill="#E5E7EB"/>
<path d="M438 220H442V224H438V220Z" fill="#E5E7EB"/>
<path d="M458 220H462V224H458V220Z" fill="#E5E7EB"/>
<path d="M478 220H482V224H478V220Z" fill="#E5E7EB"/>
<path d="M498 220H502V224H498V220Z" fill="#E5E7EB"/>
<path d="M518 220H522V224H518V220Z" fill="#E5E7EB"/>
<path d="M118 240H122V244H118V240Z" fill="#E5E7EB"/>
<path d="M138 240H142V244H138V240Z" fill="#E5E7EB"/>
<path d="M158 240H162V244H158V240Z" fill="#E5E7EB"/>
<path d="M178 240H182V244H178V240Z" fill="#E5E7EB"/>
<path d="M198 240H202V244H198V240Z" fill="#E5E7EB"/>
<path d="M218 240H222V244H218V240Z" fill="#E5E7EB"/>
<path d="M238 240H242V244H238V240Z" fill="#E5E7EB"/>
<path d="M258 240H262V244H258V240Z" fill="#E5E7EB"/>
<path d="M278 240H282V244H278V240Z" fill="#E5E7EB"/>
<path d="M298 240H302V244H298V240Z" fill="#E5E7EB"/>
<path d="M318 240H322V244H318V240Z" fill="#E5E7EB"/>
<path d="M338 240H342V244H338V240Z" fill="#E5E7EB"/>
<path d="M358 240H362V244H358V240Z" fill="#E5E7EB"/>
<path d="M378 240H382V244H378V240Z" fill="#E5E7EB"/>
<path d="M398 240H402V244H398V240Z" fill="#E5E7EB"/>
<path d="M418 240H422V244H418V240Z" fill="#E5E7EB"/>
<path d="M438 240H442V244H438V240Z" fill="#E5E7EB"/>
<path d="M458 240H462V244H458V240Z" fill="#E5E7EB"/>
<path d="M478 240H482V244H478V240Z" fill="#E5E7EB"/>
<path d="M498 240H502V244H498V240Z" fill="#E5E7EB"/>
<path d="M518 240H522V244H518V240Z" fill="#E5E7EB"/>
<path d="M118 260H122V264H118V260Z" fill="#E5E7EB"/>
<path d="M138 260H142V264H138V260Z" fill="#E5E7EB"/>
<path d="M158 260H162V264H158V260Z" fill="#E5E7EB"/>
<path d="M178 260H182V264H178V260Z" fill="#E5E7EB"/>
<path d="M198 260H202V264H198V260Z" fill="#E5E7EB"/>
<path d="M218 260H222V264H218V260Z" fill="#E5E7EB"/>
<path d="M238 260H242V264H238V260Z" fill="#E5E7EB"/>
<path d="M258 260H262V264H258V260Z" fill="#E5E7EB"/>
<path d="M278 260H282V264H278V260Z" fill="#E5E7EB"/>
<path d="M298 260H302V264H298V260Z" fill="#E5E7EB"/>
<path d="M318 260H322V264H318V260Z" fill="#E5E7EB"/>
<path d="M338 260H342V264H338V260Z" fill="#E5E7EB"/>
<path d="M358 260H362V264H358V260Z" fill="#E5E7EB"/>
<path d="M378 260H382V264H378V260Z" fill="#E5E7EB"/>
<path d="M398 260H402V264H398V260Z" fill="#E5E7EB"/>
<path d="M418 260H422V264H418V260Z" fill="#E5E7EB"/>
<path d="M438 260H442V264H438V260Z" fill="#E5E7EB"/>
<path d="M458 260H462V264H458V260Z" fill="#E5E7EB"/>
<path d="M478 260H482V264H478V260Z" fill="#E5E7EB"/>
<path d="M498 260H502V264H498V260Z" fill="#E5E7EB"/>
<path d="M518 260H522V264H518V260Z" fill="#E5E7EB"/>
<path d="M118 280H122V284H118V280Z" fill="#E5E7EB"/>
<path d="M138 280H142V284H138V280Z" fill="#E5E7EB"/>
<path d="M158 280H162V284H158V280Z" fill="#E5E7EB"/>
<path d="M178 280H182V284H178V280Z" fill="#E5E7EB"/>
<path d="M198 280H202V284H198V280Z" fill="#E5E7EB"/>
<path d="M218 280H222V284H218V280Z" fill="#E5E7EB"/>
<path d="M238 280H242V284H238V280Z" fill="#E5E7EB"/>
<path d="M258 280H262V284H258V280Z" fill="#E5E7EB"/>
<path d="M278 280H282V284H278V280Z" fill="#E5E7EB"/>
<path d="M298 280H302V284H298V280Z" fill="#E5E7EB"/>
<path d="M318 280H322V284H318V280Z" fill="#E5E7EB"/>
<path d="M338 280H342V284H338V280Z" fill="#E5E7EB"/>
<path d="M358 280H362V284H358V280Z" fill="#E5E7EB"/>
<path d="M378 280H382V284H378V280Z" fill="#E5E7EB"/>
<path d="M398 280H402V284H398V280Z" fill="#E5E7EB"/>
<path d="M418 280H422V284H418V280Z" fill="#E5E7EB"/>
<path d="M438 280H442V284H438V280Z" fill="#E5E7EB"/>
<path d="M458 280H462V284H458V280Z" fill="#E5E7EB"/>
<path d="M478 280H482V284H478V280Z" fill="#E5E7EB"/>
<path d="M498 280H502V284H498V280Z" fill="#E5E7EB"/>
<path d="M518 280H522V284H518V280Z" fill="#E5E7EB"/>
<path d="M118 300H122V304H118V300Z" fill="#E5E7EB"/>
<path d="M138 300H142V304H138V300Z" fill="#E5E7EB"/>
<path d="M158 300H162V304H158V300Z" fill="#E5E7EB"/>
<path d="M178 300H182V304H178V300Z" fill="#E5E7EB"/>
<path d="M198 300H202V304H198V300Z" fill="#E5E7EB"/>
<path d="M218 300H222V304H218V300Z" fill="#E5E7EB"/>
<path d="M238 300H242V304H238V300Z" fill="#E5E7EB"/>
<path d="M258 300H262V304H258V300Z" fill="#E5E7EB"/>
<path d="M278 300H282V304H278V300Z" fill="#E5E7EB"/>
<path d="M298 300H302V304H298V300Z" fill="#E5E7EB"/>
<path d="M318 300H322V304H318V300Z" fill="#E5E7EB"/>
<path d="M338 300H342V304H338V300Z" fill="#E5E7EB"/>
<path d="M358 300H362V304H358V300Z" fill="#E5E7EB"/>
<path d="M378 300H382V304H378V300Z" fill="#E5E7EB"/>
<path d="M398 300H402V304H398V300Z" fill="#E5E7EB"/>
<path d="M418 300H422V304H418V300Z" fill="#E5E7EB"/>
<path d="M438 300H442V304H438V300Z" fill="#E5E7EB"/>
<path d="M458 300H462V304H458V300Z" fill="#E5E7EB"/>
<path d="M478 300H482V304H478V300Z" fill="#E5E7EB"/>
<path d="M498 300H502V304H498V300Z" fill="#E5E7EB"/>
<path d="M518 300H522V304H518V300Z" fill="#E5E7EB"/>
<path d="M118 320H122V324H118V320Z" fill="#E5E7EB"/>
<path d="M138 320H142V324H138V320Z" fill="#E5E7EB"/>
<path d="M158 320H162V324H158V320Z" fill="#E5E7EB"/>
<path d="M178 320H182V324H178V320Z" fill="#E5E7EB"/>
<path d="M198 320H202V324H198V320Z" fill="#E5E7EB"/>
<path d="M218 320H222V324H218V320Z" fill="#E5E7EB"/>
<path d="M238 320H242V324H238V320Z" fill="#E5E7EB"/>
<path d="M258 320H262V324H258V320Z" fill="#E5E7EB"/>
<path d="M278 320H282V324H278V320Z" fill="#E5E7EB"/>
<path d="M298 320H302V324H298V320Z" fill="#E5E7EB"/>
<path d="M318 320H322V324H318V320Z" fill="#E5E7EB"/>
<path d="M338 320H342V324H338V320Z" fill="#E5E7EB"/>
<path d="M358 320H362V324H358V320Z" fill="#E5E7EB"/>
<path d="M378 320H382V324H378V320Z" fill="#E5E7EB"/>
<path d="M398 320H402V324H398V320Z" fill="#E5E7EB"/>
<path d="M418 320H422V324H418V320Z" fill="#E5E7EB"/>
<path d="M438 320H442V324H438V320Z" fill="#E5E7EB"/>
<path d="M458 320H462V324H458V320Z" fill="#E5E7EB"/>
<path d="M478 320H482V324H478V320Z" fill="#E5E7EB"/>
<path d="M498 320H502V324H498V320Z" fill="#E5E7EB"/>
<path d="M518 320H522V324H518V320Z" fill="#E5E7EB"/>
<path d="M118 340H122V344H118V340Z" fill="#E5E7EB"/>
<path d="M138 340H142V344H138V340Z" fill="#E5E7EB"/>
<path d="M158 340H162V344H158V340Z" fill="#E5E7EB"/>
<path d="M178 340H182V344H178V340Z" fill="#E5E7EB"/>
<path d="M198 340H202V344H198V340Z" fill="#E5E7EB"/>
<path d="M218 340H222V344H218V340Z" fill="#E5E7EB"/>
<path d="M238 340H242V344H238V340Z" fill="#E5E7EB"/>
<path d="M258 340H262V344H258V340Z" fill="#E5E7EB"/>
<path d="M278 340H282V344H278V340Z" fill="#E5E7EB"/>
<path d="M298 340H302V344H298V340Z" fill="#E5E7EB"/>
<path d="M318 340H322V344H318V340Z" fill="#E5E7EB"/>
<path d="M338 340H342V344H338V340Z" fill="#E5E7EB"/>
<path d="M358 340H362V344H358V340Z" fill="#E5E7EB"/>
<path d="M378 340H382V344H378V340Z" fill="#E5E7EB"/>
<path d="M398 340H402V344H398V340Z" fill="#E5E7EB"/>
<path d="M418 340H422V344H418V340Z" fill="#E5E7EB"/>
<path d="M438 340H442V344H438V340Z" fill="#E5E7EB"/>
<path d="M458 340H462V344H458V340Z" fill="#E5E7EB"/>
<path d="M478 340H482V344H478V340Z" fill="#E5E7EB"/>
<path d="M498 340H502V344H498V340Z" fill="#E5E7EB"/>
<path d="M518 340H522V344H518V340Z" fill="#E5E7EB"/>
<path d="M118 360H122V364H118V360Z" fill="#E5E7EB"/>
<path d="M138 360H142V364H138V360Z" fill="#E5E7EB"/>
<path d="M158 360H162V364H158V360Z" fill="#E5E7EB"/>
<path d="M178 360H182V364H178V360Z" fill="#E5E7EB"/>
<path d="M198 360H202V364H198V360Z" fill="#E5E7EB"/>
<path d="M218 360H222V364H218V360Z" fill="#E5E7EB"/>
<path d="M238 360H242V364H238V360Z" fill="#E5E7EB"/>
<path d="M258 360H262V364H258V360Z" fill="#E5E7EB"/>
<path d="M278 360H282V364H278V360Z" fill="#E5E7EB"/>
<path d="M298 360H302V364H298V360Z" fill="#E5E7EB"/>
<path d="M318 360H322V364H318V360Z" fill="#E5E7EB"/>
<path d="M338 360H342V364H338V360Z" fill="#E5E7EB"/>
<path d="M358 360H362V364H358V360Z" fill="#E5E7EB"/>
<path d="M378 360H382V364H378V360Z" fill="#E5E7EB"/>
<path d="M398 360H402V364H398V360Z" fill="#E5E7EB"/>
<path d="M418 360H422V364H418V360Z" fill="#E5E7EB"/>
<path d="M438 360H442V364H438V360Z" fill="#E5E7EB"/>
<path d="M458 360H462V364H458V360Z" fill="#E5E7EB"/>
<path d="M478 360H482V364H478V360Z" fill="#E5E7EB"/>
<path d="M498 360H502V364H498V360Z" fill="#E5E7EB"/>
<path d="M518 360H522V364H518V360Z" fill="#E5E7EB"/>
<path d="M118 380H122V384H118V380Z" fill="#E5E7EB"/>
<path d="M138 380H142V384H138V380Z" fill="#E5E7EB"/>
<path d="M158 380H162V384H158V380Z" fill="#E5E7EB"/>
<path d="M178 380H182V384H178V380Z" fill="#E5E7EB"/>
<path d="M198 380H202V384H198V380Z" fill="#E5E7EB"/>
<path d="M218 380H222V384H218V380Z" fill="#E5E7EB"/>
<path d="M238 380H242V384H238V380Z" fill="#E5E7EB"/>
<path d="M258 380H262V384H258V380Z" fill="#E5E7EB"/>
<path d="M278 380H282V384H278V380Z" fill="#E5E7EB"/>
<path d="M298 380H302V384H298V380Z" fill="#E5E7EB"/>
<path d="M318 380H322V384H318V380Z" fill="#E5E7EB"/>
<path d="M338 380H342V384H338V380Z" fill="#E5E7EB"/>
<path d="M358 380H362V384H358V380Z" fill="#E5E7EB"/>
<path d="M378 380H382V384H378V380Z" fill="#E5E7EB"/>
<path d="M398 380H402V384H398V380Z" fill="#E5E7EB"/>
<path d="M418 380H422V384H418V380Z" fill="#E5E7EB"/>
<path d="M438 380H442V384H438V380Z" fill="#E5E7EB"/>
<path d="M458 380H462V384H458V380Z" fill="#E5E7EB"/>
<path d="M478 380H482V384H478V380Z" fill="#E5E7EB"/>
<path d="M498 380H502V384H498V380Z" fill="#E5E7EB"/>
<path d="M518 380H522V384H518V380Z" fill="#E5E7EB"/>
<path d="M118 400H122V404H118V400Z" fill="#E5E7EB"/>
<path d="M138 400H142V404H138V400Z" fill="#E5E7EB"/>
<path d="M158 400H162V404H158V400Z" fill="#E5E7EB"/>
<path d="M178 400H182V404H178V400Z" fill="#E5E7EB"/>
<path d="M198 400H202V404H198V400Z" fill="#E5E7EB"/>
<path d="M218 400H222V404H218V400Z" fill="#E5E7EB"/>
<path d="M238 400H242V404H238V400Z" fill="#E5E7EB"/>
<path d="M258 400H262V404H258V400Z" fill="#E5E7EB"/>
<path d="M278 400H282V404H278V400Z" fill="#E5E7EB"/>
<path d="M298 400H302V404H298V400Z" fill="#E5E7EB"/>
<path d="M318 400H322V404H318V400Z" fill="#E5E7EB"/>
<path d="M338 400H342V404H338V400Z" fill="#E5E7EB"/>
<path d="M358 400H362V404H358V400Z" fill="#E5E7EB"/>
<path d="M378 400H382V404H378V400Z" fill="#E5E7EB"/>
<path d="M398 400H402V404H398V400Z" fill="#E5E7EB"/>
<path d="M418 400H422V404H418V400Z" fill="#E5E7EB"/>
<path d="M438 400H442V404H438V400Z" fill="#E5E7EB"/>
<path d="M458 400H462V404H458V400Z" fill="#E5E7EB"/>
<path d="M478 400H482V404H478V400Z" fill="#E5E7EB"/>
<path d="M498 400H502V404H498V400Z" fill="#E5E7EB"/>
<path d="M518 400H522V404H518V400Z" fill="#E5E7EB"/>
<path d="M118 420H122V424H118V420Z" fill="#E5E7EB"/>
<path d="M138 420H142V424H138V420Z" fill="#E5E7EB"/>
<path d="M158 420H162V424H158V420Z" fill="#E5E7EB"/>
<path d="M178 420H182V424H178V420Z" fill="#E5E7EB"/>
<path d="M198 420H202V424H198V420Z" fill="#E5E7EB"/>
<path d="M218 420H222V424H218V420Z" fill="#E5E7EB"/>
<path d="M238 420H242V424H238V420Z" fill="#E5E7EB"/>
<path d="M258 420H262V424H258V420Z" fill="#E5E7EB"/>
<path d="M278 420H282V424H278V420Z" fill="#E5E7EB"/>
<path d="M298 420H302V424H298V420Z" fill="#E5E7EB"/>
<path d="M318 420H322V424H318V420Z" fill="#E5E7EB"/>
<path d="M338 420H342V424H338V420Z" fill="#E5E7EB"/>
<path d="M358 420H362V424H358V420Z" fill="#E5E7EB"/>
<path d="M378 420H382V424H378V420Z" fill="#E5E7EB"/>
<path d="M398 420H402V424H398V420Z" fill="#E5E7EB"/>
<path d="M418 420H422V424H418V420Z" fill="#E5E7EB"/>
<path d="M438 420H442V424H438V420Z" fill="#E5E7EB"/>
<path d="M458 420H462V424H458V420Z" fill="#E5E7EB"/>
<path d="M478 420H482V424H478V420Z" fill="#E5E7EB"/>
<path d="M498 420H502V424H498V420Z" fill="#E5E7EB"/>
<path d="M518 420H522V424H518V420Z" fill="#E5E7EB"/>
<path d="M118 440H122V444H118V440Z" fill="#E5E7EB"/>
<path d="M138 440H142V444H138V440Z" fill="#E5E7EB"/>
<path d="M158 440H162V444H158V440Z" fill="#E5E7EB"/>
<path d="M178 440H182V444H178V440Z" fill="#E5E7EB"/>
<path d="M198 440H202V444H198V440Z" fill="#E5E7EB"/>
<path d="M218 440H222V444H218V440Z" fill="#E5E7EB"/>
<path d="M238 440H242V444H238V440Z" fill="#E5E7EB"/>
<path d="M258 440H262V444H258V440Z" fill="#E5E7EB"/>
<path d="M278 440H282V444H278V440Z" fill="#E5E7EB"/>
<path d="M298 440H302V444H298V440Z" fill="#E5E7EB"/>
<path d="M318 440H322V444H318V440Z" fill="#E5E7EB"/>
<path d="M338 440H342V444H338V440Z" fill="#E5E7EB"/>
<path d="M358 440H362V444H358V440Z" fill="#E5E7EB"/>
<path d="M378 440H382V444H378V440Z" fill="#E5E7EB"/>
<path d="M398 440H402V444H398V440Z" fill="#E5E7EB"/>
<path d="M418 440H422V444H418V440Z" fill="#E5E7EB"/>
<path d="M438 440H442V444H438V440Z" fill="#E5E7EB"/>
<path d="M458 440H462V444H458V440Z" fill="#E5E7EB"/>
<path d="M478 440H482V444H478V440Z" fill="#E5E7EB"/>
<path d="M498 440H502V444H498V440Z" fill="#E5E7EB"/>
<path d="M518 440H522V444H518V440Z" fill="#E5E7EB"/>
<path d="M118 460H122V464H118V460Z" fill="#E5E7EB"/>
<path d="M138 460H142V464H138V460Z" fill="#E5E7EB"/>
<path d="M158 460H162V464H158V460Z" fill="#E5E7EB"/>
<path d="M178 460H182V464H178V460Z" fill="#E5E7EB"/>
<path d="M198 460H202V464H198V460Z" fill="#E5E7EB"/>
<path d="M218 460H222V464H218V460Z" fill="#E5E7EB"/>
<path d="M238 460H242V464H238V460Z" fill="#E5E7EB"/>
<path d="M258 460H262V464H258V460Z" fill="#E5E7EB"/>
<path d="M278 460H282V464H278V460Z" fill="#E5E7EB"/>
<path d="M298 460H302V464H298V460Z" fill="#E5E7EB"/>
<path d="M318 460H322V464H318V460Z" fill="#E5E7EB"/>
<path d="M338 460H342V464H338V460Z" fill="#E5E7EB"/>
<path d="M358 460H362V464H358V460Z" fill="#E5E7EB"/>
<path d="M378 460H382V464H378V460Z" fill="#E5E7EB"/>
<path d="M398 460H402V464H398V460Z" fill="#E5E7EB"/>
<path d="M418 460H422V464H418V460Z" fill="#E5E7EB"/>
<path d="M438 460H442V464H438V460Z" fill="#E5E7EB"/>
<path d="M458 460H462V464H458V460Z" fill="#E5E7EB"/>
<path d="M478 460H482V464H478V460Z" fill="#E5E7EB"/>
<path d="M498 460H502V464H498V460Z" fill="#E5E7EB"/>
<path d="M518 460H522V464H518V460Z" fill="#E5E7EB"/>
<path d="M118 480H122V484H118V480Z" fill="#E5E7EB"/>
<path d="M138 480H142V484H138V480Z" fill="#E5E7EB"/>
<path d="M158 480H162V484H158V480Z" fill="#E5E7EB"/>
<path d="M178 480H182V484H178V480Z" fill="#E5E7EB"/>
<path d="M198 480H202V484H198V480Z" fill="#E5E7EB"/>
<path d="M218 480H222V484H218V480Z" fill="#E5E7EB"/>
<path d="M238 480H242V484H238V480Z" fill="#E5E7EB"/>
<path d="M258 480H262V484H258V480Z" fill="#E5E7EB"/>
<path d="M278 480H282V484H278V480Z" fill="#E5E7EB"/>
<path d="M298 480H302V484H298V480Z" fill="#E5E7EB"/>
<path d="M318 480H322V484H318V480Z" fill="#E5E7EB"/>
<path d="M338 480H342V484H338V480Z" fill="#E5E7EB"/>
<path d="M358 480H362V484H358V480Z" fill="#E5E7EB"/>
<path d="M378 480H382V484H378V480Z" fill="#E5E7EB"/>
<path d="M398 480H402V484H398V480Z" fill="#E5E7EB"/>
<path d="M418 480H422V484H418V480Z" fill="#E5E7EB"/>
<path d="M438 480H442V484H438V480Z" fill="#E5E7EB"/>
<path d="M458 480H462V484H458V480Z" fill="#E5E7EB"/>
<path d="M478 480H482V484H478V480Z" fill="#E5E7EB"/>
<path d="M498 480H502V484H498V480Z" fill="#E5E7EB"/>
<path d="M518 480H522V484H518V480Z" fill="#E5E7EB"/>
<path d="M118 500H122V504H118V500Z" fill="#E5E7EB"/>
<path d="M138 500H142V504H138V500Z" fill="#E5E7EB"/>
<path d="M158 500H162V504H158V500Z" fill="#E5E7EB"/>
<path d="M178 500H182V504H178V500Z" fill="#E5E7EB"/>
<path d="M198 500H202V504H198V500Z" fill="#E5E7EB"/>
<path d="M218 500H222V504H218V500Z" fill="#E5E7EB"/>
<path d="M238 500H242V504H238V500Z" fill="#E5E7EB"/>
<path d="M258 500H262V504H258V500Z" fill="#E5E7EB"/>
<path d="M278 500H282V504H278V500Z" fill="#E5E7EB"/>
<path d="M298 500H302V504H298V500Z" fill="#E5E7EB"/>
<path d="M318 500H322V504H318V500Z" fill="#E5E7EB"/>
<path d="M338 500H342V504H338V500Z" fill="#E5E7EB"/>
<path d="M358 500H362V504H358V500Z" fill="#E5E7EB"/>
<path d="M378 500H382V504H378V500Z" fill="#E5E7EB"/>
<path d="M398 500H402V504H398V500Z" fill="#E5E7EB"/>
<path d="M418 500H422V504H418V500Z" fill="#E5E7EB"/>
<path d="M438 500H442V504H438V500Z" fill="#E5E7EB"/>
<path d="M458 500H462V504H458V500Z" fill="#E5E7EB"/>
<path d="M478 500H482V504H478V500Z" fill="#E5E7EB"/>
<path d="M498 500H502V504H498V500Z" fill="#E5E7EB"/>
<path d="M518 500H522V504H518V500Z" fill="#E5E7EB"/>
<path d="M118 520H122V524H118V520Z" fill="#E5E7EB"/>
<path d="M138 520H142V524H138V520Z" fill="#E5E7EB"/>
<path d="M158 520H162V524H158V520Z" fill="#E5E7EB"/>
<path d="M178 520H182V524H178V520Z" fill="#E5E7EB"/>
<path d="M198 520H202V524H198V520Z" fill="#E5E7EB"/>
<path d="M218 520H222V524H218V520Z" fill="#E5E7EB"/>
<path d="M238 520H242V524H238V520Z" fill="#E5E7EB"/>
<path d="M258 520H262V524H258V520Z" fill="#E5E7EB"/>
<path d="M278 520H282V524H278V520Z" fill="#E5E7EB"/>
<path d="M298 520H302V524H298V520Z" fill="#E5E7EB"/>
<path d="M318 520H322V524H318V520Z" fill="#E5E7EB"/>
<path d="M338 520H342V524H338V520Z" fill="#E5E7EB"/>
<path d="M358 520H362V524H358V520Z" fill="#E5E7EB"/>
<path d="M378 520H382V524H378V520Z" fill="#E5E7EB"/>
<path d="M398 520H402V524H398V520Z" fill="#E5E7EB"/>
<path d="M418 520H422V524H418V520Z" fill="#E5E7EB"/>
<path d="M438 520H442V524H438V520Z" fill="#E5E7EB"/>
<path d="M458 520H462V524H458V520Z" fill="#E5E7EB"/>
<path d="M478 520H482V524H478V520Z" fill="#E5E7EB"/>
<path d="M498 520H502V524H498V520Z" fill="#E5E7EB"/>
<path d="M518 520H522V524H518V520Z" fill="#E5E7EB"/>
<path d="M118 540H122V544H118V540Z" fill="#E5E7EB"/>
<path d="M138 540H142V544H138V540Z" fill="#E5E7EB"/>
<path d="M158 540H162V544H158V540Z" fill="#E5E7EB"/>
<path d="M178 540H182V544H178V540Z" fill="#E5E7EB"/>
<path d="M198 540H202V544H198V540Z" fill="#E5E7EB"/>
<path d="M218 540H222V544H218V540Z" fill="#E5E7EB"/>
<path d="M238 540H242V544H238V540Z" fill="#E5E7EB"/>
<path d="M258 540H262V544H258V540Z" fill="#E5E7EB"/>
<path d="M278 540H282V544H278V540Z" fill="#E5E7EB"/>
<path d="M298 540H302V544H298V540Z" fill="#E5E7EB"/>
<path d="M318 540H322V544H318V540Z" fill="#E5E7EB"/>
<path d="M338 540H342V544H338V540Z" fill="#E5E7EB"/>
<path d="M358 540H362V544H358V540Z" fill="#E5E7EB"/>
<path d="M378 540H382V544H378V540Z" fill="#E5E7EB"/>
<path d="M398 540H402V544H398V540Z" fill="#E5E7EB"/>
<path d="M418 540H422V544H418V540Z" fill="#E5E7EB"/>
<path d="M438 540H442V544H438V540Z" fill="#E5E7EB"/>
<path d="M458 540H462V544H458V540Z" fill="#E5E7EB"/>
<path d="M478 540H482V544H478V540Z" fill="#E5E7EB"/>
<path d="M498 540H502V544H498V540Z" fill="#E5E7EB"/>
<path d="M518 540H522V544H518V540Z" fill="#E5E7EB"/>
<path d="M118 560H122V564H118V560Z" fill="#E5E7EB"/>
<path d="M138 560H142V564H138V560Z" fill="#E5E7EB"/>
<path d="M158 560H162V564H158V560Z" fill="#E5E7EB"/>
<path d="M178 560H182V564H178V560Z" fill="#E5E7EB"/>
<path d="M198 560H202V564H198V560Z" fill="#E5E7EB"/>
<path d="M218 560H222V564H218V560Z" fill="#E5E7EB"/>
<path d="M238 560H242V564H238V560Z" fill="#E5E7EB"/>
<path d="M258 560H262V564H258V560Z" fill="#E5E7EB"/>
<path d="M278 560H282V564H278V560Z" fill="#E5E7EB"/>
<path d="M298 560H302V564H298V560Z" fill="#E5E7EB"/>
<path d="M318 560H322V564H318V560Z" fill="#E5E7EB"/>
<path d="M338 560H342V564H338V560Z" fill="#E5E7EB"/>
<path d="M358 560H362V564H358V560Z" fill="#E5E7EB"/>
<path d="M378 560H382V564H378V560Z" fill="#E5E7EB"/>
<path d="M398 560H402V564H398V560Z" fill="#E5E7EB"/>
<path d="M418 560H422V564H418V560Z" fill="#E5E7EB"/>
<path d="M438 560H442V564H438V560Z" fill="#E5E7EB"/>
<path d="M458 560H462V564H458V560Z" fill="#E5E7EB"/>
<path d="M478 560H482V564H478V560Z" fill="#E5E7EB"/>
<path d="M498 560H502V564H498V560Z" fill="#E5E7EB"/>
<path d="M518 560H522V564H518V560Z" fill="#E5E7EB"/>
<path d="M118 580H122V584H118V580Z" fill="#E5E7EB"/>
<path d="M138 580H142V584H138V580Z" fill="#E5E7EB"/>
<path d="M158 580H162V584H158V580Z" fill="#E5E7EB"/>
<path d="M178 580H182V584H178V580Z" fill="#E5E7EB"/>
<path d="M198 580H202V584H198V580Z" fill="#E5E7EB"/>
<path d="M218 580H222V584H218V580Z" fill="#E5E7EB"/>
<path d="M238 580H242V584H238V580Z" fill="#E5E7EB"/>
<path d="M258 580H262V584H258V580Z" fill="#E5E7EB"/>
<path d="M278 580H282V584H278V580Z" fill="#E5E7EB"/>
<path d="M298 580H302V584H298V580Z" fill="#E5E7EB"/>
<path d="M318 580H322V584H318V580Z" fill="#E5E7EB"/>
<path d="M338 580H342V584H338V580Z" fill="#E5E7EB"/>
<path d="M358 580H362V584H358V580Z" fill="#E5E7EB"/>
<path d="M378 580H382V584H378V580Z" fill="#E5E7EB"/>
<path d="M398 580H402V584H398V580Z" fill="#E5E7EB"/>
<path d="M418 580H422V584H418V580Z" fill="#E5E7EB"/>
<path d="M438 580H442V584H438V580Z" fill="#E5E7EB"/>
<path d="M458 580H462V584H458V580Z" fill="#E5E7EB"/>
<path d="M478 580H482V584H478V580Z" fill="#E5E7EB"/>
<path d="M498 580H502V584H498V580Z" fill="#E5E7EB"/>
<path d="M518 580H522V584H518V580Z" fill="#E5E7EB"/>
<path d="M118 600H122V604H118V600Z" fill="#E5E7EB"/>
<path d="M138 600H142V604H138V600Z" fill="#E5E7EB"/>
<path d="M158 600H162V604H158V600Z" fill="#E5E7EB"/>
<path d="M178 600H182V604H178V600Z" fill="#E5E7EB"/>
<path d="M198 600H202V604H198V600Z" fill="#E5E7EB"/>
<path d="M218 600H222V604H218V600Z" fill="#E5E7EB"/>
<path d="M238 600H242V604H238V600Z" fill="#E5E7EB"/>
<path d="M258 600H262V604H258V600Z" fill="#E5E7EB"/>
<path d="M278 600H282V604H278V600Z" fill="#E5E7EB"/>
<path d="M298 600H302V604H298V600Z" fill="#E5E7EB"/>
<path d="M318 600H322V604H318V600Z" fill="#E5E7EB"/>
<path d="M338 600H342V604H338V600Z" fill="#E5E7EB"/>
<path d="M358 600H362V604H358V600Z" fill="#E5E7EB"/>
<path d="M378 600H382V604H378V600Z" fill="#E5E7EB"/>
<path d="M398 600H402V604H398V600Z" fill="#E5E7EB"/>
<path d="M418 600H422V604H418V600Z" fill="#E5E7EB"/>
<path d="M438 600H442V604H438V600Z" fill="#E5E7EB"/>
<path d="M458 600H462V604H458V600Z" fill="#E5E7EB"/>
<path d="M478 600H482V604H478V600Z" fill="#E5E7EB"/>
<path d="M498 600H502V604H498V600Z" fill="#E5E7EB"/>
<path d="M518 600H522V604H518V600Z" fill="#E5E7EB"/>
<path d="M118 620H122V624H118V620Z" fill="#E5E7EB"/>
<path d="M138 620H142V624H138V620Z" fill="#E5E7EB"/>
<path d="M158 620H162V624H158V620Z" fill="#E5E7EB"/>
<path d="M178 620H182V624H178V620Z" fill="#E5E7EB"/>
<path d="M198 620H202V624H198V620Z" fill="#E5E7EB"/>
<path d="M218 620H222V624H218V620Z" fill="#E5E7EB"/>
<path d="M238 620H242V624H238V620Z" fill="#E5E7EB"/>
<path d="M258 620H262V624H258V620Z" fill="#E5E7EB"/>
<path d="M278 620H282V624H278V620Z" fill="#E5E7EB"/>
<path d="M298 620H302V624H298V620Z" fill="#E5E7EB"/>
<path d="M318 620H322V624H318V620Z" fill="#E5E7EB"/>
<path d="M338 620H342V624H338V620Z" fill="#E5E7EB"/>
<path d="M358 620H362V624H358V620Z" fill="#E5E7EB"/>
<path d="M378 620H382V624H378V620Z" fill="#E5E7EB"/>
<path d="M398 620H402V624H398V620Z" fill="#E5E7EB"/>
<path d="M418 620H422V624H418V620Z" fill="#E5E7EB"/>
<path d="M438 620H442V624H438V620Z" fill="#E5E7EB"/>
<path d="M458 620H462V624H458V620Z" fill="#E5E7EB"/>
<path d="M478 620H482V624H478V620Z" fill="#E5E7EB"/>
<path d="M498 620H502V624H498V620Z" fill="#E5E7EB"/>
<path d="M518 620H522V624H518V620Z" fill="#E5E7EB"/>
<path d="M118 640H122V644H118V640Z" fill="#E5E7EB"/>
<path d="M138 640H142V644H138V640Z" fill="#E5E7EB"/>
<path d="M158 640H162V644H158V640Z" fill="#E5E7EB"/>
<path d="M178 640H182V644H178V640Z" fill="#E5E7EB"/>
<path d="M198 640H202V644H198V640Z" fill="#E5E7EB"/>
<path d="M218 640H222V644H218V640Z" fill="#E5E7EB"/>
<path d="M238 640H242V644H238V640Z" fill="#E5E7EB"/>
<path d="M258 640H262V644H258V640Z" fill="#E5E7EB"/>
<path d="M278 640H282V644H278V640Z" fill="#E5E7EB"/>
<path d="M298 640H302V644H298V640Z" fill="#E5E7EB"/>
<path d="M318 640H322V644H318V640Z" fill="#E5E7EB"/>
<path d="M338 640H342V644H338V640Z" fill="#E5E7EB"/>
<path d="M358 640H362V644H358V640Z" fill="#E5E7EB"/>
<path d="M378 640H382V644H378V640Z" fill="#E5E7EB"/>
<path d="M398 640H402V644H398V640Z" fill="#E5E7EB"/>
<path d="M418 640H422V644H418V640Z" fill="#E5E7EB"/>
<path d="M438 640H442V644H438V640Z" fill="#E5E7EB"/>
<path d="M458 640H462V644H458V640Z" fill="#E5E7EB"/>
<path d="M478 640H482V644H478V640Z" fill="#E5E7EB"/>
<path d="M498 640H502V644H498V640Z" fill="#E5E7EB"/>
<path d="M518 640H522V644H518V640Z" fill="#E5E7EB"/>
<path d="M118 660H122V664H118V660Z" fill="#E5E7EB"/>
<path d="M138 660H142V664H138V660Z" fill="#E5E7EB"/>
<path d="M158 660H162V664H158V660Z" fill="#E5E7EB"/>
<path d="M178 660H182V664H178V660Z" fill="#E5E7EB"/>
<path d="M198 660H202V664H198V660Z" fill="#E5E7EB"/>
<path d="M218 660H222V664H218V660Z" fill="#E5E7EB"/>
<path d="M238 660H242V664H238V660Z" fill="#E5E7EB"/>
<path d="M258 660H262V664H258V660Z" fill="#E5E7EB"/>
<path d="M278 660H282V664H278V660Z" fill="#E5E7EB"/>
<path d="M298 660H302V664H298V660Z" fill="#E5E7EB"/>
<path d="M318 660H322V664H318V660Z" fill="#E5E7EB"/>
<path d="M338 660H342V664H338V660Z" fill="#E5E7EB"/>
<path d="M358 660H362V664H358V660Z" fill="#E5E7EB"/>
<path d="M378 660H382V664H378V660Z" fill="#E5E7EB"/>
<path d="M398 660H402V664H398V660Z" fill="#E5E7EB"/>
<path d="M418 660H422V664H418V660Z" fill="#E5E7EB"/>
<path d="M438 660H442V664H438V660Z" fill="#E5E7EB"/>
<path d="M458 660H462V664H458V660Z" fill="#E5E7EB"/>
<path d="M478 660H482V664H478V660Z" fill="#E5E7EB"/>
<path d="M498 660H502V664H498V660Z" fill="#E5E7EB"/>
<path d="M518 660H522V664H518V660Z" fill="#E5E7EB"/>
<path d="M118 680H122V684H118V680Z" fill="#E5E7EB"/>
<path d="M138 680H142V684H138V680Z" fill="#E5E7EB"/>
<path d="M158 680H162V684H158V680Z" fill="#E5E7EB"/>
<path d="M178 680H182V684H178V680Z" fill="#E5E7EB"/>
<path d="M198 680H202V684H198V680Z" fill="#E5E7EB"/>
<path d="M218 680H222V684H218V680Z" fill="#E5E7EB"/>
<path d="M238 680H242V684H238V680Z" fill="#E5E7EB"/>
<path d="M258 680H262V684H258V680Z" fill="#E5E7EB"/>
<path d="M278 680H282V684H278V680Z" fill="#E5E7EB"/>
<path d="M298 680H302V684H298V680Z" fill="#E5E7EB"/>
<path d="M318 680H322V684H318V680Z" fill="#E5E7EB"/>
<path d="M338 680H342V684H338V680Z" fill="#E5E7EB"/>
<path d="M358 680H362V684H358V680Z" fill="#E5E7EB"/>
<path d="M378 680H382V684H378V680Z" fill="#E5E7EB"/>
<path d="M398 680H402V684H398V680Z" fill="#E5E7EB"/>
<path d="M418 680H422V684H418V680Z" fill="#E5E7EB"/>
<path d="M438 680H442V684H438V680Z" fill="#E5E7EB"/>
<path d="M458 680H462V684H458V680Z" fill="#E5E7EB"/>
<path d="M478 680H482V684H478V680Z" fill="#E5E7EB"/>
<path d="M498 680H502V684H498V680Z" fill="#E5E7EB"/>
<path d="M518 680H522V684H518V680Z" fill="#E5E7EB"/>
<path d="M118 700H122V704H118V700Z" fill="#E5E7EB"/>
<path d="M138 700H142V704H138V700Z" fill="#E5E7EB"/>
<path d="M158 700H162V704H158V700Z" fill="#E5E7EB"/>
<path d="M178 700H182V704H178V700Z" fill="#E5E7EB"/>
<path d="M198 700H202V704H198V700Z" fill="#E5E7EB"/>
<path d="M218 700H222V704H218V700Z" fill="#E5E7EB"/>
<path d="M238 700H242V704H238V700Z" fill="#E5E7EB"/>
<path d="M258 700H262V704H258V700Z" fill="#E5E7EB"/>
<path d="M278 700H282V704H278V700Z" fill="#E5E7EB"/>
<path d="M298 700H302V704H298V700Z" fill="#E5E7EB"/>
<path d="M318 700H322V704H318V700Z" fill="#E5E7EB"/>
<path d="M338 700H342V704H338V700Z" fill="#E5E7EB"/>
<path d="M358 700H362V704H358V700Z" fill="#E5E7EB"/>
<path d="M378 700H382V704H378V700Z" fill="#E5E7EB"/>
<path d="M398 700H402V704H398V700Z" fill="#E5E7EB"/>
<path d="M418 700H422V704H418V700Z" fill="#E5E7EB"/>
<path d="M438 700H442V704H438V700Z" fill="#E5E7EB"/>
<path d="M458 700H462V704H458V700Z" fill="#E5E7EB"/>
<path d="M478 700H482V704H478V700Z" fill="#E5E7EB"/>
<path d="M498 700H502V704H498V700Z" fill="#E5E7EB"/>
<path d="M518 700H522V704H518V700Z" fill="#E5E7EB"/>
<path d="M118 720H122V724H118V720Z" fill="#E5E7EB"/>
<path d="M138 720H142V724H138V720Z" fill="#E5E7EB"/>
<path d="M158 720H162V724H158V720Z" fill="#E5E7EB"/>
<path d="M178 720H182V724H178V720Z" fill="#E5E7EB"/>
<path d="M198 720H202V724H198V720Z" fill="#E5E7EB"/>
<path d="M218 720H222V724H218V720Z" fill="#E5E7EB"/>
<path d="M238 720H242V724H238V720Z" fill="#E5E7EB"/>
<path d="M258 720H262V724H258V720Z" fill="#E5E7EB"/>
<path d="M278 720H282V724H278V720Z" fill="#E5E7EB"/>
<path d="M298 720H302V724H298V720Z" fill="#E5E7EB"/>
<path d="M318 720H322V724H318V720Z" fill="#E5E7EB"/>
<path d="M338 720H342V724H338V720Z" fill="#E5E7EB"/>
<path d="M358 720H362V724H358V720Z" fill="#E5E7EB"/>
<path d="M378 720H382V724H378V720Z" fill="#E5E7EB"/>
<path d="M398 720H402V724H398V720Z" fill="#E5E7EB"/>
<path d="M418 720H422V724H418V720Z" fill="#E5E7EB"/>
<path d="M438 720H442V724H438V720Z" fill="#E5E7EB"/>
<path d="M458 720H462V724H458V720Z" fill="#E5E7EB"/>
<path d="M478 720H482V724H478V720Z" fill="#E5E7EB"/>
<path d="M498 720H502V724H498V720Z" fill="#E5E7EB"/>
<path d="M518 720H522V724H518V720Z" fill="#E5E7EB"/>
<path d="M118 740H122V744H118V740Z" fill="#E5E7EB"/>
<path d="M138 740H142V744H138V740Z" fill="#E5E7EB"/>
<path d="M158 740H162V744H158V740Z" fill="#E5E7EB"/>
<path d="M178 740H182V744H178V740Z" fill="#E5E7EB"/>
<path d="M198 740H202V744H198V740Z" fill="#E5E7EB"/>
<path d="M218 740H222V744H218V740Z" fill="#E5E7EB"/>
<path d="M238 740H242V744H238V740Z" fill="#E5E7EB"/>
<path d="M258 740H262V744H258V740Z" fill="#E5E7EB"/>
<path d="M278 740H282V744H278V740Z" fill="#E5E7EB"/>
<path d="M298 740H302V744H298V740Z" fill="#E5E7EB"/>
<path d="M318 740H322V744H318V740Z" fill="#E5E7EB"/>
<path d="M338 740H342V744H338V740Z" fill="#E5E7EB"/>
<path d="M358 740H362V744H358V740Z" fill="#E5E7EB"/>
<path d="M378 740H382V744H378V740Z" fill="#E5E7EB"/>
<path d="M398 740H402V744H398V740Z" fill="#E5E7EB"/>
<path d="M418 740H422V744H418V740Z" fill="#E5E7EB"/>
<path d="M438 740H442V744H438V740Z" fill="#E5E7EB"/>
<path d="M458 740H462V744H458V740Z" fill="#E5E7EB"/>
<path d="M478 740H482V744H478V740Z" fill="#E5E7EB"/>
<path d="M498 740H502V744H498V740Z" fill="#E5E7EB"/>
<path d="M518 740H522V744H518V740Z" fill="#E5E7EB"/>
<path d="M118 760H122V764H118V760Z" fill="#E5E7EB"/>
<path d="M138 760H142V764H138V760Z" fill="#E5E7EB"/>
<path d="M158 760H162V764H158V760Z" fill="#E5E7EB"/>
<path d="M178 760H182V764H178V760Z" fill="#E5E7EB"/>
<path d="M198 760H202V764H198V760Z" fill="#E5E7EB"/>
<path d="M218 760H222V764H218V760Z" fill="#E5E7EB"/>
<path d="M238 760H242V764H238V760Z" fill="#E5E7EB"/>
<path d="M258 760H262V764H258V760Z" fill="#E5E7EB"/>
<path d="M278 760H282V764H278V760Z" fill="#E5E7EB"/>
<path d="M298 760H302V764H298V760Z" fill="#E5E7EB"/>
<path d="M318 760H322V764H318V760Z" fill="#E5E7EB"/>
<path d="M338 760H342V764H338V760Z" fill="#E5E7EB"/>
<path d="M358 760H362V764H358V760Z" fill="#E5E7EB"/>
<path d="M378 760H382V764H378V760Z" fill="#E5E7EB"/>
<path d="M398 760H402V764H398V760Z" fill="#E5E7EB"/>
<path d="M418 760H422V764H418V760Z" fill="#E5E7EB"/>
<path d="M438 760H442V764H438V760Z" fill="#E5E7EB"/>
<path d="M458 760H462V764H458V760Z" fill="#E5E7EB"/>
<path d="M478 760H482V764H478V760Z" fill="#E5E7EB"/>
<path d="M498 760H502V764H498V760Z" fill="#E5E7EB"/>
<path d="M518 760H522V764H518V760Z" fill="#E5E7EB"/>
<path d="M118 780H122V784H118V780Z" fill="#E5E7EB"/>
<path d="M138 780H142V784H138V780Z" fill="#E5E7EB"/>
<path d="M158 780H162V784H158V780Z" fill="#E5E7EB"/>
<path d="M178 780H182V784H178V780Z" fill="#E5E7EB"/>
<path d="M198 780H202V784H198V780Z" fill="#E5E7EB"/>
<path d="M218 780H222V784H218V780Z" fill="#E5E7EB"/>
<path d="M238 780H242V784H238V780Z" fill="#E5E7EB"/>
<path d="M258 780H262V784H258V780Z" fill="#E5E7EB"/>
<path d="M278 780H282V784H278V780Z" fill="#E5E7EB"/>
<path d="M298 780H302V784H298V780Z" fill="#E5E7EB"/>
<path d="M318 780H322V784H318V780Z" fill="#E5E7EB"/>
<path d="M338 780H342V784H338V780Z" fill="#E5E7EB"/>
<path d="M358 780H362V784H358V780Z" fill="#E5E7EB"/>
<path d="M378 780H382V784H378V780Z" fill="#E5E7EB"/>
<path d="M398 780H402V784H398V780Z" fill="#E5E7EB"/>
<path d="M418 780H422V784H418V780Z" fill="#E5E7EB"/>
<path d="M438 780H442V784H438V780Z" fill="#E5E7EB"/>
<path d="M458 780H462V784H458V780Z" fill="#E5E7EB"/>
<path d="M478 780H482V784H478V780Z" fill="#E5E7EB"/>
<path d="M498 780H502V784H498V780Z" fill="#E5E7EB"/>
<path d="M518 780H522V784H518V780Z" fill="#E5E7EB"/>
<path d="M118 800H122V804H118V800Z" fill="#E5E7EB"/>
<path d="M138 800H142V804H138V800Z" fill="#E5E7EB"/>
<path d="M158 800H162V804H158V800Z" fill="#E5E7EB"/>
<path d="M178 800H182V804H178V800Z" fill="#E5E7EB"/>
<path d="M198 800H202V804H198V800Z" fill="#E5E7EB"/>
<path d="M218 800H222V804H218V800Z" fill="#E5E7EB"/>
<path d="M238 800H242V804H238V800Z" fill="#E5E7EB"/>
<path d="M258 800H262V804H258V800Z" fill="#E5E7EB"/>
<path d="M278 800H282V804H278V800Z" fill="#E5E7EB"/>
<path d="M298 800H302V804H298V800Z" fill="#E5E7EB"/>
<path d="M318 800H322V804H318V800Z" fill="#E5E7EB"/>
<path d="M338 800H342V804H338V800Z" fill="#E5E7EB"/>
<path d="M358 800H362V804H358V800Z" fill="#E5E7EB"/>
<path d="M378 800H382V804H378V800Z" fill="#E5E7EB"/>
<path d="M398 800H402V804H398V800Z" fill="#E5E7EB"/>
<path d="M418 800H422V804H418V800Z" fill="#E5E7EB"/>
<path d="M438 800H442V804H438V800Z" fill="#E5E7EB"/>
<path d="M458 800H462V804H458V800Z" fill="#E5E7EB"/>
<path d="M478 800H482V804H478V800Z" fill="#E5E7EB"/>
<path d="M498 800H502V804H498V800Z" fill="#E5E7EB"/>
<path d="M518 800H522V804H518V800Z" fill="#E5E7EB"/>
<path d="M118 820H122V824H118V820Z" fill="#E5E7EB"/>
<path d="M138 820H142V824H138V820Z" fill="#E5E7EB"/>
<path d="M158 820H162V824H158V820Z" fill="#E5E7EB"/>
<path d="M178 820H182V824H178V820Z" fill="#E5E7EB"/>
<path d="M198 820H202V824H198V820Z" fill="#E5E7EB"/>
<path d="M218 820H222V824H218V820Z" fill="#E5E7EB"/>
<path d="M238 820H242V824H238V820Z" fill="#E5E7EB"/>
<path d="M258 820H262V824H258V820Z" fill="#E5E7EB"/>
<path d="M278 820H282V824H278V820Z" fill="#E5E7EB"/>
<path d="M298 820H302V824H298V820Z" fill="#E5E7EB"/>
<path d="M318 820H322V824H318V820Z" fill="#E5E7EB"/>
<path d="M338 820H342V824H338V820Z" fill="#E5E7EB"/>
<path d="M358 820H362V824H358V820Z" fill="#E5E7EB"/>
<path d="M378 820H382V824H378V820Z" fill="#E5E7EB"/>
<path d="M398 820H402V824H398V820Z" fill="#E5E7EB"/>
<path d="M418 820H422V824H418V820Z" fill="#E5E7EB"/>
<path d="M438 820H442V824H438V820Z" fill="#E5E7EB"/>
<path d="M458 820H462V824H458V820Z" fill="#E5E7EB"/>
<path d="M478 820H482V824H478V820Z" fill="#E5E7EB"/>
<path d="M498 820H502V824H498V820Z" fill="#E5E7EB"/>
<path d="M518 820H522V824H518V820Z" fill="#E5E7EB"/>
</g>
<defs>
<clipPath id="clip0">
<rect width="332" height="715" fill="white" transform="translate(118)"/>
</clipPath>
</defs>
</svg>
