<svg width="125" height="36" viewBox="0 0 125 36" fill="none" xmlns="http://www.w3.org/2000/svg">
<path d="M56.28 24H58.44V12.8H56.28V24ZM62.9988 24V18.96C63.2868 18.56 64.0068 18 64.8868 18C65.3668 18 65.7828 18.16 66.0548 18.432C66.3428 18.72 66.5188 19.12 66.5188 19.888V24H68.5988V20.048C68.5988 18.72 68.3108 17.936 67.7987 17.328C67.1588 16.56 66.1828 16.08 65.1108 16.08C64.2468 16.08 63.5108 16.384 62.9188 16.864V16.24H60.9188V24H62.9988ZM71.7263 16.24H69.5663L73.1343 24H74.5743L78.1423 16.24H75.9823L73.8543 20.976L71.7263 16.24ZM78.6225 20.128C78.6225 22.368 80.3985 24.16 82.7505 24.16C85.1025 24.16 86.8785 22.368 86.8785 20.128C86.8785 17.888 85.1025 16.08 82.7505 16.08C80.3985 16.08 78.6225 17.888 78.6225 20.128ZM80.7025 20.128C80.7025 18.96 81.5345 18 82.7505 18C83.9665 18 84.7985 18.96 84.7985 20.128C84.7985 21.296 83.9665 22.24 82.7505 22.24C81.5345 22.24 80.7025 21.296 80.7025 20.128ZM90.7175 16.24H88.6375V24H90.7175V16.24ZM88.3175 13.488C88.3175 14.24 88.9255 14.816 89.6775 14.816C90.4295 14.816 91.0375 14.24 91.0375 13.488C91.0375 12.736 90.4295 12.16 89.6775 12.16C88.9255 12.16 88.3175 12.736 88.3175 13.488ZM98.5619 21.216C98.2259 21.728 97.5539 22.24 96.7059 22.24C95.4419 22.24 94.5619 21.344 94.5619 20.128C94.5619 18.944 95.4579 18 96.6579 18C97.4099 18 98.0339 18.384 98.4499 18.928L99.9219 17.632C99.2019 16.704 98.0019 16.08 96.6579 16.08C94.2899 16.08 92.4819 17.872 92.4819 20.128C92.4819 22.368 94.2419 24.16 96.6419 24.16C98.0979 24.16 99.2499 23.632 100.162 22.416L98.5619 21.216ZM103.843 16.24H101.763V24H103.843V16.24ZM101.443 13.488C101.443 14.24 102.051 14.816 102.803 14.816C103.555 14.816 104.163 14.24 104.163 13.488C104.163 12.736 103.555 12.16 102.803 12.16C102.051 12.16 101.443 12.736 101.443 13.488ZM108.327 24V18.96C108.615 18.56 109.335 18 110.215 18C110.695 18 111.111 18.16 111.383 18.432C111.671 18.72 111.847 19.12 111.847 19.888V24H113.927V20.048C113.927 18.72 113.639 17.936 113.127 17.328C112.487 16.56 111.511 16.08 110.439 16.08C109.575 16.08 108.839 16.384 108.247 16.864V16.24H106.247V24H108.327ZM123.609 16.24H121.609V16.864C121.001 16.368 120.217 16.08 119.337 16.08C117.225 16.08 115.529 17.84 115.529 20.128C115.529 21.184 115.897 22.144 116.505 22.848C117.193 23.648 118.297 24.16 119.449 24.16C120.233 24.16 120.905 23.936 121.529 23.456V23.712C121.529 24.704 121.369 25.184 121.049 25.536C120.697 25.952 120.137 26.16 119.465 26.16C118.185 26.16 117.465 25.488 117.049 25.04L115.737 26.4C116.505 27.296 117.945 28 119.465 28C120.953 28 122.201 27.424 122.905 26.448C123.369 25.792 123.609 24.96 123.609 23.568V16.24ZM121.529 21.28C121.129 21.856 120.441 22.24 119.657 22.24C118.489 22.24 117.609 21.344 117.609 20.128C117.609 19.008 118.393 18 119.609 18C120.409 18 121.097 18.384 121.529 18.96V21.28Z" fill="#D64900"/>
<path fill-rule="evenodd" clip-rule="evenodd" d="M23.8591 0.0910653C23.8591 0.141151 23.7362 0.182131 23.5859 0.182131C23.4357 0.182131 23.3127 0.22311 23.3127 0.273196C23.3127 0.323282 23.2308 0.364261 23.1306 0.364261C23.0304 0.364261 22.9485 0.405241 22.9485 0.455326C22.9485 0.505412 22.8665 0.546392 22.7663 0.546392C22.6662 0.546392 22.5842 0.587371 22.5842 0.637457C22.5842 0.687543 22.5112 0.728522 22.4222 0.728522C22.333 0.728522 22.2011 0.810481 22.1289 0.910653C22.0567 1.01082 21.9247 1.09278 21.8356 1.09278C21.7465 1.09278 21.6735 1.13376 21.6735 1.18385C21.6735 1.23393 21.6094 1.27491 21.531 1.27491C21.4526 1.27491 21.189 1.47981 20.945 1.73024C20.7011 1.98067 20.4568 2.18557 20.4022 2.18557C20.272 2.18557 19.488 2.97064 19.488 3.10096C19.488 3.15632 19.3241 3.35903 19.1237 3.55155C18.9234 3.74406 18.7595 3.95715 18.7595 4.02518C18.7595 4.0932 18.6775 4.20785 18.5773 4.28007C18.4771 4.35228 18.3952 4.48424 18.3952 4.57339C18.3952 4.66245 18.3542 4.7354 18.3041 4.7354C18.254 4.7354 18.2131 4.80834 18.2131 4.8974C18.2131 4.98655 18.1311 5.11851 18.0309 5.19072C17.9308 5.26294 17.8488 5.39489 17.8488 5.48404C17.8488 5.57311 17.8078 5.64605 17.7577 5.64605C17.7076 5.64605 17.6667 5.72801 17.6667 5.82818C17.6667 5.92835 17.6257 6.01031 17.5756 6.01031C17.5255 6.01031 17.4845 6.09227 17.4845 6.19244C17.4845 6.29261 17.4436 6.37457 17.3935 6.37457C17.3434 6.37457 17.3024 6.49751 17.3024 6.64777C17.3024 6.79802 17.2614 6.92096 17.2113 6.92096C17.1613 6.92096 17.1203 7.00292 17.1203 7.10309C17.1203 7.20326 17.0793 7.28522 17.0292 7.28522C16.9791 7.28522 16.9381 7.40816 16.9381 7.55842C16.9381 7.70868 16.8972 7.83162 16.8471 7.83162C16.797 7.83162 16.756 7.99553 16.756 8.19588C16.756 8.39622 16.715 8.56014 16.6649 8.56014C16.6149 8.56014 16.5739 8.72406 16.5739 8.9244C16.5739 9.12474 16.5329 9.28866 16.4828 9.28866C16.4327 9.28866 16.3918 9.37062 16.3918 9.47079C16.3918 9.57096 16.3508 9.65292 16.3007 9.65292C16.2506 9.65292 16.2096 9.59036 16.2096 9.51396C16.2096 9.35514 15.4466 8.56014 15.2942 8.56014C15.2389 8.56014 15.0362 8.39622 14.8436 8.19588C14.6511 7.99553 14.4454 7.83162 14.3865 7.83162C14.3275 7.83162 14.1644 7.70868 14.0241 7.55842C13.8837 7.40816 13.7123 7.28522 13.6434 7.28522C13.5744 7.28522 13.4588 7.20326 13.3866 7.10309C13.3144 7.00292 13.1824 6.92096 13.0933 6.92096C13.0042 6.92096 12.9313 6.87998 12.9313 6.8299C12.9313 6.77981 12.8493 6.73883 12.7491 6.73883C12.649 6.73883 12.567 6.69785 12.567 6.64777C12.567 6.59768 12.4851 6.5567 12.3849 6.5567C12.2847 6.5567 12.2027 6.51572 12.2027 6.46564C12.2027 6.41555 12.1208 6.37457 12.0206 6.37457C11.9204 6.37457 11.8385 6.33359 11.8385 6.28351C11.8385 6.23342 11.7565 6.19244 11.6564 6.19244C11.5562 6.19244 11.4742 6.15146 11.4742 6.10137C11.4742 6.05129 11.3923 6.01031 11.2921 6.01031C11.1919 6.01031 11.11 5.96933 11.11 5.91924C11.11 5.86916 10.987 5.82818 10.8368 5.82818C10.6865 5.82818 10.5636 5.7872 10.5636 5.73711C10.5636 5.68703 10.4406 5.64605 10.2904 5.64605C10.1401 5.64605 10.0172 5.60507 10.0172 5.55498C10.0172 5.5049 9.81229 5.46392 9.56186 5.46392C9.31143 5.46392 9.10653 5.42294 9.10653 5.37285C9.10653 5.32095 8.83589 5.28179 8.47663 5.28179C8.0581 5.28179 7.83134 5.24363 7.80056 5.16796C7.76578 5.08199 7.72871 5.08754 7.64949 5.19072C7.57026 5.2939 7.5332 5.29945 7.49841 5.21349C7.473 5.15093 7.37702 5.09966 7.28522 5.09966C7.19343 5.09966 7.09745 5.15093 7.07204 5.21349C7.03734 5.29918 7.00165 5.29353 6.92788 5.19072C6.84082 5.06933 6.81897 5.06933 6.73191 5.19072C6.65815 5.29353 6.62245 5.29918 6.58776 5.21349C6.53293 5.07862 6.19244 5.05895 6.19244 5.19072C6.19244 5.24081 5.98754 5.28179 5.73711 5.28179C5.48668 5.28179 5.28179 5.24081 5.28179 5.19072C5.28179 5.14064 5.44571 5.09966 5.64605 5.09966C5.84639 5.09966 6.01031 5.05868 6.01031 5.00859C6.01031 4.95796 6.25318 4.91753 6.5567 4.91753C6.86022 4.91753 7.10309 4.87709 7.10309 4.82646C7.10309 4.76982 7.61916 4.7354 8.46907 4.7354C9.31899 4.7354 9.83505 4.76982 9.83505 4.82646C9.83505 4.87709 10.0779 4.91753 10.3814 4.91753C10.685 4.91753 10.9278 4.95796 10.9278 5.00859C10.9278 5.05868 11.0918 5.09966 11.2921 5.09966C11.4924 5.09966 11.6564 5.14064 11.6564 5.19072C11.6564 5.24081 11.7793 5.28179 11.9296 5.28179C12.0798 5.28179 12.2027 5.32277 12.2027 5.37285C12.2027 5.42294 12.3257 5.46392 12.4759 5.46392C12.6262 5.46392 12.7491 5.5049 12.7491 5.55498C12.7491 5.60507 12.8721 5.64605 13.0223 5.64605C13.1726 5.64605 13.2955 5.68703 13.2955 5.73711C13.2955 5.7872 13.3775 5.82818 13.4777 5.82818C13.5778 5.82818 13.6598 5.86916 13.6598 5.91924C13.6598 5.96933 13.7418 6.01031 13.8419 6.01031C13.9421 6.01031 14.0241 6.05129 14.0241 6.10137C14.0241 6.15146 14.106 6.19244 14.2062 6.19244C14.3064 6.19244 14.3883 6.23342 14.3883 6.28351C14.3883 6.33359 14.4703 6.37457 14.5704 6.37457C14.6706 6.37457 14.7526 6.41555 14.7526 6.46564C14.7526 6.51572 14.8255 6.5567 14.9146 6.5567C15.0037 6.5567 15.1357 6.63866 15.2079 6.73883C15.2801 6.839 15.3945 6.92096 15.4622 6.92096C15.6207 6.92096 15.8454 6.6963 15.8454 6.53776C15.8454 6.4701 15.9273 6.35572 16.0275 6.28351C16.1277 6.21129 16.2096 6.07934 16.2096 5.99018C16.2096 5.90112 16.2506 5.82818 16.3007 5.82818C16.3508 5.82818 16.3918 5.75524 16.3918 5.66617C16.3918 5.57702 16.4737 5.44507 16.5739 5.37285C16.6741 5.30064 16.756 5.1777 16.756 5.09966C16.756 5.02161 16.838 4.89868 16.9381 4.82646C17.0383 4.75425 17.1203 4.63959 17.1203 4.57157C17.1203 4.50354 17.2842 4.29045 17.4845 4.09794C17.6849 3.90543 17.8488 3.7029 17.8488 3.6478C17.8488 3.51722 18.8162 2.54983 18.9468 2.54983C19.0019 2.54983 19.2044 2.38591 19.3969 2.18557C19.5894 1.98522 19.7951 1.82131 19.8541 1.82131C19.9131 1.82131 20.0762 1.69837 20.2165 1.54811C20.3568 1.39785 20.5372 1.27491 20.6173 1.27491C20.6974 1.27491 20.7629 1.23393 20.7629 1.18385C20.7629 1.13376 20.8448 1.09278 20.945 1.09278C21.0452 1.09278 21.1271 1.0518 21.1271 1.00172C21.1271 0.951632 21.2091 0.910653 21.3093 0.910653C21.4095 0.910653 21.4914 0.869674 21.4914 0.819588C21.4914 0.769502 21.5734 0.728522 21.6735 0.728522C21.7737 0.728522 21.8557 0.687543 21.8557 0.637457C21.8557 0.587371 21.9376 0.546392 22.0378 0.546392C22.138 0.546392 22.2199 0.505412 22.2199 0.455326C22.2199 0.405241 22.3429 0.364261 22.4931 0.364261C22.6434 0.364261 22.7663 0.323282 22.7663 0.273196C22.7663 0.22311 22.8893 0.182131 23.0395 0.182131C23.1898 0.182131 23.3127 0.141151 23.3127 0.0910653C23.3127 0.0409794 23.4357 0 23.5859 0C23.7362 0 23.8591 0.0409794 23.8591 0.0910653ZM34.2406 1.00172C34.2406 1.14187 35.8519 1.12001 35.9177 0.978952C35.9601 0.887887 35.9814 0.887887 36.0239 0.978952C36.0606 1.05754 36.3285 1.09278 36.889 1.09278C37.3696 1.09278 37.701 1.12994 37.701 1.18385C37.701 1.23448 37.9439 1.27491 38.2474 1.27491C38.5509 1.27491 38.7938 1.31535 38.7938 1.36598C38.7938 1.41607 38.9987 1.45704 39.2491 1.45704C39.4996 1.45704 39.7045 1.49802 39.7045 1.54811C39.7045 1.5982 39.8684 1.63918 40.0687 1.63918C40.2691 1.63918 40.433 1.68015 40.433 1.73024C40.433 1.78033 40.5559 1.82131 40.7062 1.82131C40.8564 1.82131 40.9794 1.86229 40.9794 1.91237C40.9794 1.96246 41.1023 2.00344 41.2526 2.00344C41.4028 2.00344 41.5258 2.04442 41.5258 2.0945C41.5258 2.14459 41.6487 2.18557 41.799 2.18557C41.9492 2.18557 42.0722 2.22655 42.0722 2.27663C42.0722 2.32672 42.1541 2.3677 42.2543 2.3677C42.3545 2.3677 42.4364 2.40868 42.4364 2.45876C42.4364 2.50885 42.5184 2.54983 42.6186 2.54983C42.7187 2.54983 42.8007 2.59081 42.8007 2.64089C42.8007 2.69098 42.9236 2.73196 43.0739 2.73196C43.2241 2.73196 43.3471 2.77294 43.3471 2.82302C43.3471 2.87311 43.429 2.91409 43.5292 2.91409C43.6294 2.91409 43.7113 2.95507 43.7113 3.00515C43.7113 3.05524 43.7933 3.09622 43.8935 3.09622C43.9936 3.09622 44.0756 3.1372 44.0756 3.18729C44.0756 3.23737 44.1486 3.27835 44.2376 3.27835C44.3268 3.27835 44.4587 3.36031 44.5309 3.46048C44.6031 3.56065 44.7261 3.64261 44.8041 3.64261C44.8822 3.64261 45.0051 3.72457 45.0773 3.82474C45.1495 3.92491 45.2725 4.00687 45.3505 4.00687C45.4286 4.00687 45.5515 4.08883 45.6237 4.189C45.6959 4.28918 45.8115 4.37113 45.8805 4.37113C45.9494 4.37113 46.1208 4.49407 46.2612 4.64433C46.4015 4.79459 46.5618 4.91753 46.6172 4.91753C46.7489 4.91753 49.3574 7.526 49.3574 7.65768C49.3574 7.71314 49.4803 7.87341 49.6306 8.01375C49.7808 8.15408 49.9038 8.32546 49.9038 8.3944C49.9038 8.46343 49.9857 8.57899 50.0859 8.6512C50.1861 8.72342 50.268 8.84636 50.268 8.9244C50.268 9.00244 50.35 9.12538 50.4502 9.19759C50.5503 9.26981 50.6323 9.40176 50.6323 9.49092C50.6323 9.57998 50.6733 9.65292 50.7234 9.65292C50.7735 9.65292 50.8144 9.73488 50.8144 9.83505C50.8144 9.93522 50.8554 10.0172 50.9055 10.0172C50.9556 10.0172 50.9966 10.0991 50.9966 10.1993C50.9966 10.2995 51.0375 10.3814 51.0876 10.3814C51.1377 10.3814 51.1787 10.4634 51.1787 10.5636C51.1787 10.6637 51.2197 10.7457 51.2698 10.7457C51.3198 10.7457 51.3608 10.8277 51.3608 10.9278C51.3608 11.028 51.4018 11.11 51.4519 11.11C51.502 11.11 51.543 11.1919 51.543 11.2921C51.543 11.3923 51.5839 11.4742 51.634 11.4742C51.6841 11.4742 51.7251 11.5972 51.7251 11.7474C51.7251 11.8977 51.7661 12.0206 51.8162 12.0206C51.8662 12.0206 51.9072 12.1436 51.9072 12.2938C51.9072 12.4441 51.9482 12.567 51.9983 12.567C52.0484 12.567 52.0893 12.6899 52.0893 12.8402C52.0893 12.9905 52.1303 13.1134 52.1804 13.1134C52.2305 13.1134 52.2715 13.2363 52.2715 13.3866C52.2715 13.5369 52.3125 13.6598 52.3625 13.6598C52.4126 13.6598 52.4536 13.8237 52.4536 14.0241C52.4536 14.2244 52.4946 14.3883 52.5447 14.3883C52.5967 14.3883 52.6357 14.6615 52.6357 15.0258C52.6357 15.39 52.6748 15.6632 52.7268 15.6632C52.782 15.6632 52.8179 16.0554 52.8179 16.6574C52.8179 17.3636 52.8508 17.6668 52.9317 17.7046C53.0228 17.7471 53.0228 17.7684 52.9317 17.8108C52.8691 17.8401 52.8179 17.9391 52.8179 18.0309C52.8179 18.1227 52.8691 18.2218 52.9317 18.251C53.0228 18.2935 53.0228 18.3148 52.9317 18.3572C52.8508 18.395 52.8179 18.6983 52.8179 19.4045C52.8179 20.0065 52.782 20.3986 52.7268 20.3986C52.6762 20.3986 52.6357 20.6415 52.6357 20.945C52.6357 21.2485 52.5953 21.4914 52.5447 21.4914C52.4946 21.4914 52.4536 21.6553 52.4536 21.8557C52.4536 22.056 52.4126 22.2199 52.3625 22.2199C52.3125 22.2199 52.2715 22.3839 52.2715 22.5842C52.2715 22.7845 52.2305 22.9485 52.1804 22.9485C52.1303 22.9485 52.0893 23.0714 52.0893 23.2217C52.0893 23.3719 52.0484 23.4948 51.9983 23.4948C51.9482 23.4948 51.9072 23.6178 51.9072 23.768C51.9072 23.9183 51.8662 24.0412 51.8162 24.0412C51.7661 24.0412 51.7251 24.1642 51.7251 24.3144C51.7251 24.4647 51.6841 24.5876 51.634 24.5876C51.5839 24.5876 51.543 24.6696 51.543 24.7698C51.543 24.8699 51.502 24.9519 51.4519 24.9519C51.4018 24.9519 51.3608 25.0338 51.3608 25.134C51.3608 25.2342 51.3198 25.3162 51.2698 25.3162C51.2197 25.3162 51.1787 25.3981 51.1787 25.4983C51.1787 25.5985 51.1377 25.6804 51.0876 25.6804C51.0375 25.6804 50.9966 25.7624 50.9966 25.8625C50.9966 25.9627 50.9556 26.0447 50.9055 26.0447C50.8554 26.0447 50.8144 26.1266 50.8144 26.2268C50.8144 26.327 50.7735 26.4089 50.7234 26.4089C50.6733 26.4089 50.6323 26.4819 50.6323 26.5709C50.6323 26.6601 50.5503 26.792 50.4502 26.8643C50.35 26.9365 50.268 27.0594 50.268 27.1375C50.268 27.2155 50.1861 27.3384 50.0859 27.4107C49.9857 27.4829 49.9038 27.5984 49.9038 27.6675C49.9038 27.7364 49.7808 27.9078 49.6306 28.0481C49.4803 28.1884 49.3574 28.3504 49.3574 28.4077C49.3574 28.4652 49.0705 28.7951 48.7199 29.1409C48.3693 29.4867 48.0825 29.833 48.0825 29.9106C48.0825 29.9881 48.019 30.0515 47.9415 30.0515C47.8639 30.0515 47.5176 30.3384 47.1718 30.689C46.826 31.0396 46.4961 31.3265 46.4387 31.3265C46.3813 31.3265 46.2194 31.4494 46.079 31.5997C45.9387 31.7499 45.7673 31.8729 45.6984 31.8729C45.6294 31.8729 45.5138 31.9548 45.4416 32.055C45.3694 32.1552 45.2464 32.2371 45.1684 32.2371C45.0903 32.2371 44.9674 32.3191 44.8952 32.4192C44.823 32.5194 44.691 32.6014 44.6019 32.6014C44.5128 32.6014 44.4399 32.6424 44.4399 32.6924C44.4399 32.7425 44.3579 32.7835 44.2577 32.7835C44.1576 32.7835 44.0756 32.8245 44.0756 32.8746C44.0756 32.9247 43.9936 32.9656 43.8935 32.9656C43.7933 32.9656 43.7113 33.0066 43.7113 33.0567C43.7113 33.1068 43.6294 33.1478 43.5292 33.1478C43.429 33.1478 43.3471 33.1887 43.3471 33.2388C43.3471 33.2889 43.2651 33.3299 43.165 33.3299C43.0648 33.3299 42.9828 33.3709 42.9828 33.421C42.9828 33.4711 42.9009 33.512 42.8007 33.512C42.7005 33.512 42.6186 33.553 42.6186 33.6031C42.6186 33.6532 42.4956 33.6942 42.3454 33.6942C42.1951 33.6942 42.0722 33.7351 42.0722 33.7852C42.0722 33.8353 41.9902 33.8763 41.89 33.8763C41.7899 33.8763 41.7079 33.9173 41.7079 33.9674C41.7079 34.0174 41.585 34.0584 41.4347 34.0584C41.2845 34.0584 41.1615 34.0994 41.1615 34.1495C41.1615 34.1996 41.0386 34.2406 40.8883 34.2406C40.7381 34.2406 40.6151 34.2815 40.6151 34.3316C40.6151 34.3817 40.4512 34.4227 40.2509 34.4227C40.0505 34.4227 39.8866 34.4637 39.8866 34.5137C39.8866 34.5638 39.7227 34.6048 39.5223 34.6048C39.322 34.6048 39.1581 34.6458 39.1581 34.6959C39.1581 34.746 38.9532 34.7869 38.7028 34.7869C38.4523 34.7869 38.2474 34.8279 38.2474 34.878C38.2474 34.9311 37.9439 34.9691 37.5189 34.9691C37.0939 34.9691 36.7904 35.007 36.7904 35.0601C36.7904 35.1178 36.1226 35.1512 34.9691 35.1512C33.8155 35.1512 33.1478 35.1178 33.1478 35.0601C33.1478 35.007 32.8442 34.9691 32.4192 34.9691C31.9942 34.9691 31.6907 34.9311 31.6907 34.878C31.6907 34.8279 31.4858 34.7869 31.2354 34.7869C30.985 34.7869 30.7801 34.746 30.7801 34.6959C30.7801 34.6458 30.6162 34.6048 30.4158 34.6048C30.2155 34.6048 30.0515 34.5638 30.0515 34.5137C30.0515 34.4637 29.8876 34.4227 29.6873 34.4227C29.4869 34.4227 29.323 34.3817 29.323 34.3316C29.323 34.2815 29.2001 34.2406 29.0498 34.2406C28.8996 34.2406 28.7766 34.1996 28.7766 34.1495C28.7766 34.0994 28.6537 34.0584 28.5034 34.0584C28.3532 34.0584 28.2302 34.0174 28.2302 33.9674C28.2302 33.9173 28.1073 33.8763 27.957 33.8763C27.8068 33.8763 27.6838 33.8353 27.6838 33.7852C27.6838 33.7351 27.6019 33.6942 27.5017 33.6942C27.4015 33.6942 27.3196 33.6532 27.3196 33.6031C27.3196 33.553 27.2376 33.512 27.1375 33.512C27.0373 33.512 26.9553 33.4711 26.9553 33.421C26.9553 33.3709 26.8734 33.3299 26.7732 33.3299C26.673 33.3299 26.5911 33.2889 26.5911 33.2388C26.5911 33.1887 26.5091 33.1478 26.4089 33.1478C26.3088 33.1478 26.2268 33.1068 26.2268 33.0567C26.2268 33.0066 26.1448 32.9656 26.0447 32.9656C25.9445 32.9656 25.8625 32.9247 25.8625 32.8746C25.8625 32.8245 25.7806 32.7835 25.6804 32.7835C25.5802 32.7835 25.4983 32.7425 25.4983 32.6924C25.4983 32.6424 25.4253 32.6014 25.3363 32.6014C25.2471 32.6014 25.1152 32.5194 25.043 32.4192C24.9707 32.3191 24.8478 32.2371 24.7698 32.2371C24.6917 32.2371 24.5688 32.1552 24.4966 32.055C24.4243 31.9548 24.3088 31.8729 24.2398 31.8729C24.1708 31.8729 23.9994 31.7499 23.8591 31.5997C23.7188 31.4494 23.5562 31.3265 23.4979 31.3265C23.4397 31.3265 23.1924 31.1216 22.9485 30.8711C22.7045 30.6207 22.4604 30.4158 22.406 30.4158C22.277 30.4158 21.3093 29.4481 21.3093 29.3191C21.3093 29.2647 21.1044 29.0206 20.854 28.7766C20.6035 28.5327 20.3986 28.2781 20.3986 28.2108C20.3986 28.1434 20.3167 28.0293 20.2165 27.957C20.1163 27.8848 20.0344 27.7619 20.0344 27.6838C20.0344 27.6058 19.9524 27.4829 19.8522 27.4107C19.7521 27.3384 19.6701 27.2155 19.6701 27.1375C19.6701 27.0594 19.5881 26.9365 19.488 26.8643C19.3878 26.792 19.3058 26.6601 19.3058 26.5709C19.3058 26.4819 19.2649 26.4089 19.2148 26.4089C19.1647 26.4089 19.1237 26.327 19.1237 26.2268C19.1237 26.1266 19.0827 26.0447 19.0326 26.0447C18.9826 26.0447 18.9416 25.9627 18.9416 25.8625C18.9416 25.7624 18.9006 25.6804 18.8505 25.6804C18.8004 25.6804 18.7595 25.5985 18.7595 25.4983C18.7595 25.3981 18.7185 25.3162 18.6684 25.3162C18.6183 25.3162 18.5773 25.2342 18.5773 25.134C18.5773 25.0338 18.5363 24.9519 18.4863 24.9519C18.4362 24.9519 18.3952 24.8699 18.3952 24.7698C18.3952 24.6696 18.3542 24.5876 18.3041 24.5876C18.254 24.5876 18.2131 24.4647 18.2131 24.3144C18.2131 24.1642 18.1721 24.0412 18.122 24.0412C18.0719 24.0412 18.0309 23.9593 18.0309 23.8591C18.0309 23.7589 17.9899 23.677 17.9399 23.677C17.8898 23.677 17.8488 23.554 17.8488 23.4038C17.8488 23.2535 17.8078 23.1306 17.7577 23.1306C17.7076 23.1306 17.6667 22.9667 17.6667 22.7663C17.6667 22.566 17.6257 22.4021 17.5756 22.4021C17.5255 22.4021 17.4845 22.2381 17.4845 22.0378C17.4845 21.8375 17.4436 21.6735 17.3935 21.6735C17.3434 21.6735 17.3024 21.5096 17.3024 21.3093C17.3024 21.1089 17.2614 20.945 17.2113 20.945C17.1613 20.945 17.1203 21.027 17.1203 21.1271C17.1203 21.2273 17.0793 21.3093 17.0292 21.3093C16.9791 21.3093 16.9381 21.4322 16.9381 21.5825C16.9381 21.7327 16.8972 21.8557 16.8471 21.8557C16.797 21.8557 16.756 21.9286 16.756 22.0177C16.756 22.1068 16.6741 22.2388 16.5739 22.311C16.4737 22.3832 16.3918 22.5061 16.3918 22.5842C16.3918 22.6622 16.3098 22.7852 16.2096 22.8574C16.1095 22.9296 16.0275 23.0417 16.0275 23.1065C16.0275 23.1712 15.6797 23.572 15.2547 23.997C14.8297 24.422 14.4289 24.7698 14.3642 24.7698C14.2994 24.7698 14.1873 24.8517 14.1151 24.9519C14.0429 25.0521 13.92 25.134 13.8419 25.134C13.7639 25.134 13.6409 25.216 13.5687 25.3162C13.4965 25.4163 13.3646 25.4983 13.2754 25.4983C13.1864 25.4983 13.1134 25.5393 13.1134 25.5893C13.1134 25.6394 13.0314 25.6804 12.9313 25.6804C12.8311 25.6804 12.7491 25.7214 12.7491 25.7715C12.7491 25.8216 12.6262 25.8625 12.4759 25.8625C12.3257 25.8625 12.2027 25.9035 12.2027 25.9536C12.2027 26.0037 12.1208 26.0447 12.0206 26.0447C11.9204 26.0447 11.8385 26.0857 11.8385 26.1357C11.8385 26.1858 11.6746 26.2268 11.4742 26.2268C11.2739 26.2268 11.11 26.2678 11.11 26.3179C11.11 26.368 10.9051 26.4089 10.6546 26.4089C10.4042 26.4089 10.1993 26.4499 10.1993 26.5C10.1993 26.5566 9.68325 26.5911 8.83333 26.5911C7.98342 26.5911 7.46735 26.5566 7.46735 26.5C7.46735 26.4499 7.26246 26.4089 7.01203 26.4089C6.7616 26.4089 6.5567 26.368 6.5567 26.3179C6.5567 26.2678 6.43376 26.2268 6.28351 26.2268C6.13325 26.2268 6.01031 26.1858 6.01031 26.1357C6.01031 26.0857 5.88737 26.0447 5.73711 26.0447C5.58686 26.0447 5.46392 26.0037 5.46392 25.9536C5.46392 25.9035 5.38196 25.8625 5.28179 25.8625C5.18162 25.8625 5.09966 25.8216 5.09966 25.7715C5.09966 25.7214 4.98573 25.6804 4.84659 25.6804C4.69797 25.6804 4.53933 25.6052 4.4622 25.4983C4.38998 25.3981 4.25803 25.3162 4.16888 25.3162C4.07982 25.3162 4.00687 25.2752 4.00687 25.2251C4.00687 25.175 3.9414 25.134 3.86126 25.134C3.78121 25.134 3.60081 25.0111 3.46048 24.8608C3.32015 24.7106 3.15951 24.5876 3.10351 24.5876C3.04759 24.5876 2.73615 24.322 2.4115 23.9974C2.08695 23.6728 1.82131 23.3613 1.82131 23.3054C1.82131 23.2494 1.69837 23.0888 1.54811 22.9485C1.39785 22.8081 1.27491 22.6277 1.27491 22.5477C1.27491 22.4675 1.23393 22.4021 1.18385 22.4021C1.13376 22.4021 1.09278 22.3201 1.09278 22.2199C1.09278 22.1198 1.0518 22.0378 1.00172 22.0378C0.951632 22.0378 0.910653 21.9558 0.910653 21.8557C0.910653 21.7555 0.869674 21.6735 0.819588 21.6735C0.769502 21.6735 0.728522 21.5916 0.728522 21.4914C0.728522 21.3912 0.687543 21.3093 0.637457 21.3093C0.587371 21.3093 0.546392 21.1863 0.546392 21.0361C0.546392 20.8858 0.505412 20.7629 0.455326 20.7629C0.405241 20.7629 0.364261 20.6399 0.364261 20.4897C0.364261 20.3394 0.323282 20.2165 0.273196 20.2165C0.22311 20.2165 0.182131 20.0116 0.182131 19.7612C0.182131 19.5107 0.141151 19.3058 0.0910653 19.3058C0.0346959 19.3058 0 18.8202 0 18.0309C0 17.2417 0.0346959 16.756 0.0910653 16.756C0.141151 16.756 0.182131 16.5511 0.182131 16.3007C0.182131 16.0503 0.22311 15.8454 0.273196 15.8454C0.323282 15.8454 0.364261 15.7224 0.364261 15.5722C0.364261 15.4219 0.405241 15.299 0.455326 15.299C0.505412 15.299 0.546392 15.176 0.546392 15.0258C0.546392 14.8755 0.587371 14.7526 0.637457 14.7526C0.687543 14.7526 0.728522 14.6706 0.728522 14.5704C0.728522 14.4703 0.769502 14.3883 0.819588 14.3883C0.869674 14.3883 0.910653 14.3064 0.910653 14.2062C0.910653 14.106 0.951632 14.0241 1.00172 14.0241C1.0518 14.0241 1.09278 13.9511 1.09278 13.8621C1.09278 13.7729 1.17474 13.6409 1.27491 13.5687C1.37509 13.4965 1.45704 13.3819 1.45704 13.3138C1.45704 13.2458 1.62096 13.0327 1.82131 12.8402C2.02165 12.6477 2.18557 12.4431 2.18557 12.3855C2.18557 12.2508 2.41505 12.0206 2.54919 12.0206C2.6061 12.0206 2.85226 11.8157 3.09622 11.5653C3.34018 11.3149 3.5948 11.11 3.6621 11.11C3.72949 11.11 3.84359 11.028 3.91581 10.9278C3.98802 10.8277 4.11998 10.7457 4.20913 10.7457C4.29819 10.7457 4.37113 10.7047 4.37113 10.6546C4.37113 10.6046 4.45309 10.5636 4.55326 10.5636C4.65344 10.5636 4.7354 10.5226 4.7354 10.4725C4.7354 10.4224 4.81735 10.3814 4.91753 10.3814C5.0177 10.3814 5.09966 10.3405 5.09966 10.2904C5.09966 10.2403 5.22259 10.1993 5.37285 10.1993C5.52311 10.1993 5.64605 10.1583 5.64605 10.1082C5.64605 10.0582 5.76899 10.0172 5.91924 10.0172C6.0695 10.0172 6.19244 9.9762 6.19244 9.92612C6.19244 9.87603 6.35636 9.83505 6.5567 9.83505C6.75705 9.83505 6.92096 9.79407 6.92096 9.74399C6.92096 9.68616 7.61916 9.65292 8.83333 9.65292C10.0475 9.65292 10.7457 9.68616 10.7457 9.74399C10.7457 9.79407 10.9096 9.83505 11.11 9.83505C11.3103 9.83505 11.4742 9.87603 11.4742 9.92612C11.4742 9.9762 11.5972 10.0172 11.7474 10.0172C11.8977 10.0172 12.0206 10.0582 12.0206 10.1082C12.0206 10.1583 12.1436 10.1993 12.2938 10.1993C12.4441 10.1993 12.567 10.2403 12.567 10.2904C12.567 10.3405 12.649 10.3814 12.7491 10.3814C12.8493 10.3814 12.9313 10.4224 12.9313 10.4725C12.9313 10.5226 13.0132 10.5636 13.1134 10.5636C13.2136 10.5636 13.2955 10.6046 13.2955 10.6546C13.2955 10.7047 13.3685 10.7457 13.4575 10.7457C13.5467 10.7457 13.6786 10.8277 13.7509 10.9278C13.8231 11.028 13.9386 11.11 14.0077 11.11C14.0766 11.11 14.248 11.2329 14.3883 11.3832C14.5286 11.5334 14.6895 11.6564 14.7456 11.6564C14.8881 11.6564 15.8454 12.6279 15.8454 12.7726C15.8454 12.8377 15.9273 12.9501 16.0275 13.0223C16.1277 13.0946 16.2096 13.2175 16.2096 13.2955C16.2096 13.3736 16.2916 13.4965 16.3918 13.5687C16.4919 13.6409 16.5739 13.7729 16.5739 13.8621C16.5739 13.9511 16.6149 14.0241 16.6649 14.0241C16.715 14.0241 16.756 14.106 16.756 14.2062C16.756 14.3064 16.797 14.3883 16.8471 14.3883C16.8972 14.3883 16.9381 14.4703 16.9381 14.5704C16.9381 14.6706 16.9791 14.7526 17.0292 14.7526C17.0793 14.7526 17.1203 14.8345 17.1203 14.9347C17.1203 15.0349 17.1613 15.1168 17.2113 15.1168C17.2614 15.1168 17.3024 14.9529 17.3024 14.7526C17.3024 14.5522 17.3434 14.3883 17.3935 14.3883C17.4436 14.3883 17.4845 14.2244 17.4845 14.0241C17.4845 13.8237 17.5255 13.6598 17.5756 13.6598C17.6257 13.6598 17.6667 13.4959 17.6667 13.2955C17.6667 13.0952 17.7076 12.9313 17.7577 12.9313C17.8078 12.9313 17.8488 12.8083 17.8488 12.6581C17.8488 12.5078 17.8898 12.3849 17.9399 12.3849C17.9899 12.3849 18.0309 12.2619 18.0309 12.1117C18.0309 11.9614 18.0719 11.8385 18.122 11.8385C18.1721 11.8385 18.2131 11.7565 18.2131 11.6564C18.2131 11.5562 18.254 11.4742 18.3041 11.4742C18.3542 11.4742 18.3952 11.3923 18.3952 11.2921C18.3952 11.1919 18.4362 11.11 18.4863 11.11C18.5363 11.11 18.5773 11.028 18.5773 10.9278C18.5773 10.8277 18.6183 10.7457 18.6684 10.7457C18.7185 10.7457 18.7595 10.6637 18.7595 10.5636C18.7595 10.4634 18.8004 10.3814 18.8505 10.3814C18.9006 10.3814 18.9416 10.2995 18.9416 10.1993C18.9416 10.0991 18.9826 10.0172 19.0326 10.0172C19.0827 10.0172 19.1237 9.93522 19.1237 9.83505C19.1237 9.73488 19.1647 9.65292 19.2148 9.65292C19.2649 9.65292 19.3058 9.57096 19.3058 9.47079C19.3058 9.37062 19.3468 9.28866 19.3969 9.28866C19.447 9.28866 19.488 9.21572 19.488 9.12666C19.488 9.0375 19.5699 8.90555 19.6701 8.83333C19.7703 8.76112 19.8522 8.64556 19.8522 8.57653C19.8522 8.50759 19.9752 8.33621 20.1254 8.19588C20.2757 8.05554 20.3986 7.89299 20.3986 7.83471C20.3986 7.77643 20.6035 7.52919 20.854 7.28522C21.1044 7.04126 21.3093 6.79721 21.3093 6.74275C21.3093 6.6138 22.277 5.64605 22.406 5.64605C22.4604 5.64605 22.7045 5.44115 22.9485 5.19072C23.1924 4.94029 23.4397 4.7354 23.4979 4.7354C23.5562 4.7354 23.7188 4.61246 23.8591 4.4622C23.9994 4.31194 24.1708 4.189 24.2398 4.189C24.3088 4.189 24.4243 4.10704 24.4966 4.00687C24.5688 3.9067 24.7007 3.82474 24.7899 3.82474C24.8789 3.82474 24.9519 3.78376 24.9519 3.73368C24.9519 3.68359 25.0248 3.64261 25.1139 3.64261C25.2031 3.64261 25.335 3.56065 25.4072 3.46048C25.4794 3.36031 25.6114 3.27835 25.7005 3.27835C25.7896 3.27835 25.8625 3.23737 25.8625 3.18729C25.8625 3.1372 25.9445 3.09622 26.0447 3.09622C26.1448 3.09622 26.2268 3.05524 26.2268 3.00515C26.2268 2.95507 26.3088 2.91409 26.4089 2.91409C26.5091 2.91409 26.5911 2.87311 26.5911 2.82302C26.5911 2.77294 26.673 2.73196 26.7732 2.73196C26.8734 2.73196 26.9553 2.69098 26.9553 2.64089C26.9553 2.59081 27.0783 2.54983 27.2285 2.54983C27.3788 2.54983 27.5017 2.50885 27.5017 2.45876C27.5017 2.40868 27.5837 2.3677 27.6838 2.3677C27.784 2.3677 27.866 2.32672 27.866 2.27663C27.866 2.22655 27.9889 2.18557 28.1392 2.18557C28.2894 2.18557 28.4124 2.14459 28.4124 2.0945C28.4124 2.04442 28.5353 2.00344 28.6856 2.00344C28.8358 2.00344 28.9588 1.96246 28.9588 1.91237C28.9588 1.86229 29.0817 1.82131 29.232 1.82131C29.3822 1.82131 29.5052 1.78033 29.5052 1.73024C29.5052 1.68015 29.6691 1.63918 29.8694 1.63918C30.0698 1.63918 30.2337 1.5982 30.2337 1.54811C30.2337 1.49802 30.3976 1.45704 30.5979 1.45704C30.7983 1.45704 30.9622 1.41607 30.9622 1.36598C30.9622 1.31535 31.2051 1.27491 31.5086 1.27491C31.8121 1.27491 32.055 1.23448 32.055 1.18385C32.055 1.12866 32.4496 1.09278 33.0567 1.09278C33.6638 1.09278 34.0584 1.0569 34.0584 1.00172C34.0584 0.951632 34.0994 0.910653 34.1495 0.910653C34.1996 0.910653 34.2406 0.951632 34.2406 1.00172ZM4.91753 5.37285C4.91753 5.42294 4.87655 5.46392 4.82646 5.46392C4.77637 5.46392 4.7354 5.42294 4.7354 5.37285C4.7354 5.32277 4.77637 5.28179 4.82646 5.28179C4.87655 5.28179 4.91753 5.32277 4.91753 5.37285ZM34.2406 6.8299C34.2406 6.8819 33.9674 6.92096 33.6031 6.92096C33.2388 6.92096 32.9656 6.96003 32.9656 7.01203C32.9656 7.06211 32.7607 7.10309 32.5103 7.10309C32.2599 7.10309 32.055 7.14407 32.055 7.19416C32.055 7.24424 31.932 7.28522 31.7818 7.28522C31.6315 7.28522 31.5086 7.3262 31.5086 7.37629C31.5086 7.42637 31.3857 7.46735 31.2354 7.46735C31.0851 7.46735 30.9622 7.50833 30.9622 7.55842C30.9622 7.60851 30.8393 7.64948 30.689 7.64948C30.5387 7.64948 30.4158 7.69046 30.4158 7.74055C30.4158 7.79064 30.3338 7.83162 30.2337 7.83162C30.1335 7.83162 30.0515 7.87259 30.0515 7.92268C30.0515 7.97277 29.9696 8.01375 29.8694 8.01375C29.7692 8.01375 29.6873 8.05473 29.6873 8.10481C29.6873 8.1549 29.6143 8.19588 29.5253 8.19588C29.4361 8.19588 29.3042 8.27783 29.232 8.37801C29.1597 8.47818 29.0368 8.56014 28.9588 8.56014C28.8807 8.56014 28.7578 8.6421 28.6856 8.74227C28.6134 8.84244 28.4904 8.9244 28.4124 8.9244C28.3343 8.9244 28.2114 9.00636 28.1392 9.10653C28.067 9.2067 27.955 9.28866 27.8902 9.28866C27.7469 9.28866 26.0447 10.9756 26.0447 11.1178C26.0447 11.1734 25.9217 11.3339 25.7715 11.4742C25.6212 11.6146 25.4983 11.795 25.4983 11.875C25.4983 11.9551 25.4573 12.0206 25.4072 12.0206C25.3571 12.0206 25.3162 12.0936 25.3162 12.1826C25.3162 12.2718 25.2342 12.4037 25.134 12.4759C25.0338 12.5482 24.9519 12.6801 24.9519 12.7693C24.9519 12.8583 24.9109 12.9313 24.8608 12.9313C24.8107 12.9313 24.7698 13.0132 24.7698 13.1134C24.7698 13.2136 24.7288 13.2955 24.6787 13.2955C24.6286 13.2955 24.5876 13.4185 24.5876 13.5687C24.5876 13.719 24.5466 13.8419 24.4966 13.8419C24.4465 13.8419 24.4055 13.9239 24.4055 14.0241C24.4055 14.1242 24.3645 14.2062 24.3144 14.2062C24.2643 14.2062 24.2234 14.3291 24.2234 14.4794C24.2234 14.6296 24.1824 14.7526 24.1323 14.7526C24.0822 14.7526 24.0412 14.9131 24.0412 15.1093C24.0412 15.3122 23.9922 15.4835 23.9274 15.5066C23.8648 15.5289 23.8424 15.5782 23.8775 15.6161C23.9519 15.6961 24.2234 15.4505 24.2234 15.3031C24.2234 15.1622 25.0133 14.3883 25.1571 14.3883C25.2225 14.3883 25.335 14.3064 25.4072 14.2062C25.4794 14.106 25.6114 14.0241 25.7005 14.0241C25.7896 14.0241 25.8625 13.9831 25.8625 13.933C25.8625 13.8829 25.9445 13.8419 26.0447 13.8419C26.1448 13.8419 26.2268 13.8009 26.2268 13.7509C26.2268 13.7008 26.3907 13.6598 26.5911 13.6598C26.7914 13.6598 26.9553 13.6188 26.9553 13.5687C26.9553 13.5135 27.3499 13.4777 27.957 13.4777C28.5642 13.4777 28.9588 13.5135 28.9588 13.5687C28.9588 13.6188 29.0817 13.6598 29.232 13.6598C29.3822 13.6598 29.5052 13.7008 29.5052 13.7509C29.5052 13.8009 29.6191 13.8419 29.7582 13.8419C29.9068 13.8419 30.0655 13.9171 30.1426 14.0241C30.2148 14.1242 30.3269 14.2062 30.3919 14.2062C30.5575 14.2062 31.8729 15.5394 31.8729 15.7073C31.8729 15.7833 31.9138 15.8454 31.9639 15.8454C32.014 15.8454 32.055 15.9273 32.055 16.0275C32.055 16.1277 32.096 16.2096 32.146 16.2096C32.1961 16.2096 32.2371 16.3326 32.2371 16.4828C32.2371 16.6331 32.2781 16.756 32.3282 16.756C32.3783 16.756 32.4192 16.9609 32.4192 17.2113C32.4192 17.4618 32.4602 17.6667 32.5103 17.6667C32.5604 17.6667 32.6014 17.7486 32.6014 17.8488C32.6014 17.949 32.5604 18.0309 32.5103 18.0309C32.3789 18.0309 32.398 18.3701 32.5331 18.4332C32.6241 18.4756 32.6241 18.4969 32.5331 18.5393C32.4647 18.5713 32.4192 18.7711 32.4192 19.0402C32.4192 19.2865 32.3783 19.488 32.3282 19.488C32.2781 19.488 32.2371 19.5699 32.2371 19.6701C32.2371 19.7703 32.1961 19.8522 32.146 19.8522C32.096 19.8522 32.055 19.9342 32.055 20.0344C32.055 20.1345 32.014 20.2165 31.9639 20.2165C31.9138 20.2165 31.8729 20.2985 31.8729 20.3986C31.8729 20.4988 31.8319 20.5808 31.7818 20.5808C31.7317 20.5808 31.6907 20.6431 31.6907 20.7194C31.6907 20.8881 30.7403 21.8557 30.5744 21.8557C30.5093 21.8557 30.397 21.9376 30.3247 22.0378C30.2476 22.1447 30.089 22.2199 29.9404 22.2199C29.8012 22.2199 29.6873 22.2609 29.6873 22.311C29.6873 22.3611 29.6053 22.4021 29.5052 22.4021C29.405 22.4021 29.323 22.443 29.323 22.4931C29.323 22.5462 29.0195 22.5842 28.5945 22.5842C28.1695 22.5842 27.866 22.6222 27.866 22.6753C27.866 22.7253 27.784 22.7663 27.6838 22.7663C27.5837 22.7663 27.5017 22.7253 27.5017 22.6753C27.5017 22.6252 27.2968 22.5842 27.0464 22.5842C26.796 22.5842 26.5911 22.5432 26.5911 22.4931C26.5911 22.443 26.4681 22.4021 26.3179 22.4021C26.1676 22.4021 26.0447 22.3611 26.0447 22.311C26.0447 22.2609 25.9627 22.2199 25.8625 22.2199C25.7624 22.2199 25.6804 22.179 25.6804 22.1289C25.6804 22.0788 25.6169 22.0378 25.5394 22.0378C25.4619 22.0378 25.1155 21.7509 24.7698 21.4003C24.424 21.0497 24.1186 20.7629 24.0911 20.7629C24.0637 20.7629 24.0412 20.8858 24.0412 21.0361C24.0412 21.1863 24.0822 21.3093 24.1323 21.3093C24.1824 21.3093 24.2234 21.4322 24.2234 21.5825C24.2234 21.7327 24.2643 21.8557 24.3144 21.8557C24.3645 21.8557 24.4055 21.9376 24.4055 22.0378C24.4055 22.138 24.4465 22.2199 24.4966 22.2199C24.5466 22.2199 24.5876 22.3429 24.5876 22.4931C24.5876 22.6434 24.6286 22.7663 24.6787 22.7663C24.7288 22.7663 24.7698 22.8483 24.7698 22.9485C24.7698 23.0486 24.8107 23.1306 24.8608 23.1306C24.9109 23.1306 24.9519 23.2035 24.9519 23.2926C24.9519 23.3817 25.0338 23.5137 25.134 23.5859C25.2342 23.6581 25.3162 23.7811 25.3162 23.8591C25.3162 23.9372 25.3981 24.0601 25.4983 24.1323C25.5985 24.2045 25.6804 24.3201 25.6804 24.3891C25.6804 24.458 25.8034 24.6294 25.9536 24.7698C26.1039 24.9101 26.2268 25.0706 26.2268 25.1263C26.2268 25.1821 26.5746 25.5754 26.9996 26.0004C27.4246 26.4254 27.8179 26.7732 27.8737 26.7732C27.9294 26.7732 28.0899 26.8961 28.2302 27.0464C28.3706 27.1966 28.542 27.3196 28.6109 27.3196C28.6799 27.3196 28.7955 27.4015 28.8677 27.5017C28.9399 27.6019 29.0719 27.6838 29.161 27.6838C29.2501 27.6838 29.323 27.7248 29.323 27.7749C29.323 27.825 29.405 27.866 29.5052 27.866C29.6053 27.866 29.6873 27.907 29.6873 27.957C29.6873 28.0071 29.7692 28.0481 29.8694 28.0481C29.9696 28.0481 30.0515 28.0891 30.0515 28.1392C30.0515 28.1893 30.1335 28.2302 30.2337 28.2302C30.3338 28.2302 30.4158 28.2712 30.4158 28.3213C30.4158 28.3714 30.4978 28.4124 30.5979 28.4124C30.6981 28.4124 30.7801 28.4534 30.7801 28.5034C30.7801 28.5535 30.903 28.5945 31.0533 28.5945C31.2035 28.5945 31.3265 28.6355 31.3265 28.6856C31.3265 28.7357 31.4494 28.7766 31.5997 28.7766C31.7499 28.7766 31.8729 28.8176 31.8729 28.8677C31.8729 28.9178 32.0368 28.9588 32.2371 28.9588C32.4375 28.9588 32.6014 28.9997 32.6014 29.0498C32.6014 29.0999 32.8063 29.1409 33.0567 29.1409C33.3071 29.1409 33.512 29.1819 33.512 29.232C33.512 29.2889 34.0584 29.323 34.9691 29.323C35.8797 29.323 36.4261 29.2889 36.4261 29.232C36.4261 29.1813 36.669 29.1409 36.9725 29.1409C37.276 29.1409 37.5189 29.1005 37.5189 29.0498C37.5189 28.9997 37.6828 28.9588 37.8832 28.9588C38.0835 28.9588 38.2474 28.9178 38.2474 28.8677C38.2474 28.8176 38.3704 28.7766 38.5206 28.7766C38.6709 28.7766 38.7938 28.7357 38.7938 28.6856C38.7938 28.6355 38.9168 28.5945 39.067 28.5945C39.2173 28.5945 39.3402 28.5535 39.3402 28.5034C39.3402 28.4534 39.4222 28.4124 39.5223 28.4124C39.6225 28.4124 39.7045 28.3714 39.7045 28.3213C39.7045 28.2712 39.7864 28.2302 39.8866 28.2302C39.9868 28.2302 40.0687 28.1893 40.0687 28.1392C40.0687 28.0891 40.1507 28.0481 40.2509 28.0481C40.351 28.0481 40.433 28.0071 40.433 27.957C40.433 27.907 40.5059 27.866 40.595 27.866C40.6842 27.866 40.8161 27.784 40.8883 27.6838C40.9605 27.5837 41.0761 27.5017 41.1451 27.5017C41.2141 27.5017 41.3854 27.3788 41.5258 27.2285C41.6661 27.0783 41.8265 26.9553 41.8821 26.9553C41.9378 26.9553 42.413 26.5255 42.9384 26.0002C43.4636 25.4749 43.8935 24.9996 43.8935 24.944C43.8935 24.8883 44.0164 24.728 44.1667 24.5876C44.3169 24.4473 44.4399 24.2759 44.4399 24.207C44.4399 24.1379 44.5218 24.0224 44.622 23.9502C44.7222 23.878 44.8041 23.746 44.8041 23.6569C44.8041 23.5678 44.8451 23.4948 44.8952 23.4948C44.9453 23.4948 44.9863 23.4129 44.9863 23.3127C44.9863 23.2125 45.0272 23.1306 45.0773 23.1306C45.1274 23.1306 45.1684 23.0486 45.1684 22.9485C45.1684 22.8483 45.2094 22.7663 45.2595 22.7663C45.3095 22.7663 45.3505 22.6434 45.3505 22.4931C45.3505 22.3429 45.3915 22.2199 45.4416 22.2199C45.4917 22.2199 45.5326 22.138 45.5326 22.0378C45.5326 21.9376 45.5736 21.8557 45.6237 21.8557C45.6738 21.8557 45.7148 21.7327 45.7148 21.5825C45.7148 21.4322 45.7558 21.3093 45.8058 21.3093C45.8559 21.3093 45.8969 21.1454 45.8969 20.945C45.8969 20.7447 45.9379 20.5808 45.988 20.5808C46.0386 20.5808 46.079 20.3379 46.079 20.0344C46.079 19.7308 46.1195 19.488 46.1701 19.488C46.227 19.488 46.2612 18.9416 46.2612 18.0309C46.2612 17.1203 46.227 16.5739 46.1701 16.5739C46.1195 16.5739 46.079 16.331 46.079 16.0275C46.079 15.724 46.0386 15.4811 45.988 15.4811C45.9379 15.4811 45.8969 15.3172 45.8969 15.1168C45.8969 14.9165 45.8559 14.7526 45.8058 14.7526C45.7558 14.7526 45.7148 14.6296 45.7148 14.4794C45.7148 14.3291 45.6738 14.2062 45.6237 14.2062C45.5736 14.2062 45.5326 14.1242 45.5326 14.0241C45.5326 13.9239 45.4917 13.8419 45.4416 13.8419C45.3915 13.8419 45.3505 13.719 45.3505 13.5687C45.3505 13.4185 45.3095 13.2955 45.2595 13.2955C45.2094 13.2955 45.1684 13.2136 45.1684 13.1134C45.1684 13.0132 45.1274 12.9313 45.0773 12.9313C45.0272 12.9313 44.9863 12.8583 44.9863 12.7693C44.9863 12.6801 44.9043 12.5482 44.8041 12.4759C44.704 12.4037 44.622 12.2718 44.622 12.1826C44.622 12.0936 44.581 12.0206 44.5309 12.0206C44.4808 12.0206 44.4399 11.9551 44.4399 11.875C44.4399 11.795 44.3169 11.6146 44.1667 11.4742C44.0164 11.3339 43.8935 11.1735 43.8935 11.1179C43.8935 10.9758 42.0089 9.10653 41.8656 9.10653C41.801 9.10653 41.6891 9.02457 41.6168 8.9244C41.5446 8.82423 41.4217 8.74227 41.3436 8.74227C41.2656 8.74227 41.1427 8.66031 41.0704 8.56014C40.9982 8.45997 40.8663 8.37801 40.7771 8.37801C40.6881 8.37801 40.6151 8.33703 40.6151 8.28694C40.6151 8.23686 40.5332 8.19588 40.433 8.19588C40.3328 8.19588 40.2509 8.1549 40.2509 8.10481C40.2509 8.05473 40.1689 8.01375 40.0687 8.01375C39.9686 8.01375 39.8866 7.97277 39.8866 7.92268C39.8866 7.87259 39.8046 7.83162 39.7045 7.83162C39.6043 7.83162 39.5223 7.79064 39.5223 7.74055C39.5223 7.69046 39.4404 7.64948 39.3402 7.64948C39.24 7.64948 39.1581 7.60851 39.1581 7.55842C39.1581 7.50833 39.0351 7.46735 38.8849 7.46735C38.7346 7.46735 38.6117 7.42637 38.6117 7.37629C38.6117 7.3262 38.4887 7.28522 38.3385 7.28522C38.1882 7.28522 38.0653 7.24424 38.0653 7.19416C38.0653 7.14407 37.9014 7.10309 37.701 7.10309C37.5007 7.10309 37.3368 7.06211 37.3368 7.01203C37.3368 6.95739 36.9725 6.92096 36.4261 6.92096C35.8797 6.92096 35.5155 6.88454 35.5155 6.8299C35.5155 6.69494 34.6306 6.71616 34.5668 6.85266C34.5244 6.94373 34.5031 6.94373 34.4607 6.85266C34.3973 6.71689 34.2406 6.70068 34.2406 6.8299ZM8.37801 11.3832C8.37801 11.4338 8.13514 11.4742 7.83162 11.4742C7.5281 11.4742 7.28522 11.5147 7.28522 11.5653C7.28522 11.6154 7.12131 11.6564 6.92096 11.6564C6.72062 11.6564 6.5567 11.6973 6.5567 11.7474C6.5567 11.7975 6.47474 11.8385 6.37457 11.8385C6.2744 11.8385 6.19244 11.8795 6.19244 11.9296C6.19244 11.9796 6.11048 12.0206 6.01031 12.0206C5.91014 12.0206 5.82818 12.0616 5.82818 12.1117C5.82818 12.1618 5.74622 12.2027 5.64605 12.2027C5.54588 12.2027 5.46392 12.2437 5.46392 12.2938C5.46392 12.3439 5.38196 12.3849 5.28179 12.3849C5.18162 12.3849 5.09966 12.4259 5.09966 12.4759C5.09966 12.526 5.03764 12.567 4.96179 12.567C4.79413 12.567 3.27835 14.0647 3.27835 14.2303C3.27835 14.2951 3.19639 14.4072 3.09622 14.4794C2.99605 14.5516 2.91409 14.6836 2.91409 14.7727C2.91409 14.8618 2.87311 14.9347 2.82302 14.9347C2.77294 14.9347 2.73196 15.0167 2.73196 15.1168C2.73196 15.217 2.69098 15.299 2.64089 15.299C2.59081 15.299 2.54983 15.3809 2.54983 15.4811C2.54983 15.5813 2.50885 15.6632 2.45876 15.6632C2.40868 15.6632 2.3677 15.7862 2.3677 15.9364C2.3677 16.0867 2.32672 16.2096 2.27663 16.2096C2.22655 16.2096 2.18557 16.3735 2.18557 16.5739C2.18557 16.7742 2.14459 16.9381 2.0945 16.9381C2.03886 16.9381 2.00344 17.3631 2.00344 18.0309C2.00344 18.6987 2.03886 19.1237 2.0945 19.1237C2.14459 19.1237 2.18557 19.3286 2.18557 19.579C2.18557 19.8295 2.22655 20.0344 2.27663 20.0344C2.32672 20.0344 2.3677 20.1163 2.3677 20.2165C2.3677 20.3167 2.40868 20.3986 2.45876 20.3986C2.50885 20.3986 2.54983 20.5216 2.54983 20.6718C2.54983 20.8221 2.59081 20.945 2.64089 20.945C2.69098 20.945 2.73196 21.018 2.73196 21.107C2.73196 21.1962 2.81392 21.3281 2.91409 21.4003C3.01426 21.4726 3.09622 21.5881 3.09622 21.6571C3.09622 21.7261 3.21916 21.8975 3.36942 22.0378C3.51967 22.1781 3.64261 22.3394 3.64261 22.3961C3.64261 22.5302 4.24301 23.1306 4.37705 23.1306C4.43379 23.1306 4.59506 23.2535 4.7354 23.4038C4.87573 23.554 5.05613 23.677 5.13617 23.677C5.21631 23.677 5.28179 23.718 5.28179 23.768C5.28179 23.8181 5.36375 23.8591 5.46392 23.8591C5.56409 23.8591 5.64605 23.9001 5.64605 23.9502C5.64605 24.0003 5.72801 24.0412 5.82818 24.0412C5.92835 24.0412 6.01031 24.0822 6.01031 24.1323C6.01031 24.1824 6.09227 24.2234 6.19244 24.2234C6.29261 24.2234 6.37457 24.2643 6.37457 24.3144C6.37457 24.3645 6.49751 24.4055 6.64777 24.4055C6.79803 24.4055 6.92096 24.4465 6.92096 24.4966C6.92096 24.5466 7.08488 24.5876 7.28522 24.5876C7.48557 24.5876 7.64949 24.6286 7.64949 24.6787C7.64949 24.7347 8.10481 24.7698 8.83333 24.7698C9.56186 24.7698 10.0172 24.7347 10.0172 24.6787C10.0172 24.6286 10.1811 24.5876 10.3814 24.5876C10.5818 24.5876 10.7457 24.5466 10.7457 24.4966C10.7457 24.4465 10.8686 24.4055 11.0189 24.4055C11.1692 24.4055 11.2921 24.3645 11.2921 24.3144C11.2921 24.2643 11.415 24.2234 11.5653 24.2234C11.7156 24.2234 11.8385 24.1824 11.8385 24.1323C11.8385 24.0822 11.9114 24.0412 12.0005 24.0412C12.0897 24.0412 12.2216 23.9593 12.2938 23.8591C12.366 23.7589 12.489 23.677 12.567 23.677C12.6451 23.677 12.768 23.595 12.8402 23.4948C12.9124 23.3947 13.0248 23.3127 13.0899 23.3127C13.2346 23.3127 14.2062 22.3554 14.2062 22.2129C14.2062 22.1568 14.3291 21.996 14.4794 21.8557C14.6296 21.7153 14.7526 21.5349 14.7526 21.4549C14.7526 21.3748 14.7936 21.3093 14.8436 21.3093C14.8937 21.3093 14.9347 21.2273 14.9347 21.1271C14.9347 21.027 14.9757 20.945 15.0258 20.945C15.0759 20.945 15.1168 20.8631 15.1168 20.7629C15.1168 20.6627 15.0937 20.5808 15.0654 20.5808C15.0371 20.5808 14.8144 20.7857 14.5704 21.0361C14.3265 21.2865 14.0719 21.4914 14.0046 21.4914C13.9372 21.4914 13.8231 21.5734 13.7509 21.6735C13.6737 21.7805 13.5151 21.8557 13.3665 21.8557C13.2273 21.8557 13.1134 21.8967 13.1134 21.9467C13.1134 21.9968 12.9085 22.0378 12.6581 22.0378C12.4076 22.0378 12.2027 22.0788 12.2027 22.1289C12.2027 22.179 12.0388 22.2199 11.8385 22.2199C11.6381 22.2199 11.4742 22.179 11.4742 22.1289C11.4742 22.0788 11.2693 22.0378 11.0189 22.0378C10.7685 22.0378 10.5636 21.9968 10.5636 21.9467C10.5636 21.8967 10.4816 21.8557 10.3814 21.8557C10.2813 21.8557 10.1993 21.8147 10.1993 21.7646C10.1993 21.7145 10.0962 21.6735 9.97019 21.6735C9.80655 21.6735 9.54638 21.4788 9.05954 20.992C8.68472 20.6172 8.37801 20.2484 8.37801 20.1724C8.37801 20.0965 8.33703 20.0344 8.28694 20.0344C8.23686 20.0344 8.19588 19.9524 8.19588 19.8522C8.19588 19.7521 8.1549 19.6701 8.10481 19.6701C8.05473 19.6701 8.01375 19.5472 8.01375 19.3969C8.01375 19.2467 7.97277 19.1237 7.92268 19.1237C7.86704 19.1237 7.83162 18.6987 7.83162 18.0309C7.83162 17.3631 7.86704 16.9381 7.92268 16.9381C7.97277 16.9381 8.01375 16.8152 8.01375 16.6649C8.01375 16.5147 8.05473 16.3918 8.10481 16.3918C8.1549 16.3918 8.19588 16.3188 8.19588 16.2297C8.19588 16.1406 8.27784 16.0086 8.37801 15.9364C8.47818 15.8642 8.56014 15.7517 8.56014 15.6863C8.56014 15.5204 9.34448 14.7526 9.51396 14.7526C9.59036 14.7526 9.65292 14.7116 9.65292 14.6615C9.65292 14.6114 9.73488 14.5704 9.83505 14.5704C9.93522 14.5704 10.0172 14.5295 10.0172 14.4794C10.0172 14.4293 10.0991 14.3883 10.1993 14.3883C10.2995 14.3883 10.3814 14.3473 10.3814 14.2973C10.3814 14.2472 10.5044 14.2062 10.6546 14.2062C10.8049 14.2062 10.9278 14.1652 10.9278 14.1151C10.9278 14.0605 11.2921 14.0241 11.8385 14.0241C12.3849 14.0241 12.7491 14.0605 12.7491 14.1151C12.7491 14.1652 12.8721 14.2062 13.0223 14.2062C13.1726 14.2062 13.2955 14.2472 13.2955 14.2973C13.2955 14.3473 13.4095 14.3883 13.5486 14.3883C13.6972 14.3883 13.8559 14.4635 13.933 14.5704C14.0052 14.6706 14.1199 14.7526 14.1879 14.7526C14.2559 14.7526 14.469 14.9165 14.6615 15.1168C14.854 15.3172 15.0352 15.4811 15.0642 15.4811C15.1945 15.4811 15.0987 15.144 14.9347 15.0258C14.8345 14.9536 14.7526 14.8216 14.7526 14.7325C14.7526 14.6434 14.7116 14.5704 14.6615 14.5704C14.6114 14.5704 14.5704 14.5084 14.5704 14.4327C14.5704 14.2652 12.8905 12.567 12.7249 12.567C12.6602 12.567 12.5482 12.4851 12.4759 12.3849C12.4037 12.2847 12.2718 12.2027 12.1826 12.2027C12.0936 12.2027 12.0206 12.1618 12.0206 12.1117C12.0206 12.0616 11.9387 12.0206 11.8385 12.0206C11.7383 12.0206 11.6564 11.9796 11.6564 11.9296C11.6564 11.8795 11.5334 11.8385 11.3832 11.8385C11.2329 11.8385 11.11 11.7975 11.11 11.7474C11.11 11.6973 10.987 11.6564 10.8368 11.6564C10.6865 11.6564 10.5636 11.6154 10.5636 11.5653C10.5636 11.5133 10.2904 11.4742 9.92612 11.4742C9.56186 11.4742 9.28866 11.4352 9.28866 11.3832C9.28866 11.2518 8.94944 11.2709 8.88643 11.4059C8.84399 11.497 8.82268 11.497 8.78024 11.4059C8.71723 11.2709 8.37801 11.2518 8.37801 11.3832Z" fill="#2D9CDB"/>
<circle cx="28.5064" cy="18.1404" r="5.18297" fill="#FBB829"/>
<circle cx="11.9209" cy="18.1404" r="4.14638" fill="#FBB829"/>
</svg>
